%TF.GenerationSoftware,KiCad,Pcbnew,9.0.5*%
%TF.CreationDate,2026-02-18T19:38:21-06:00*%
%TF.ProjectId,Buisness_Card_PCB,42756973-6e65-4737-935f-436172645f50,rev?*%
%TF.SameCoordinates,Original*%
%TF.FileFunction,Soldermask,Top*%
%TF.FilePolarity,Negative*%
%FSLAX46Y46*%
G04 Gerber Fmt 4.6, Leading zero omitted, Abs format (unit mm)*
G04 Created by KiCad (PCBNEW 9.0.5) date 2026-02-18 19:38:21*
%MOMM*%
%LPD*%
G01*
G04 APERTURE LIST*
G04 Aperture macros list*
%AMRoundRect*
0 Rectangle with rounded corners*
0 $1 Rounding radius*
0 $2 $3 $4 $5 $6 $7 $8 $9 X,Y pos of 4 corners*
0 Add a 4 corners polygon primitive as box body*
4,1,4,$2,$3,$4,$5,$6,$7,$8,$9,$2,$3,0*
0 Add four circle primitives for the rounded corners*
1,1,$1+$1,$2,$3*
1,1,$1+$1,$4,$5*
1,1,$1+$1,$6,$7*
1,1,$1+$1,$8,$9*
0 Add four rect primitives between the rounded corners*
20,1,$1+$1,$2,$3,$4,$5,0*
20,1,$1+$1,$4,$5,$6,$7,0*
20,1,$1+$1,$6,$7,$8,$9,0*
20,1,$1+$1,$8,$9,$2,$3,0*%
G04 Aperture macros list end*
%ADD10RoundRect,0.100000X0.100000X-0.130000X0.100000X0.130000X-0.100000X0.130000X-0.100000X-0.130000X0*%
%ADD11C,8.000000*%
%ADD12RoundRect,0.100000X0.130000X0.100000X-0.130000X0.100000X-0.130000X-0.100000X0.130000X-0.100000X0*%
%ADD13RoundRect,0.250000X0.247487X1.166726X-1.166726X-0.247487X-0.247487X-1.166726X1.166726X0.247487X0*%
%ADD14RoundRect,0.100000X-0.130000X-0.100000X0.130000X-0.100000X0.130000X0.100000X-0.130000X0.100000X0*%
%ADD15R,1.600000X1.400000*%
%ADD16RoundRect,0.150000X0.256326X0.468458X-0.468458X-0.256326X-0.256326X-0.468458X0.468458X0.256326X0*%
%ADD17R,1.500000X0.900000*%
%ADD18R,0.900000X1.500000*%
%ADD19C,0.600000*%
%ADD20R,3.900000X3.900000*%
%ADD21RoundRect,0.100000X0.162635X-0.021213X-0.021213X0.162635X-0.162635X0.021213X0.021213X-0.162635X0*%
%ADD22R,1.700000X1.700000*%
%ADD23C,1.700000*%
%ADD24RoundRect,0.100000X-0.100000X0.130000X-0.100000X-0.130000X0.100000X-0.130000X0.100000X0.130000X0*%
%ADD25RoundRect,0.250000X1.767767X2.828427X-2.828427X-1.767767X-1.767767X-2.828427X2.828427X1.767767X0*%
%ADD26RoundRect,0.250000X1.590990X2.298097X-2.298097X-1.590990X-1.590990X-2.298097X2.298097X1.590990X0*%
G04 APERTURE END LIST*
D10*
%TO.C,D1*%
X113500000Y-121665000D03*
X113500000Y-121025000D03*
%TD*%
%TO.C,C6*%
X117500000Y-121640000D03*
X117500000Y-121000000D03*
%TD*%
D11*
%TO.C,A1*%
X123000000Y-115118182D03*
%TD*%
D12*
%TO.C,C5*%
X164975000Y-133000000D03*
X164335000Y-133000000D03*
%TD*%
D11*
%TO.C,UP1*%
X181500000Y-113618182D03*
%TD*%
D13*
%TO.C,D3*%
X185500000Y-101000000D03*
X182671572Y-103828428D03*
%TD*%
D14*
%TO.C,R5*%
X162335000Y-130500000D03*
X162975000Y-130500000D03*
%TD*%
D15*
%TO.C,SW1*%
X111900000Y-125500000D03*
X119100000Y-125500000D03*
X111900000Y-128500000D03*
X119100000Y-128500000D03*
%TD*%
D10*
%TO.C,R3*%
X115500000Y-121640000D03*
X115500000Y-121000000D03*
%TD*%
D14*
%TO.C,C2*%
X162360000Y-133000000D03*
X163000000Y-133000000D03*
%TD*%
D11*
%TO.C,B1*%
X132000000Y-122500000D03*
%TD*%
D16*
%TO.C,U2*%
X173671751Y-104671751D03*
X173000000Y-104000000D03*
X172328249Y-103328249D03*
X170719581Y-104936917D03*
X172063083Y-106280419D03*
%TD*%
D13*
%TO.C,D4*%
X181000000Y-96500000D03*
X178171572Y-99328428D03*
%TD*%
%TO.C,D2*%
X176500000Y-92000000D03*
X173671572Y-94828428D03*
%TD*%
D15*
%TO.C,SW4*%
X111800000Y-133000000D03*
X119000000Y-133000000D03*
X111800000Y-136000000D03*
X119000000Y-136000000D03*
%TD*%
D11*
%TO.C,LEFT1*%
X172500000Y-122500000D03*
%TD*%
%TO.C,DOWN1*%
X181500000Y-131000000D03*
%TD*%
D17*
%TO.C,U4*%
X160500000Y-133010000D03*
X160500000Y-131740000D03*
X160500000Y-130470000D03*
X160500000Y-129200000D03*
X160500000Y-127930000D03*
X160500000Y-126660000D03*
X160500000Y-125390000D03*
X160500000Y-124120000D03*
X160500000Y-122850000D03*
X160500000Y-121580000D03*
X160500000Y-120310000D03*
X160500000Y-119040000D03*
X160500000Y-117770000D03*
X160500000Y-116500000D03*
D18*
X158735000Y-115250000D03*
X157465000Y-115250000D03*
X156195000Y-115250000D03*
X154925000Y-115250000D03*
X153655000Y-115250000D03*
X152385000Y-115250000D03*
X151115000Y-115250000D03*
X149845000Y-115250000D03*
X148575000Y-115250000D03*
X147305000Y-115250000D03*
X146035000Y-115250000D03*
X144765000Y-115250000D03*
D17*
X143000000Y-116500000D03*
X143000000Y-117770000D03*
X143000000Y-119040000D03*
X143000000Y-120310000D03*
X143000000Y-121580000D03*
X143000000Y-122850000D03*
X143000000Y-124120000D03*
X143000000Y-125390000D03*
X143000000Y-126660000D03*
X143000000Y-127930000D03*
X143000000Y-129200000D03*
X143000000Y-130470000D03*
X143000000Y-131740000D03*
X143000000Y-133010000D03*
D19*
X154650000Y-125990000D03*
X154650000Y-124590000D03*
X153950000Y-126690000D03*
X153950000Y-125290000D03*
X153950000Y-123890000D03*
X153250000Y-125990000D03*
D20*
X153250000Y-125290000D03*
D19*
X153250000Y-124590000D03*
X152550000Y-126690000D03*
X152550000Y-125290000D03*
X152550000Y-123890000D03*
X151850000Y-125990000D03*
X151850000Y-124590000D03*
%TD*%
D21*
%TO.C,C1*%
X175726274Y-102226274D03*
X175273726Y-101773726D03*
%TD*%
D12*
%TO.C,R4*%
X163140000Y-117500000D03*
X162500000Y-117500000D03*
%TD*%
D11*
%TO.C,RIGHT1*%
X190000000Y-121809091D03*
%TD*%
D12*
%TO.C,R6*%
X163165000Y-116500000D03*
X162525000Y-116500000D03*
%TD*%
D22*
%TO.C,J5*%
X112000000Y-85610000D03*
D23*
X112000000Y-88150000D03*
X112000000Y-90690000D03*
X112000000Y-93230000D03*
X112000000Y-95770000D03*
X112000000Y-98310000D03*
X112000000Y-100850000D03*
X112000000Y-103390000D03*
%TD*%
D24*
%TO.C,C7*%
X123000000Y-126680000D03*
X123000000Y-127320000D03*
%TD*%
D25*
%TO.C,J4*%
X187196700Y-85196700D03*
D26*
X189141243Y-87141243D03*
X190555457Y-88555457D03*
D25*
X192500000Y-90500000D03*
%TD*%
D24*
%TO.C,C8*%
X123000000Y-134180000D03*
X123000000Y-134820000D03*
%TD*%
M02*
