%TF.GenerationSoftware,KiCad,Pcbnew,9.0.5*%
%TF.CreationDate,2026-02-18T19:38:21-06:00*%
%TF.ProjectId,Buisness_Card_PCB,42756973-6e65-4737-935f-436172645f50,rev?*%
%TF.SameCoordinates,Original*%
%TF.FileFunction,Copper,L2,Bot*%
%TF.FilePolarity,Positive*%
%FSLAX46Y46*%
G04 Gerber Fmt 4.6, Leading zero omitted, Abs format (unit mm)*
G04 Created by KiCad (PCBNEW 9.0.5) date 2026-02-18 19:38:21*
%MOMM*%
%LPD*%
G01*
G04 APERTURE LIST*
%TA.AperFunction,HeatsinkPad*%
%ADD10C,0.600000*%
%TD*%
%TA.AperFunction,ComponentPad*%
%ADD11R,1.700000X1.700000*%
%TD*%
%TA.AperFunction,ComponentPad*%
%ADD12C,1.700000*%
%TD*%
%TA.AperFunction,ViaPad*%
%ADD13C,0.600000*%
%TD*%
%TA.AperFunction,Conductor*%
%ADD14C,0.200000*%
%TD*%
G04 APERTURE END LIST*
D10*
%TO.P,U4,41,GND*%
%TO.N,GND*%
X154650000Y-125990000D03*
X154650000Y-124590000D03*
X153950000Y-126690000D03*
X153950000Y-125290000D03*
X153950000Y-123890000D03*
X153250000Y-125990000D03*
X153250000Y-124590000D03*
X152550000Y-126690000D03*
X152550000Y-125290000D03*
X152550000Y-123890000D03*
X151850000Y-125990000D03*
X151850000Y-124590000D03*
%TD*%
D11*
%TO.P,J5,1,Pin_1*%
%TO.N,GND*%
X112000000Y-85610000D03*
D12*
%TO.P,J5,2,Pin_2*%
%TO.N,/3V3*%
X112000000Y-88150000D03*
%TO.P,J5,3,Pin_3*%
%TO.N,Net-(J5-Pin_3)*%
X112000000Y-90690000D03*
%TO.P,J5,4,Pin_4*%
%TO.N,Net-(J5-Pin_4)*%
X112000000Y-93230000D03*
%TO.P,J5,5,Pin_5*%
%TO.N,Net-(J5-Pin_5)*%
X112000000Y-95770000D03*
%TO.P,J5,6,Pin_6*%
%TO.N,Net-(J5-Pin_6)*%
X112000000Y-98310000D03*
%TO.P,J5,7,Pin_7*%
%TO.N,Net-(J5-Pin_7)*%
X112000000Y-100850000D03*
%TO.P,J5,8,Pin_8*%
%TO.N,/3V3*%
X112000000Y-103390000D03*
%TD*%
D13*
%TO.N,GND*%
X162500000Y-131500000D03*
X158500000Y-126500000D03*
X140500000Y-132500000D03*
X126000000Y-132500000D03*
%TO.N,/3V3*%
X170000000Y-109500000D03*
X167000000Y-114500000D03*
%TO.N,/USB_P*%
X167000000Y-112500000D03*
X170000000Y-111500000D03*
%TO.N,Net-(J5-Pin_3)*%
X141000000Y-104500000D03*
X131000000Y-94500000D03*
%TO.N,Net-(U4-IO3)*%
X141000000Y-111000000D03*
X154500000Y-111000000D03*
%TO.N,Net-(U4-IO4)*%
X167000000Y-122000000D03*
X162500000Y-126500000D03*
%TO.N,Net-(U4-IO7)*%
X162500000Y-124000000D03*
X167000000Y-119500000D03*
%TO.N,/EN*%
X126000000Y-129500000D03*
X162500000Y-129000000D03*
%TD*%
D14*
%TO.N,GND*%
X163028000Y-130972000D02*
X163028000Y-128781295D01*
X162500000Y-131500000D02*
X163028000Y-130972000D01*
X126000000Y-132500000D02*
X140500000Y-132500000D01*
X163028000Y-128781295D02*
X160746705Y-126500000D01*
X160746705Y-126500000D02*
X158500000Y-126500000D01*
%TO.N,/3V3*%
X170000000Y-109500000D02*
X170528000Y-110028000D01*
X170528000Y-110028000D02*
X170528000Y-111718705D01*
X167746705Y-114500000D02*
X167000000Y-114500000D01*
X170528000Y-111718705D02*
X167746705Y-114500000D01*
%TO.N,/USB_P*%
X170000000Y-111500000D02*
X169000000Y-112500000D01*
X169000000Y-112500000D02*
X167000000Y-112500000D01*
%TO.N,Net-(J5-Pin_3)*%
X141000000Y-104500000D02*
X131000000Y-94500000D01*
%TO.N,Net-(U4-IO3)*%
X141000000Y-111000000D02*
X154500000Y-111000000D01*
%TO.N,Net-(U4-IO4)*%
X167000000Y-122000000D02*
X162500000Y-126500000D01*
%TO.N,Net-(U4-IO7)*%
X167000000Y-119500000D02*
X162500000Y-124000000D01*
%TO.N,/EN*%
X126000000Y-129500000D02*
X162000000Y-129500000D01*
X162000000Y-129500000D02*
X162500000Y-129000000D01*
%TD*%
%TA.AperFunction,Conductor*%
%TO.N,GND*%
G36*
X169313527Y-81020185D02*
G01*
X169332919Y-81035586D01*
X169439505Y-81139195D01*
X178885836Y-90321698D01*
X178889721Y-90325474D01*
X178890972Y-90326708D01*
X178934432Y-90370169D01*
X178934680Y-90370359D01*
X178937951Y-90372868D01*
X178937977Y-90372888D01*
X178939347Y-90373939D01*
X178939874Y-90374286D01*
X178940137Y-90374482D01*
X178993801Y-90404461D01*
X178995326Y-90405327D01*
X179048558Y-90436060D01*
X179048559Y-90436060D01*
X179048562Y-90436062D01*
X179048564Y-90436062D01*
X179048852Y-90436182D01*
X179048871Y-90436190D01*
X179052599Y-90437734D01*
X179052699Y-90437775D01*
X179054286Y-90438432D01*
X179054877Y-90438628D01*
X179055183Y-90438749D01*
X179055186Y-90438751D01*
X179114929Y-90453855D01*
X179116358Y-90454227D01*
X179175856Y-90470170D01*
X179175860Y-90470170D01*
X179176176Y-90470212D01*
X179176177Y-90470212D01*
X179180280Y-90470751D01*
X179180329Y-90470758D01*
X179181997Y-90470977D01*
X179182614Y-90471014D01*
X179182946Y-90471052D01*
X179182950Y-90471053D01*
X179245305Y-90470170D01*
X179307640Y-90470170D01*
X179311118Y-90469238D01*
X179314721Y-90469187D01*
X179374700Y-90452201D01*
X179434934Y-90436062D01*
X179438050Y-90434261D01*
X179441499Y-90433285D01*
X179441501Y-90433284D01*
X179441519Y-90433279D01*
X179494329Y-90401782D01*
X179495629Y-90401019D01*
X179549062Y-90370170D01*
X179549069Y-90370162D01*
X179549311Y-90369978D01*
X179549314Y-90369976D01*
X179552540Y-90367500D01*
X179552540Y-90367499D01*
X179552562Y-90367483D01*
X179553991Y-90366386D01*
X179554470Y-90365960D01*
X179554689Y-90365784D01*
X179554703Y-90365777D01*
X179597619Y-90321626D01*
X179598711Y-90320519D01*
X188746553Y-81172680D01*
X188807876Y-81139195D01*
X188834234Y-81136361D01*
X189448253Y-81136361D01*
X189515292Y-81156046D01*
X189535934Y-81172680D01*
X196524020Y-88160765D01*
X196557505Y-88222088D01*
X196560339Y-88248446D01*
X196560339Y-88862466D01*
X196540654Y-88929505D01*
X196524020Y-88950147D01*
X187425145Y-98049021D01*
X187417473Y-98056692D01*
X187414757Y-98058307D01*
X187370970Y-98103195D01*
X187370365Y-98103801D01*
X187326330Y-98147837D01*
X187325069Y-98149522D01*
X187325070Y-98149523D01*
X187322739Y-98152639D01*
X187292413Y-98206706D01*
X187291654Y-98208042D01*
X187260634Y-98261771D01*
X187259136Y-98265389D01*
X187258338Y-98267314D01*
X187242954Y-98327720D01*
X187242955Y-98327721D01*
X187242761Y-98328482D01*
X187226530Y-98389060D01*
X187226530Y-98392220D01*
X187225749Y-98395287D01*
X187226520Y-98457278D01*
X187226530Y-98458820D01*
X187226530Y-98520842D01*
X187227049Y-98524791D01*
X187227054Y-98524822D01*
X187227315Y-98526810D01*
X187244139Y-98586610D01*
X187244390Y-98587499D01*
X187260638Y-98648138D01*
X187262221Y-98650880D01*
X187263078Y-98653925D01*
X187263079Y-98653927D01*
X187294721Y-98707193D01*
X187295499Y-98708521D01*
X187326530Y-98762266D01*
X187328886Y-98765337D01*
X187328898Y-98765352D01*
X187330187Y-98767032D01*
X187374771Y-98810520D01*
X187375869Y-98811605D01*
X187420148Y-98855885D01*
X187430226Y-98864612D01*
X196462084Y-107674475D01*
X196496329Y-107735375D01*
X196499500Y-107763239D01*
X196499500Y-140375500D01*
X196479815Y-140442539D01*
X196427011Y-140488294D01*
X196375500Y-140499500D01*
X175874000Y-140499500D01*
X175806961Y-140479815D01*
X175761206Y-140427011D01*
X175750000Y-140375500D01*
X175750000Y-134500000D01*
X127750000Y-134500000D01*
X127750000Y-140375500D01*
X127730315Y-140442539D01*
X127677511Y-140488294D01*
X127626000Y-140499500D01*
X107624500Y-140499500D01*
X107557461Y-140479815D01*
X107511706Y-140427011D01*
X107500500Y-140375500D01*
X107500500Y-129421153D01*
X125199500Y-129421153D01*
X125199500Y-129578846D01*
X125230261Y-129733489D01*
X125230264Y-129733501D01*
X125290602Y-129879172D01*
X125290609Y-129879185D01*
X125378210Y-130010288D01*
X125378213Y-130010292D01*
X125489707Y-130121786D01*
X125489711Y-130121789D01*
X125620814Y-130209390D01*
X125620827Y-130209397D01*
X125766498Y-130269735D01*
X125766503Y-130269737D01*
X125921153Y-130300499D01*
X125921156Y-130300500D01*
X125921158Y-130300500D01*
X126078844Y-130300500D01*
X126078845Y-130300499D01*
X126233497Y-130269737D01*
X126379179Y-130209394D01*
X126510289Y-130121789D01*
X126621789Y-130010289D01*
X126709394Y-129879179D01*
X126740515Y-129804045D01*
X126784354Y-129749644D01*
X126850648Y-129727579D01*
X126855075Y-129727500D01*
X162045249Y-129727500D01*
X162045253Y-129727500D01*
X162057440Y-129722451D01*
X162126905Y-129714982D01*
X162152340Y-129722449D01*
X162266503Y-129769737D01*
X162421153Y-129800499D01*
X162421156Y-129800500D01*
X162421158Y-129800500D01*
X162578844Y-129800500D01*
X162578845Y-129800499D01*
X162733497Y-129769737D01*
X162879179Y-129709394D01*
X163010289Y-129621789D01*
X163121789Y-129510289D01*
X163209394Y-129379179D01*
X163269737Y-129233497D01*
X163300500Y-129078842D01*
X163300500Y-128921158D01*
X163300500Y-128921155D01*
X163300499Y-128921153D01*
X163274531Y-128790606D01*
X163269737Y-128766503D01*
X163269735Y-128766498D01*
X163209397Y-128620827D01*
X163209390Y-128620814D01*
X163121789Y-128489711D01*
X163121786Y-128489707D01*
X163010292Y-128378213D01*
X163010288Y-128378210D01*
X162879185Y-128290609D01*
X162879172Y-128290602D01*
X162733501Y-128230264D01*
X162733489Y-128230261D01*
X162578845Y-128199500D01*
X162578842Y-128199500D01*
X162421158Y-128199500D01*
X162421155Y-128199500D01*
X162266510Y-128230261D01*
X162266498Y-128230264D01*
X162120827Y-128290602D01*
X162120814Y-128290609D01*
X161989711Y-128378210D01*
X161989707Y-128378213D01*
X161878213Y-128489707D01*
X161878210Y-128489711D01*
X161790609Y-128620814D01*
X161790602Y-128620827D01*
X161730264Y-128766498D01*
X161730261Y-128766510D01*
X161699500Y-128921153D01*
X161699500Y-129078846D01*
X161708543Y-129124309D01*
X161702316Y-129193901D01*
X161659452Y-129249078D01*
X161593562Y-129272322D01*
X161586926Y-129272500D01*
X126855075Y-129272500D01*
X126788036Y-129252815D01*
X126742281Y-129200011D01*
X126740534Y-129196000D01*
X126709394Y-129120821D01*
X126709392Y-129120818D01*
X126709390Y-129120814D01*
X126621789Y-128989711D01*
X126621786Y-128989707D01*
X126510292Y-128878213D01*
X126510288Y-128878210D01*
X126379185Y-128790609D01*
X126379172Y-128790602D01*
X126233501Y-128730264D01*
X126233489Y-128730261D01*
X126078845Y-128699500D01*
X126078842Y-128699500D01*
X125921158Y-128699500D01*
X125921155Y-128699500D01*
X125766510Y-128730261D01*
X125766498Y-128730264D01*
X125620827Y-128790602D01*
X125620814Y-128790609D01*
X125489711Y-128878210D01*
X125489707Y-128878213D01*
X125378213Y-128989707D01*
X125378210Y-128989711D01*
X125290609Y-129120814D01*
X125290602Y-129120827D01*
X125230264Y-129266498D01*
X125230261Y-129266510D01*
X125199500Y-129421153D01*
X107500500Y-129421153D01*
X107500500Y-126421153D01*
X161699500Y-126421153D01*
X161699500Y-126578846D01*
X161730261Y-126733489D01*
X161730264Y-126733501D01*
X161790602Y-126879172D01*
X161790609Y-126879185D01*
X161878210Y-127010288D01*
X161878213Y-127010292D01*
X161989707Y-127121786D01*
X161989711Y-127121789D01*
X162120814Y-127209390D01*
X162120827Y-127209397D01*
X162266498Y-127269735D01*
X162266503Y-127269737D01*
X162421153Y-127300499D01*
X162421156Y-127300500D01*
X162421158Y-127300500D01*
X162578844Y-127300500D01*
X162578845Y-127300499D01*
X162733497Y-127269737D01*
X162879179Y-127209394D01*
X163010289Y-127121789D01*
X163121789Y-127010289D01*
X163209394Y-126879179D01*
X163269737Y-126733497D01*
X163300500Y-126578842D01*
X163300500Y-126421158D01*
X163300500Y-126421155D01*
X163300499Y-126421153D01*
X163269738Y-126266510D01*
X163269737Y-126266503D01*
X163238614Y-126191365D01*
X163231146Y-126121901D01*
X163262420Y-126059422D01*
X163265467Y-126056264D01*
X166556238Y-122765493D01*
X166617559Y-122732010D01*
X166687251Y-122736994D01*
X166691296Y-122738585D01*
X166766503Y-122769737D01*
X166921153Y-122800499D01*
X166921156Y-122800500D01*
X166921158Y-122800500D01*
X167078844Y-122800500D01*
X167078845Y-122800499D01*
X167233497Y-122769737D01*
X167379179Y-122709394D01*
X167510289Y-122621789D01*
X167621789Y-122510289D01*
X167709394Y-122379179D01*
X167769737Y-122233497D01*
X167800500Y-122078842D01*
X167800500Y-121921158D01*
X167800500Y-121921155D01*
X167800499Y-121921153D01*
X167769738Y-121766510D01*
X167769737Y-121766503D01*
X167769735Y-121766498D01*
X167709397Y-121620827D01*
X167709390Y-121620814D01*
X167621789Y-121489711D01*
X167621786Y-121489707D01*
X167510292Y-121378213D01*
X167510288Y-121378210D01*
X167379185Y-121290609D01*
X167379172Y-121290602D01*
X167233501Y-121230264D01*
X167233489Y-121230261D01*
X167078845Y-121199500D01*
X167078842Y-121199500D01*
X166921158Y-121199500D01*
X166921155Y-121199500D01*
X166766510Y-121230261D01*
X166766498Y-121230264D01*
X166620827Y-121290602D01*
X166620814Y-121290609D01*
X166489711Y-121378210D01*
X166489707Y-121378213D01*
X166378213Y-121489707D01*
X166378210Y-121489711D01*
X166290609Y-121620814D01*
X166290602Y-121620827D01*
X166230264Y-121766498D01*
X166230261Y-121766510D01*
X166199500Y-121921153D01*
X166199500Y-122078846D01*
X166230261Y-122233489D01*
X166230264Y-122233501D01*
X166261383Y-122308629D01*
X166268852Y-122378098D01*
X166237576Y-122440577D01*
X166234503Y-122443762D01*
X162943762Y-125734503D01*
X162882439Y-125767988D01*
X162812747Y-125763004D01*
X162808629Y-125761383D01*
X162733501Y-125730264D01*
X162733489Y-125730261D01*
X162578845Y-125699500D01*
X162578842Y-125699500D01*
X162421158Y-125699500D01*
X162421155Y-125699500D01*
X162266510Y-125730261D01*
X162266498Y-125730264D01*
X162120827Y-125790602D01*
X162120814Y-125790609D01*
X161989711Y-125878210D01*
X161989707Y-125878213D01*
X161878213Y-125989707D01*
X161878210Y-125989711D01*
X161790609Y-126120814D01*
X161790602Y-126120827D01*
X161730264Y-126266498D01*
X161730261Y-126266510D01*
X161699500Y-126421153D01*
X107500500Y-126421153D01*
X107500500Y-123921153D01*
X161699500Y-123921153D01*
X161699500Y-124078846D01*
X161730261Y-124233489D01*
X161730264Y-124233501D01*
X161790602Y-124379172D01*
X161790609Y-124379185D01*
X161878210Y-124510288D01*
X161878213Y-124510292D01*
X161989707Y-124621786D01*
X161989711Y-124621789D01*
X162120814Y-124709390D01*
X162120827Y-124709397D01*
X162266498Y-124769735D01*
X162266503Y-124769737D01*
X162421153Y-124800499D01*
X162421156Y-124800500D01*
X162421158Y-124800500D01*
X162578844Y-124800500D01*
X162578845Y-124800499D01*
X162733497Y-124769737D01*
X162879179Y-124709394D01*
X163010289Y-124621789D01*
X163121789Y-124510289D01*
X163209394Y-124379179D01*
X163269737Y-124233497D01*
X163300500Y-124078842D01*
X163300500Y-123921158D01*
X163300500Y-123921155D01*
X163300499Y-123921153D01*
X163269738Y-123766510D01*
X163269737Y-123766503D01*
X163238614Y-123691365D01*
X163231146Y-123621901D01*
X163262420Y-123559422D01*
X163265467Y-123556264D01*
X166556238Y-120265493D01*
X166617559Y-120232010D01*
X166687251Y-120236994D01*
X166691296Y-120238585D01*
X166766503Y-120269737D01*
X166921153Y-120300499D01*
X166921156Y-120300500D01*
X166921158Y-120300500D01*
X167078844Y-120300500D01*
X167078845Y-120300499D01*
X167233497Y-120269737D01*
X167379179Y-120209394D01*
X167510289Y-120121789D01*
X167621789Y-120010289D01*
X167709394Y-119879179D01*
X167769737Y-119733497D01*
X167800500Y-119578842D01*
X167800500Y-119421158D01*
X167800500Y-119421155D01*
X167800499Y-119421153D01*
X167769738Y-119266510D01*
X167769737Y-119266503D01*
X167769735Y-119266498D01*
X167709397Y-119120827D01*
X167709390Y-119120814D01*
X167621789Y-118989711D01*
X167621786Y-118989707D01*
X167510292Y-118878213D01*
X167510288Y-118878210D01*
X167379185Y-118790609D01*
X167379172Y-118790602D01*
X167233501Y-118730264D01*
X167233489Y-118730261D01*
X167078845Y-118699500D01*
X167078842Y-118699500D01*
X166921158Y-118699500D01*
X166921155Y-118699500D01*
X166766510Y-118730261D01*
X166766498Y-118730264D01*
X166620827Y-118790602D01*
X166620814Y-118790609D01*
X166489711Y-118878210D01*
X166489707Y-118878213D01*
X166378213Y-118989707D01*
X166378210Y-118989711D01*
X166290609Y-119120814D01*
X166290602Y-119120827D01*
X166230264Y-119266498D01*
X166230261Y-119266510D01*
X166199500Y-119421153D01*
X166199500Y-119578846D01*
X166230261Y-119733489D01*
X166230264Y-119733501D01*
X166261383Y-119808629D01*
X166268852Y-119878098D01*
X166237576Y-119940577D01*
X166234503Y-119943762D01*
X162943762Y-123234503D01*
X162882439Y-123267988D01*
X162812747Y-123263004D01*
X162808629Y-123261383D01*
X162733501Y-123230264D01*
X162733489Y-123230261D01*
X162578845Y-123199500D01*
X162578842Y-123199500D01*
X162421158Y-123199500D01*
X162421155Y-123199500D01*
X162266510Y-123230261D01*
X162266498Y-123230264D01*
X162120827Y-123290602D01*
X162120814Y-123290609D01*
X161989711Y-123378210D01*
X161989707Y-123378213D01*
X161878213Y-123489707D01*
X161878210Y-123489711D01*
X161790609Y-123620814D01*
X161790602Y-123620827D01*
X161730264Y-123766498D01*
X161730261Y-123766510D01*
X161699500Y-123921153D01*
X107500500Y-123921153D01*
X107500500Y-112421153D01*
X166199500Y-112421153D01*
X166199500Y-112578846D01*
X166230261Y-112733489D01*
X166230264Y-112733501D01*
X166290602Y-112879172D01*
X166290609Y-112879185D01*
X166378210Y-113010288D01*
X166378213Y-113010292D01*
X166489707Y-113121786D01*
X166489711Y-113121789D01*
X166620814Y-113209390D01*
X166620827Y-113209397D01*
X166766498Y-113269735D01*
X166766503Y-113269737D01*
X166921153Y-113300499D01*
X166921156Y-113300500D01*
X166921158Y-113300500D01*
X167078844Y-113300500D01*
X167078845Y-113300499D01*
X167233497Y-113269737D01*
X167379179Y-113209394D01*
X167510289Y-113121789D01*
X167621789Y-113010289D01*
X167709394Y-112879179D01*
X167740515Y-112804045D01*
X167784354Y-112749644D01*
X167850648Y-112727579D01*
X167855075Y-112727500D01*
X168898109Y-112727500D01*
X168965148Y-112747185D01*
X169010903Y-112799989D01*
X169020847Y-112869147D01*
X168991822Y-112932703D01*
X168985790Y-112939181D01*
X167854187Y-114070783D01*
X167792864Y-114104268D01*
X167723172Y-114099284D01*
X167667239Y-114057412D01*
X167663418Y-114052014D01*
X167621789Y-113989711D01*
X167621787Y-113989708D01*
X167510292Y-113878213D01*
X167510288Y-113878210D01*
X167379185Y-113790609D01*
X167379172Y-113790602D01*
X167233501Y-113730264D01*
X167233489Y-113730261D01*
X167078845Y-113699500D01*
X167078842Y-113699500D01*
X166921158Y-113699500D01*
X166921155Y-113699500D01*
X166766510Y-113730261D01*
X166766498Y-113730264D01*
X166620827Y-113790602D01*
X166620814Y-113790609D01*
X166489711Y-113878210D01*
X166489707Y-113878213D01*
X166378213Y-113989707D01*
X166378210Y-113989711D01*
X166290609Y-114120814D01*
X166290602Y-114120827D01*
X166230264Y-114266498D01*
X166230261Y-114266510D01*
X166199500Y-114421153D01*
X166199500Y-114578846D01*
X166230261Y-114733489D01*
X166230264Y-114733501D01*
X166290602Y-114879172D01*
X166290609Y-114879185D01*
X166378210Y-115010288D01*
X166378213Y-115010292D01*
X166489707Y-115121786D01*
X166489711Y-115121789D01*
X166620814Y-115209390D01*
X166620827Y-115209397D01*
X166766498Y-115269735D01*
X166766503Y-115269737D01*
X166921153Y-115300499D01*
X166921156Y-115300500D01*
X166921158Y-115300500D01*
X167078844Y-115300500D01*
X167078845Y-115300499D01*
X167233497Y-115269737D01*
X167379179Y-115209394D01*
X167510289Y-115121789D01*
X167621789Y-115010289D01*
X167709394Y-114879179D01*
X167709395Y-114879176D01*
X167709397Y-114879173D01*
X167748478Y-114784821D01*
X167792318Y-114730417D01*
X167815579Y-114717715D01*
X167875573Y-114692865D01*
X170327366Y-112241070D01*
X170367595Y-112214191D01*
X170379179Y-112209394D01*
X170510289Y-112121789D01*
X170621789Y-112010289D01*
X170709394Y-111879179D01*
X170769737Y-111733497D01*
X170800500Y-111578842D01*
X170800500Y-111421158D01*
X170800500Y-111421155D01*
X170800499Y-111421153D01*
X170769738Y-111266505D01*
X170764939Y-111254920D01*
X170755500Y-111207466D01*
X170755500Y-109982748D01*
X170755500Y-109982747D01*
X170730651Y-109922756D01*
X170723183Y-109853291D01*
X170730647Y-109827867D01*
X170769737Y-109733497D01*
X170800500Y-109578842D01*
X170800500Y-109421158D01*
X170800500Y-109421155D01*
X170800499Y-109421153D01*
X170769738Y-109266510D01*
X170769737Y-109266503D01*
X170769735Y-109266498D01*
X170709397Y-109120827D01*
X170709390Y-109120814D01*
X170621789Y-108989711D01*
X170621786Y-108989707D01*
X170510292Y-108878213D01*
X170510288Y-108878210D01*
X170379185Y-108790609D01*
X170379172Y-108790602D01*
X170233501Y-108730264D01*
X170233489Y-108730261D01*
X170078845Y-108699500D01*
X170078842Y-108699500D01*
X169921158Y-108699500D01*
X169921155Y-108699500D01*
X169766510Y-108730261D01*
X169766498Y-108730264D01*
X169620827Y-108790602D01*
X169620814Y-108790609D01*
X169489711Y-108878210D01*
X169489707Y-108878213D01*
X169378213Y-108989707D01*
X169378210Y-108989711D01*
X169290609Y-109120814D01*
X169290602Y-109120827D01*
X169230264Y-109266498D01*
X169230261Y-109266510D01*
X169199500Y-109421153D01*
X169199500Y-109578846D01*
X169230261Y-109733489D01*
X169230264Y-109733501D01*
X169290602Y-109879172D01*
X169290609Y-109879185D01*
X169378210Y-110010288D01*
X169378213Y-110010292D01*
X169489707Y-110121786D01*
X169489711Y-110121789D01*
X169620814Y-110209390D01*
X169620827Y-110209397D01*
X169699498Y-110241983D01*
X169766503Y-110269737D01*
X169921153Y-110300499D01*
X169921156Y-110300500D01*
X169921158Y-110300500D01*
X170078844Y-110300500D01*
X170078845Y-110300499D01*
X170097658Y-110296757D01*
X170152309Y-110285887D01*
X170173292Y-110287764D01*
X170194147Y-110284766D01*
X170207394Y-110290816D01*
X170221900Y-110292114D01*
X170238537Y-110305038D01*
X170257703Y-110313791D01*
X170265577Y-110326043D01*
X170277077Y-110334977D01*
X170284085Y-110354843D01*
X170295477Y-110372569D01*
X170299011Y-110397152D01*
X170300322Y-110400867D01*
X170300500Y-110407504D01*
X170300500Y-110592495D01*
X170280815Y-110659534D01*
X170228011Y-110705289D01*
X170158853Y-110715233D01*
X170152310Y-110714113D01*
X170078842Y-110699500D01*
X169921158Y-110699500D01*
X169921155Y-110699500D01*
X169766510Y-110730261D01*
X169766498Y-110730264D01*
X169620827Y-110790602D01*
X169620814Y-110790609D01*
X169489711Y-110878210D01*
X169489707Y-110878213D01*
X169378213Y-110989707D01*
X169378210Y-110989711D01*
X169290609Y-111120814D01*
X169290602Y-111120827D01*
X169230264Y-111266498D01*
X169230261Y-111266510D01*
X169199500Y-111421153D01*
X169199500Y-111578846D01*
X169230261Y-111733489D01*
X169230264Y-111733501D01*
X169261383Y-111808629D01*
X169268852Y-111878098D01*
X169237576Y-111940577D01*
X169234504Y-111943762D01*
X168942084Y-112236182D01*
X168880764Y-112269666D01*
X168854405Y-112272500D01*
X167855075Y-112272500D01*
X167788036Y-112252815D01*
X167742281Y-112200011D01*
X167740534Y-112196000D01*
X167709394Y-112120821D01*
X167709392Y-112120818D01*
X167709390Y-112120814D01*
X167621789Y-111989711D01*
X167621786Y-111989707D01*
X167510292Y-111878213D01*
X167510288Y-111878210D01*
X167379185Y-111790609D01*
X167379172Y-111790602D01*
X167233501Y-111730264D01*
X167233489Y-111730261D01*
X167078845Y-111699500D01*
X167078842Y-111699500D01*
X166921158Y-111699500D01*
X166921155Y-111699500D01*
X166766510Y-111730261D01*
X166766498Y-111730264D01*
X166620827Y-111790602D01*
X166620814Y-111790609D01*
X166489711Y-111878210D01*
X166489707Y-111878213D01*
X166378213Y-111989707D01*
X166378210Y-111989711D01*
X166290609Y-112120814D01*
X166290602Y-112120827D01*
X166230264Y-112266498D01*
X166230261Y-112266510D01*
X166199500Y-112421153D01*
X107500500Y-112421153D01*
X107500500Y-110921153D01*
X140199500Y-110921153D01*
X140199500Y-111078846D01*
X140230261Y-111233489D01*
X140230264Y-111233501D01*
X140290602Y-111379172D01*
X140290609Y-111379185D01*
X140378210Y-111510288D01*
X140378213Y-111510292D01*
X140489707Y-111621786D01*
X140489711Y-111621789D01*
X140620814Y-111709390D01*
X140620827Y-111709397D01*
X140766498Y-111769735D01*
X140766503Y-111769737D01*
X140921153Y-111800499D01*
X140921156Y-111800500D01*
X140921158Y-111800500D01*
X141078844Y-111800500D01*
X141078845Y-111800499D01*
X141233497Y-111769737D01*
X141379179Y-111709394D01*
X141510289Y-111621789D01*
X141621789Y-111510289D01*
X141709394Y-111379179D01*
X141740515Y-111304045D01*
X141784354Y-111249644D01*
X141850648Y-111227579D01*
X141855075Y-111227500D01*
X153644925Y-111227500D01*
X153711964Y-111247185D01*
X153757719Y-111299989D01*
X153759465Y-111303999D01*
X153790603Y-111379172D01*
X153790607Y-111379181D01*
X153790609Y-111379185D01*
X153878210Y-111510288D01*
X153878213Y-111510292D01*
X153989707Y-111621786D01*
X153989711Y-111621789D01*
X154120814Y-111709390D01*
X154120827Y-111709397D01*
X154266498Y-111769735D01*
X154266503Y-111769737D01*
X154421153Y-111800499D01*
X154421156Y-111800500D01*
X154421158Y-111800500D01*
X154578844Y-111800500D01*
X154578845Y-111800499D01*
X154733497Y-111769737D01*
X154879179Y-111709394D01*
X155010289Y-111621789D01*
X155121789Y-111510289D01*
X155209394Y-111379179D01*
X155269737Y-111233497D01*
X155300500Y-111078842D01*
X155300500Y-110921158D01*
X155300500Y-110921155D01*
X155300499Y-110921153D01*
X155274531Y-110790606D01*
X155269737Y-110766503D01*
X155263049Y-110750356D01*
X155209397Y-110620827D01*
X155209390Y-110620814D01*
X155121789Y-110489711D01*
X155121786Y-110489707D01*
X155010292Y-110378213D01*
X155010288Y-110378210D01*
X154879185Y-110290609D01*
X154879172Y-110290602D01*
X154733501Y-110230264D01*
X154733489Y-110230261D01*
X154578845Y-110199500D01*
X154578842Y-110199500D01*
X154421158Y-110199500D01*
X154421155Y-110199500D01*
X154266510Y-110230261D01*
X154266498Y-110230264D01*
X154120827Y-110290602D01*
X154120814Y-110290609D01*
X153989711Y-110378210D01*
X153989707Y-110378213D01*
X153878213Y-110489707D01*
X153878210Y-110489711D01*
X153790609Y-110620814D01*
X153790607Y-110620818D01*
X153784728Y-110635010D01*
X153759484Y-110695954D01*
X153715646Y-110750356D01*
X153649352Y-110772421D01*
X153644925Y-110772500D01*
X141855075Y-110772500D01*
X141788036Y-110752815D01*
X141742281Y-110700011D01*
X141740534Y-110696000D01*
X141709394Y-110620821D01*
X141709392Y-110620818D01*
X141709390Y-110620814D01*
X141621789Y-110489711D01*
X141621786Y-110489707D01*
X141510292Y-110378213D01*
X141510288Y-110378210D01*
X141379185Y-110290609D01*
X141379172Y-110290602D01*
X141233501Y-110230264D01*
X141233489Y-110230261D01*
X141078845Y-110199500D01*
X141078842Y-110199500D01*
X140921158Y-110199500D01*
X140921155Y-110199500D01*
X140766510Y-110230261D01*
X140766498Y-110230264D01*
X140620827Y-110290602D01*
X140620814Y-110290609D01*
X140489711Y-110378210D01*
X140489707Y-110378213D01*
X140378213Y-110489707D01*
X140378210Y-110489711D01*
X140290609Y-110620814D01*
X140290602Y-110620827D01*
X140230264Y-110766498D01*
X140230261Y-110766510D01*
X140199500Y-110921153D01*
X107500500Y-110921153D01*
X107500500Y-88043713D01*
X110649500Y-88043713D01*
X110649500Y-88256286D01*
X110682753Y-88466239D01*
X110748444Y-88668414D01*
X110844951Y-88857820D01*
X110969890Y-89029786D01*
X111120213Y-89180109D01*
X111292182Y-89305050D01*
X111300946Y-89309516D01*
X111351742Y-89357491D01*
X111368536Y-89425312D01*
X111345998Y-89491447D01*
X111300946Y-89530484D01*
X111292182Y-89534949D01*
X111120213Y-89659890D01*
X110969890Y-89810213D01*
X110844951Y-89982179D01*
X110748444Y-90171585D01*
X110682753Y-90373760D01*
X110649500Y-90583713D01*
X110649500Y-90796286D01*
X110682753Y-91006239D01*
X110748444Y-91208414D01*
X110844951Y-91397820D01*
X110969890Y-91569786D01*
X111120213Y-91720109D01*
X111292182Y-91845050D01*
X111300946Y-91849516D01*
X111351742Y-91897491D01*
X111368536Y-91965312D01*
X111345998Y-92031447D01*
X111300946Y-92070484D01*
X111292182Y-92074949D01*
X111120213Y-92199890D01*
X110969890Y-92350213D01*
X110844951Y-92522179D01*
X110748444Y-92711585D01*
X110682753Y-92913760D01*
X110649500Y-93123713D01*
X110649500Y-93336287D01*
X110682754Y-93546243D01*
X110742546Y-93730264D01*
X110748444Y-93748414D01*
X110844951Y-93937820D01*
X110969890Y-94109786D01*
X111120213Y-94260109D01*
X111292182Y-94385050D01*
X111300946Y-94389516D01*
X111351742Y-94437491D01*
X111368536Y-94505312D01*
X111345998Y-94571447D01*
X111300946Y-94610484D01*
X111292182Y-94614949D01*
X111120213Y-94739890D01*
X110969890Y-94890213D01*
X110844951Y-95062179D01*
X110748444Y-95251585D01*
X110682753Y-95453760D01*
X110649500Y-95663713D01*
X110649500Y-95876286D01*
X110682753Y-96086239D01*
X110748444Y-96288414D01*
X110844951Y-96477820D01*
X110969890Y-96649786D01*
X111120213Y-96800109D01*
X111292182Y-96925050D01*
X111300946Y-96929516D01*
X111351742Y-96977491D01*
X111368536Y-97045312D01*
X111345998Y-97111447D01*
X111300946Y-97150484D01*
X111292182Y-97154949D01*
X111120213Y-97279890D01*
X110969890Y-97430213D01*
X110844951Y-97602179D01*
X110748444Y-97791585D01*
X110682753Y-97993760D01*
X110649500Y-98203713D01*
X110649500Y-98416286D01*
X110676617Y-98587499D01*
X110682754Y-98626243D01*
X110742797Y-98811037D01*
X110748444Y-98828414D01*
X110844951Y-99017820D01*
X110969890Y-99189786D01*
X111120213Y-99340109D01*
X111292182Y-99465050D01*
X111300946Y-99469516D01*
X111351742Y-99517491D01*
X111368536Y-99585312D01*
X111345998Y-99651447D01*
X111300946Y-99690484D01*
X111292182Y-99694949D01*
X111120213Y-99819890D01*
X110969890Y-99970213D01*
X110844951Y-100142179D01*
X110748444Y-100331585D01*
X110682753Y-100533760D01*
X110649500Y-100743713D01*
X110649500Y-100956286D01*
X110682753Y-101166239D01*
X110748444Y-101368414D01*
X110844951Y-101557820D01*
X110969890Y-101729786D01*
X111120213Y-101880109D01*
X111292182Y-102005050D01*
X111300946Y-102009516D01*
X111351742Y-102057491D01*
X111368536Y-102125312D01*
X111345998Y-102191447D01*
X111300946Y-102230484D01*
X111292182Y-102234949D01*
X111120213Y-102359890D01*
X110969890Y-102510213D01*
X110844951Y-102682179D01*
X110748444Y-102871585D01*
X110682753Y-103073760D01*
X110649500Y-103283713D01*
X110649500Y-103496287D01*
X110682754Y-103706243D01*
X110710166Y-103790609D01*
X110748444Y-103908414D01*
X110844951Y-104097820D01*
X110969890Y-104269786D01*
X111120213Y-104420109D01*
X111292179Y-104545048D01*
X111292181Y-104545049D01*
X111292184Y-104545051D01*
X111481588Y-104641557D01*
X111683757Y-104707246D01*
X111893713Y-104740500D01*
X111893714Y-104740500D01*
X112106286Y-104740500D01*
X112106287Y-104740500D01*
X112316243Y-104707246D01*
X112518412Y-104641557D01*
X112707816Y-104545051D01*
X112729789Y-104529086D01*
X112879786Y-104420109D01*
X112879788Y-104420106D01*
X112879792Y-104420104D01*
X113030104Y-104269792D01*
X113030106Y-104269788D01*
X113030109Y-104269786D01*
X113155048Y-104097820D01*
X113155047Y-104097820D01*
X113155051Y-104097816D01*
X113251557Y-103908412D01*
X113317246Y-103706243D01*
X113350500Y-103496287D01*
X113350500Y-103283713D01*
X113317246Y-103073757D01*
X113251557Y-102871588D01*
X113155051Y-102682184D01*
X113155049Y-102682181D01*
X113155048Y-102682179D01*
X113030109Y-102510213D01*
X112879786Y-102359890D01*
X112707820Y-102234951D01*
X112707115Y-102234591D01*
X112699054Y-102230485D01*
X112648259Y-102182512D01*
X112631463Y-102114692D01*
X112653999Y-102048556D01*
X112699054Y-102009515D01*
X112707816Y-102005051D01*
X112729789Y-101989086D01*
X112879786Y-101880109D01*
X112879788Y-101880106D01*
X112879792Y-101880104D01*
X113030104Y-101729792D01*
X113030106Y-101729788D01*
X113030109Y-101729786D01*
X113155048Y-101557820D01*
X113155047Y-101557820D01*
X113155051Y-101557816D01*
X113251557Y-101368412D01*
X113317246Y-101166243D01*
X113350500Y-100956287D01*
X113350500Y-100743713D01*
X113317246Y-100533757D01*
X113251557Y-100331588D01*
X113155051Y-100142184D01*
X113155049Y-100142181D01*
X113155048Y-100142179D01*
X113030109Y-99970213D01*
X112879786Y-99819890D01*
X112707820Y-99694951D01*
X112707115Y-99694591D01*
X112699054Y-99690485D01*
X112648259Y-99642512D01*
X112631463Y-99574692D01*
X112653999Y-99508556D01*
X112699054Y-99469515D01*
X112707816Y-99465051D01*
X112729789Y-99449086D01*
X112879786Y-99340109D01*
X112879788Y-99340106D01*
X112879792Y-99340104D01*
X113030104Y-99189792D01*
X113030106Y-99189788D01*
X113030109Y-99189786D01*
X113155048Y-99017820D01*
X113155047Y-99017820D01*
X113155051Y-99017816D01*
X113251557Y-98828412D01*
X113317246Y-98626243D01*
X113350500Y-98416287D01*
X113350500Y-98203713D01*
X113317246Y-97993757D01*
X113251557Y-97791588D01*
X113155051Y-97602184D01*
X113155049Y-97602181D01*
X113155048Y-97602179D01*
X113030109Y-97430213D01*
X112879786Y-97279890D01*
X112707820Y-97154951D01*
X112707115Y-97154591D01*
X112699054Y-97150485D01*
X112648259Y-97102512D01*
X112631463Y-97034692D01*
X112653999Y-96968556D01*
X112699054Y-96929515D01*
X112707816Y-96925051D01*
X112729789Y-96909086D01*
X112879786Y-96800109D01*
X112879788Y-96800106D01*
X112879792Y-96800104D01*
X113030104Y-96649792D01*
X113030106Y-96649788D01*
X113030109Y-96649786D01*
X113155048Y-96477820D01*
X113155047Y-96477820D01*
X113155051Y-96477816D01*
X113251557Y-96288412D01*
X113317246Y-96086243D01*
X113350500Y-95876287D01*
X113350500Y-95663713D01*
X113317246Y-95453757D01*
X113251557Y-95251588D01*
X113155051Y-95062184D01*
X113155049Y-95062181D01*
X113155048Y-95062179D01*
X113030109Y-94890213D01*
X112879786Y-94739890D01*
X112707820Y-94614951D01*
X112707115Y-94614591D01*
X112699054Y-94610485D01*
X112696100Y-94607695D01*
X112692161Y-94606693D01*
X112670909Y-94583903D01*
X112648259Y-94562512D01*
X112647281Y-94558566D01*
X112644510Y-94555594D01*
X112638953Y-94524937D01*
X112631463Y-94494692D01*
X112632774Y-94490844D01*
X112632049Y-94486844D01*
X112643948Y-94458049D01*
X112653999Y-94428556D01*
X112657628Y-94424949D01*
X112658735Y-94422272D01*
X112660112Y-94421153D01*
X130199500Y-94421153D01*
X130199500Y-94578846D01*
X130230261Y-94733489D01*
X130230264Y-94733501D01*
X130290602Y-94879172D01*
X130290609Y-94879185D01*
X130378210Y-95010288D01*
X130378213Y-95010292D01*
X130489707Y-95121786D01*
X130489711Y-95121789D01*
X130620814Y-95209390D01*
X130620827Y-95209397D01*
X130722687Y-95251588D01*
X130766503Y-95269737D01*
X130921153Y-95300499D01*
X130921156Y-95300500D01*
X130921158Y-95300500D01*
X131078844Y-95300500D01*
X131078845Y-95300499D01*
X131233497Y-95269737D01*
X131308630Y-95238615D01*
X131378098Y-95231147D01*
X131440578Y-95262422D01*
X131443763Y-95265496D01*
X140234503Y-104056236D01*
X140267988Y-104117559D01*
X140263004Y-104187251D01*
X140261384Y-104191368D01*
X140230263Y-104266503D01*
X140230261Y-104266510D01*
X140199500Y-104421153D01*
X140199500Y-104578846D01*
X140230261Y-104733489D01*
X140230264Y-104733501D01*
X140290602Y-104879172D01*
X140290609Y-104879185D01*
X140378210Y-105010288D01*
X140378213Y-105010292D01*
X140489707Y-105121786D01*
X140489711Y-105121789D01*
X140620814Y-105209390D01*
X140620827Y-105209397D01*
X140766498Y-105269735D01*
X140766503Y-105269737D01*
X140921153Y-105300499D01*
X140921156Y-105300500D01*
X140921158Y-105300500D01*
X141078844Y-105300500D01*
X141078845Y-105300499D01*
X141233497Y-105269737D01*
X141379179Y-105209394D01*
X141510289Y-105121789D01*
X141621789Y-105010289D01*
X141709394Y-104879179D01*
X141769737Y-104733497D01*
X141800500Y-104578842D01*
X141800500Y-104421158D01*
X141800500Y-104421155D01*
X141800499Y-104421153D01*
X141769738Y-104266510D01*
X141769737Y-104266503D01*
X141769735Y-104266498D01*
X141709397Y-104120827D01*
X141709390Y-104120814D01*
X141621789Y-103989711D01*
X141621786Y-103989707D01*
X141510292Y-103878213D01*
X141510288Y-103878210D01*
X141379185Y-103790609D01*
X141379172Y-103790602D01*
X141233501Y-103730264D01*
X141233489Y-103730261D01*
X141078845Y-103699500D01*
X141078842Y-103699500D01*
X140921158Y-103699500D01*
X140921155Y-103699500D01*
X140766510Y-103730261D01*
X140766503Y-103730263D01*
X140691368Y-103761384D01*
X140621899Y-103768851D01*
X140559420Y-103737576D01*
X140556236Y-103734503D01*
X131765496Y-94943763D01*
X131732011Y-94882440D01*
X131736995Y-94812748D01*
X131738605Y-94808655D01*
X131769737Y-94733497D01*
X131800500Y-94578842D01*
X131800500Y-94421158D01*
X131800500Y-94421155D01*
X131800499Y-94421153D01*
X131799315Y-94415199D01*
X131769737Y-94266503D01*
X131767087Y-94260105D01*
X131709397Y-94120827D01*
X131709390Y-94120814D01*
X131621789Y-93989711D01*
X131621786Y-93989707D01*
X131510292Y-93878213D01*
X131510288Y-93878210D01*
X131379185Y-93790609D01*
X131379172Y-93790602D01*
X131233501Y-93730264D01*
X131233489Y-93730261D01*
X131078845Y-93699500D01*
X131078842Y-93699500D01*
X130921158Y-93699500D01*
X130921155Y-93699500D01*
X130766510Y-93730261D01*
X130766498Y-93730264D01*
X130620827Y-93790602D01*
X130620814Y-93790609D01*
X130489711Y-93878210D01*
X130489707Y-93878213D01*
X130378213Y-93989707D01*
X130378210Y-93989711D01*
X130290609Y-94120814D01*
X130290602Y-94120827D01*
X130230264Y-94266498D01*
X130230261Y-94266510D01*
X130199500Y-94421153D01*
X112660112Y-94421153D01*
X112667440Y-94415199D01*
X112684547Y-94398201D01*
X112691503Y-94393362D01*
X112707816Y-94385051D01*
X112879792Y-94260104D01*
X113030104Y-94109792D01*
X113030106Y-94109788D01*
X113030109Y-94109786D01*
X113155048Y-93937820D01*
X113155047Y-93937820D01*
X113155051Y-93937816D01*
X113251557Y-93748412D01*
X113317246Y-93546243D01*
X113350500Y-93336287D01*
X113350500Y-93123713D01*
X113317246Y-92913757D01*
X113251557Y-92711588D01*
X113155051Y-92522184D01*
X113155049Y-92522181D01*
X113155048Y-92522179D01*
X113030109Y-92350213D01*
X112879786Y-92199890D01*
X112707820Y-92074951D01*
X112707115Y-92074591D01*
X112699054Y-92070485D01*
X112648259Y-92022512D01*
X112631463Y-91954692D01*
X112653999Y-91888556D01*
X112699054Y-91849515D01*
X112707816Y-91845051D01*
X112729789Y-91829086D01*
X112879786Y-91720109D01*
X112879788Y-91720106D01*
X112879792Y-91720104D01*
X113030104Y-91569792D01*
X113030106Y-91569788D01*
X113030109Y-91569786D01*
X113155048Y-91397820D01*
X113155047Y-91397820D01*
X113155051Y-91397816D01*
X113251557Y-91208412D01*
X113317246Y-91006243D01*
X113350500Y-90796287D01*
X113350500Y-90583713D01*
X113317246Y-90373757D01*
X113251557Y-90171588D01*
X113155051Y-89982184D01*
X113155049Y-89982181D01*
X113155048Y-89982179D01*
X113030109Y-89810213D01*
X112879786Y-89659890D01*
X112707820Y-89534951D01*
X112707115Y-89534591D01*
X112699054Y-89530485D01*
X112648259Y-89482512D01*
X112631463Y-89414692D01*
X112653999Y-89348556D01*
X112699054Y-89309515D01*
X112707816Y-89305051D01*
X112870254Y-89187034D01*
X112879786Y-89180109D01*
X112879788Y-89180106D01*
X112879792Y-89180104D01*
X113030104Y-89029792D01*
X113030106Y-89029788D01*
X113030109Y-89029786D01*
X113155048Y-88857820D01*
X113155047Y-88857820D01*
X113155051Y-88857816D01*
X113251557Y-88668412D01*
X113317246Y-88466243D01*
X113350500Y-88256287D01*
X113350500Y-88043713D01*
X113317246Y-87833757D01*
X113251557Y-87631588D01*
X113155051Y-87442184D01*
X113155049Y-87442181D01*
X113155048Y-87442179D01*
X113030109Y-87270213D01*
X112916181Y-87156285D01*
X112882696Y-87094962D01*
X112887680Y-87025270D01*
X112929552Y-86969337D01*
X112960529Y-86952422D01*
X113092086Y-86903354D01*
X113092093Y-86903350D01*
X113207187Y-86817190D01*
X113207190Y-86817187D01*
X113293350Y-86702093D01*
X113293354Y-86702086D01*
X113343596Y-86567379D01*
X113343598Y-86567372D01*
X113349999Y-86507844D01*
X113350000Y-86507827D01*
X113350000Y-85860000D01*
X112433012Y-85860000D01*
X112465925Y-85802993D01*
X112500000Y-85675826D01*
X112500000Y-85544174D01*
X112465925Y-85417007D01*
X112433012Y-85360000D01*
X113350000Y-85360000D01*
X113350000Y-84712172D01*
X113349999Y-84712155D01*
X113343598Y-84652627D01*
X113343596Y-84652620D01*
X113293354Y-84517913D01*
X113293350Y-84517906D01*
X113207190Y-84402812D01*
X113207187Y-84402809D01*
X113092093Y-84316649D01*
X113092086Y-84316645D01*
X112957379Y-84266403D01*
X112957372Y-84266401D01*
X112897844Y-84260000D01*
X112250000Y-84260000D01*
X112250000Y-85176988D01*
X112192993Y-85144075D01*
X112065826Y-85110000D01*
X111934174Y-85110000D01*
X111807007Y-85144075D01*
X111750000Y-85176988D01*
X111750000Y-84260000D01*
X111102155Y-84260000D01*
X111042627Y-84266401D01*
X111042620Y-84266403D01*
X110907913Y-84316645D01*
X110907906Y-84316649D01*
X110792812Y-84402809D01*
X110792809Y-84402812D01*
X110706649Y-84517906D01*
X110706645Y-84517913D01*
X110656403Y-84652620D01*
X110656401Y-84652627D01*
X110650000Y-84712155D01*
X110650000Y-85360000D01*
X111566988Y-85360000D01*
X111534075Y-85417007D01*
X111500000Y-85544174D01*
X111500000Y-85675826D01*
X111534075Y-85802993D01*
X111566988Y-85860000D01*
X110650000Y-85860000D01*
X110650000Y-86507844D01*
X110656401Y-86567372D01*
X110656403Y-86567379D01*
X110706645Y-86702086D01*
X110706649Y-86702093D01*
X110792809Y-86817187D01*
X110792812Y-86817190D01*
X110907906Y-86903350D01*
X110907913Y-86903354D01*
X111039470Y-86952422D01*
X111095404Y-86994293D01*
X111119821Y-87059758D01*
X111104969Y-87128031D01*
X111083819Y-87156285D01*
X110969889Y-87270215D01*
X110844951Y-87442179D01*
X110748444Y-87631585D01*
X110682753Y-87833760D01*
X110649500Y-88043713D01*
X107500500Y-88043713D01*
X107500500Y-81124500D01*
X107520185Y-81057461D01*
X107572989Y-81011706D01*
X107624500Y-81000500D01*
X169246488Y-81000500D01*
X169313527Y-81020185D01*
G37*
%TD.AperFunction*%
%TD*%
M02*
