M48
; DRILL file {KiCad 9.0.5} date 2026-02-18T19:38:51-0600
; FORMAT={-:-/ absolute / metric / decimal}
; #@! TF.CreationDate,2026-02-18T19:38:51-06:00
; #@! TF.GenerationSoftware,Kicad,Pcbnew,9.0.5
; #@! TF.FileFunction,Plated,1,2,PTH
FMAT,2
METRIC
; #@! TA.AperFunction,Plated,PTH,ViaDrill
T1C0.300
; #@! TA.AperFunction,Plated,PTH,ComponentDrill
T2C0.500
; #@! TA.AperFunction,Plated,PTH,ComponentDrill
T3C1.000
%
G90
G05
T1
X126.0Y-129.5
X126.0Y-132.5
X131.0Y-94.5
X140.5Y-132.5
X141.0Y-104.5
X141.0Y-111.0
X154.5Y-111.0
X158.5Y-126.5
X162.5Y-124.0
X162.5Y-126.5
X162.5Y-129.0
X162.5Y-131.5
X167.0Y-112.5
X167.0Y-114.5
X167.0Y-119.5
X167.0Y-122.0
X170.0Y-109.5
X170.0Y-111.5
T2
X151.85Y-124.59
X151.85Y-125.99
X152.55Y-123.89
X152.55Y-125.29
X152.55Y-126.69
X153.25Y-124.59
X153.25Y-125.99
X153.95Y-123.89
X153.95Y-125.29
X153.95Y-126.69
X154.65Y-124.59
X154.65Y-125.99
T3
X112.0Y-85.61
X112.0Y-88.15
X112.0Y-90.69
X112.0Y-93.23
X112.0Y-95.77
X112.0Y-98.31
X112.0Y-100.85
X112.0Y-103.39
M30
