%TF.GenerationSoftware,KiCad,Pcbnew,9.0.5*%
%TF.CreationDate,2026-02-18T19:38:21-06:00*%
%TF.ProjectId,Buisness_Card_PCB,42756973-6e65-4737-935f-436172645f50,rev?*%
%TF.SameCoordinates,Original*%
%TF.FileFunction,Copper,L1,Top*%
%TF.FilePolarity,Positive*%
%FSLAX46Y46*%
G04 Gerber Fmt 4.6, Leading zero omitted, Abs format (unit mm)*
G04 Created by KiCad (PCBNEW 9.0.5) date 2026-02-18 19:38:21*
%MOMM*%
%LPD*%
G01*
G04 APERTURE LIST*
G04 Aperture macros list*
%AMRoundRect*
0 Rectangle with rounded corners*
0 $1 Rounding radius*
0 $2 $3 $4 $5 $6 $7 $8 $9 X,Y pos of 4 corners*
0 Add a 4 corners polygon primitive as box body*
4,1,4,$2,$3,$4,$5,$6,$7,$8,$9,$2,$3,0*
0 Add four circle primitives for the rounded corners*
1,1,$1+$1,$2,$3*
1,1,$1+$1,$4,$5*
1,1,$1+$1,$6,$7*
1,1,$1+$1,$8,$9*
0 Add four rect primitives between the rounded corners*
20,1,$1+$1,$2,$3,$4,$5,0*
20,1,$1+$1,$4,$5,$6,$7,0*
20,1,$1+$1,$6,$7,$8,$9,0*
20,1,$1+$1,$8,$9,$2,$3,0*%
G04 Aperture macros list end*
%TA.AperFunction,SMDPad,CuDef*%
%ADD10RoundRect,0.100000X0.100000X-0.130000X0.100000X0.130000X-0.100000X0.130000X-0.100000X-0.130000X0*%
%TD*%
%TA.AperFunction,SMDPad,CuDef*%
%ADD11C,8.000000*%
%TD*%
%TA.AperFunction,SMDPad,CuDef*%
%ADD12RoundRect,0.100000X0.130000X0.100000X-0.130000X0.100000X-0.130000X-0.100000X0.130000X-0.100000X0*%
%TD*%
%TA.AperFunction,SMDPad,CuDef*%
%ADD13RoundRect,0.250000X0.247487X1.166726X-1.166726X-0.247487X-0.247487X-1.166726X1.166726X0.247487X0*%
%TD*%
%TA.AperFunction,SMDPad,CuDef*%
%ADD14RoundRect,0.100000X-0.130000X-0.100000X0.130000X-0.100000X0.130000X0.100000X-0.130000X0.100000X0*%
%TD*%
%TA.AperFunction,SMDPad,CuDef*%
%ADD15R,1.600000X1.400000*%
%TD*%
%TA.AperFunction,SMDPad,CuDef*%
%ADD16RoundRect,0.150000X0.256326X0.468458X-0.468458X-0.256326X-0.256326X-0.468458X0.468458X0.256326X0*%
%TD*%
%TA.AperFunction,SMDPad,CuDef*%
%ADD17R,1.500000X0.900000*%
%TD*%
%TA.AperFunction,SMDPad,CuDef*%
%ADD18R,0.900000X1.500000*%
%TD*%
%TA.AperFunction,HeatsinkPad*%
%ADD19C,0.600000*%
%TD*%
%TA.AperFunction,HeatsinkPad*%
%ADD20R,3.900000X3.900000*%
%TD*%
%TA.AperFunction,SMDPad,CuDef*%
%ADD21RoundRect,0.100000X0.162635X-0.021213X-0.021213X0.162635X-0.162635X0.021213X0.021213X-0.162635X0*%
%TD*%
%TA.AperFunction,ComponentPad*%
%ADD22R,1.700000X1.700000*%
%TD*%
%TA.AperFunction,ComponentPad*%
%ADD23C,1.700000*%
%TD*%
%TA.AperFunction,SMDPad,CuDef*%
%ADD24RoundRect,0.100000X-0.100000X0.130000X-0.100000X-0.130000X0.100000X-0.130000X0.100000X0.130000X0*%
%TD*%
%TA.AperFunction,SMDPad,CuDef*%
%ADD25RoundRect,0.250000X1.767767X2.828427X-2.828427X-1.767767X-1.767767X-2.828427X2.828427X1.767767X0*%
%TD*%
%TA.AperFunction,SMDPad,CuDef*%
%ADD26RoundRect,0.250000X1.590990X2.298097X-2.298097X-1.590990X-1.590990X-2.298097X2.298097X1.590990X0*%
%TD*%
%TA.AperFunction,ViaPad*%
%ADD27C,0.600000*%
%TD*%
%TA.AperFunction,Conductor*%
%ADD28C,0.200000*%
%TD*%
G04 APERTURE END LIST*
D10*
%TO.P,D1,1,K*%
%TO.N,GND*%
X113500000Y-121665000D03*
%TO.P,D1,2,A*%
%TO.N,Net-(D1-A)*%
X113500000Y-121025000D03*
%TD*%
%TO.P,C6,1*%
%TO.N,GND*%
X117500000Y-121640000D03*
%TO.P,C6,2*%
%TO.N,/3V3*%
X117500000Y-121000000D03*
%TD*%
D11*
%TO.P,A1,1,1*%
%TO.N,Net-(U4-IO3)*%
X123000000Y-115118182D03*
%TD*%
D12*
%TO.P,C5,1*%
%TO.N,GND*%
X164975000Y-133000000D03*
%TO.P,C5,2*%
%TO.N,/3V3*%
X164335000Y-133000000D03*
%TD*%
D11*
%TO.P,UP1,1,1*%
%TO.N,Net-(U4-IO7)*%
X181500000Y-113618182D03*
%TD*%
D13*
%TO.P,D3,1,A1*%
%TO.N,GND*%
X185500000Y-101000000D03*
%TO.P,D3,2,A2*%
%TO.N,/USB_P*%
X182671572Y-103828428D03*
%TD*%
D14*
%TO.P,R5,1*%
%TO.N,/EN*%
X162335000Y-130500000D03*
%TO.P,R5,2*%
%TO.N,/3V3*%
X162975000Y-130500000D03*
%TD*%
D15*
%TO.P,SW1,1,1*%
%TO.N,GND*%
X111900000Y-125500000D03*
X119100000Y-125500000D03*
%TO.P,SW1,2,2*%
%TO.N,/EN*%
X111900000Y-128500000D03*
X119100000Y-128500000D03*
%TD*%
D10*
%TO.P,R3,1*%
%TO.N,Net-(D1-A)*%
X115500000Y-121640000D03*
%TO.P,R3,2*%
%TO.N,/3V3*%
X115500000Y-121000000D03*
%TD*%
D14*
%TO.P,C2,1*%
%TO.N,GND*%
X162360000Y-133000000D03*
%TO.P,C2,2*%
%TO.N,/3V3*%
X163000000Y-133000000D03*
%TD*%
D11*
%TO.P,B1,1,1*%
%TO.N,Net-(U4-IO8)*%
X132000000Y-122500000D03*
%TD*%
D16*
%TO.P,U2,1,IN*%
%TO.N,/5VUSB*%
X173671751Y-104671751D03*
%TO.P,U2,2,GND*%
%TO.N,GND*%
X173000000Y-104000000D03*
%TO.P,U2,3,EN*%
%TO.N,/5VUSB*%
X172328249Y-103328249D03*
%TO.P,U2,4,NC*%
%TO.N,unconnected-(U2-NC-Pad4)*%
X170719581Y-104936917D03*
%TO.P,U2,5,OUT*%
%TO.N,/3V3*%
X172063083Y-106280419D03*
%TD*%
D13*
%TO.P,D4,1,A1*%
%TO.N,GND*%
X181000000Y-96500000D03*
%TO.P,D4,2,A2*%
%TO.N,/USB_N*%
X178171572Y-99328428D03*
%TD*%
%TO.P,D2,1,A1*%
%TO.N,GND*%
X176500000Y-92000000D03*
%TO.P,D2,2,A2*%
%TO.N,/5VUSB*%
X173671572Y-94828428D03*
%TD*%
D15*
%TO.P,SW4,1,1*%
%TO.N,GND*%
X111800000Y-133000000D03*
X119000000Y-133000000D03*
%TO.P,SW4,2,2*%
%TO.N,/IO0*%
X111800000Y-136000000D03*
X119000000Y-136000000D03*
%TD*%
D11*
%TO.P,LEFT1,1,1*%
%TO.N,Net-(U4-IO6)*%
X172500000Y-122500000D03*
%TD*%
%TO.P,DOWN1,1,1*%
%TO.N,Net-(U4-IO5)*%
X181500000Y-131000000D03*
%TD*%
D17*
%TO.P,U4,1,GND*%
%TO.N,GND*%
X160500000Y-133010000D03*
%TO.P,U4,2,3V3*%
%TO.N,/3V3*%
X160500000Y-131740000D03*
%TO.P,U4,3,EN*%
%TO.N,/EN*%
X160500000Y-130470000D03*
%TO.P,U4,4,IO4*%
%TO.N,Net-(U4-IO4)*%
X160500000Y-129200000D03*
%TO.P,U4,5,IO5*%
%TO.N,Net-(U4-IO5)*%
X160500000Y-127930000D03*
%TO.P,U4,6,IO6*%
%TO.N,Net-(U4-IO6)*%
X160500000Y-126660000D03*
%TO.P,U4,7,IO7*%
%TO.N,Net-(U4-IO7)*%
X160500000Y-125390000D03*
%TO.P,U4,8,IO15*%
%TO.N,unconnected-(U4-IO15-Pad8)*%
X160500000Y-124120000D03*
%TO.P,U4,9,IO16*%
%TO.N,unconnected-(U4-IO16-Pad9)*%
X160500000Y-122850000D03*
%TO.P,U4,10,IO17*%
%TO.N,unconnected-(U4-IO17-Pad10)*%
X160500000Y-121580000D03*
%TO.P,U4,11,IO18*%
%TO.N,unconnected-(U4-IO18-Pad11)*%
X160500000Y-120310000D03*
%TO.P,U4,12,IO8*%
%TO.N,Net-(U4-IO8)*%
X160500000Y-119040000D03*
%TO.P,U4,13,USB_D-*%
%TO.N,Net-(U4-USB_D-)*%
X160500000Y-117770000D03*
%TO.P,U4,14,USB_D+*%
%TO.N,Net-(U4-USB_D+)*%
X160500000Y-116500000D03*
D18*
%TO.P,U4,15,IO3*%
%TO.N,Net-(U4-IO3)*%
X158735000Y-115250000D03*
%TO.P,U4,16,IO46*%
%TO.N,unconnected-(U4-IO46-Pad16)*%
X157465000Y-115250000D03*
%TO.P,U4,17,IO9*%
%TO.N,Net-(J5-Pin_6)*%
X156195000Y-115250000D03*
%TO.P,U4,18,IO10*%
%TO.N,Net-(J5-Pin_7)*%
X154925000Y-115250000D03*
%TO.P,U4,19,IO11*%
%TO.N,Net-(J5-Pin_4)*%
X153655000Y-115250000D03*
%TO.P,U4,20,IO12*%
%TO.N,Net-(J5-Pin_3)*%
X152385000Y-115250000D03*
%TO.P,U4,21,IO13*%
%TO.N,unconnected-(U4-IO13-Pad21)*%
X151115000Y-115250000D03*
%TO.P,U4,22,IO14*%
%TO.N,Net-(J5-Pin_5)*%
X149845000Y-115250000D03*
%TO.P,U4,23,IO21*%
%TO.N,unconnected-(U4-IO21-Pad23)*%
X148575000Y-115250000D03*
%TO.P,U4,24,IO47*%
%TO.N,unconnected-(U4-IO47-Pad24)*%
X147305000Y-115250000D03*
%TO.P,U4,25,IO48*%
%TO.N,unconnected-(U4-IO48-Pad25)*%
X146035000Y-115250000D03*
%TO.P,U4,26,IO45*%
%TO.N,unconnected-(U4-IO45-Pad26)*%
X144765000Y-115250000D03*
D17*
%TO.P,U4,27,IO0*%
%TO.N,/IO0*%
X143000000Y-116500000D03*
%TO.P,U4,28,IO35*%
%TO.N,unconnected-(U4-IO35-Pad28)*%
X143000000Y-117770000D03*
%TO.P,U4,29,IO36*%
%TO.N,unconnected-(U4-IO36-Pad29)*%
X143000000Y-119040000D03*
%TO.P,U4,30,IO37*%
%TO.N,unconnected-(U4-IO37-Pad30)*%
X143000000Y-120310000D03*
%TO.P,U4,31,IO38*%
%TO.N,unconnected-(U4-IO38-Pad31)*%
X143000000Y-121580000D03*
%TO.P,U4,32,IO39*%
%TO.N,unconnected-(U4-IO39-Pad32)*%
X143000000Y-122850000D03*
%TO.P,U4,33,IO40*%
%TO.N,unconnected-(U4-IO40-Pad33)*%
X143000000Y-124120000D03*
%TO.P,U4,34,IO41*%
%TO.N,unconnected-(U4-IO41-Pad34)*%
X143000000Y-125390000D03*
%TO.P,U4,35,IO42*%
%TO.N,unconnected-(U4-IO42-Pad35)*%
X143000000Y-126660000D03*
%TO.P,U4,36,RXD0*%
%TO.N,unconnected-(U4-RXD0-Pad36)*%
X143000000Y-127930000D03*
%TO.P,U4,37,TXD0*%
%TO.N,unconnected-(U4-TXD0-Pad37)*%
X143000000Y-129200000D03*
%TO.P,U4,38,IO2*%
%TO.N,unconnected-(U4-IO2-Pad38)*%
X143000000Y-130470000D03*
%TO.P,U4,39,IO1*%
%TO.N,unconnected-(U4-IO1-Pad39)*%
X143000000Y-131740000D03*
%TO.P,U4,40,GND*%
%TO.N,GND*%
X143000000Y-133010000D03*
D19*
%TO.P,U4,41,GND*%
X154650000Y-125990000D03*
X154650000Y-124590000D03*
X153950000Y-126690000D03*
X153950000Y-125290000D03*
X153950000Y-123890000D03*
X153250000Y-125990000D03*
D20*
X153250000Y-125290000D03*
D19*
X153250000Y-124590000D03*
X152550000Y-126690000D03*
X152550000Y-125290000D03*
X152550000Y-123890000D03*
X151850000Y-125990000D03*
X151850000Y-124590000D03*
%TD*%
D21*
%TO.P,C1,1*%
%TO.N,GND*%
X175726274Y-102226274D03*
%TO.P,C1,2*%
%TO.N,/5VUSB*%
X175273726Y-101773726D03*
%TD*%
D12*
%TO.P,R4,1*%
%TO.N,/USB_N*%
X163140000Y-117500000D03*
%TO.P,R4,2*%
%TO.N,Net-(U4-USB_D-)*%
X162500000Y-117500000D03*
%TD*%
D11*
%TO.P,RIGHT1,1,1*%
%TO.N,Net-(U4-IO4)*%
X190000000Y-121809091D03*
%TD*%
D12*
%TO.P,R6,1*%
%TO.N,/USB_P*%
X163165000Y-116500000D03*
%TO.P,R6,2*%
%TO.N,Net-(U4-USB_D+)*%
X162525000Y-116500000D03*
%TD*%
D22*
%TO.P,J5,1,Pin_1*%
%TO.N,GND*%
X112000000Y-85610000D03*
D23*
%TO.P,J5,2,Pin_2*%
%TO.N,/3V3*%
X112000000Y-88150000D03*
%TO.P,J5,3,Pin_3*%
%TO.N,Net-(J5-Pin_3)*%
X112000000Y-90690000D03*
%TO.P,J5,4,Pin_4*%
%TO.N,Net-(J5-Pin_4)*%
X112000000Y-93230000D03*
%TO.P,J5,5,Pin_5*%
%TO.N,Net-(J5-Pin_5)*%
X112000000Y-95770000D03*
%TO.P,J5,6,Pin_6*%
%TO.N,Net-(J5-Pin_6)*%
X112000000Y-98310000D03*
%TO.P,J5,7,Pin_7*%
%TO.N,Net-(J5-Pin_7)*%
X112000000Y-100850000D03*
%TO.P,J5,8,Pin_8*%
%TO.N,/3V3*%
X112000000Y-103390000D03*
%TD*%
D24*
%TO.P,C7,1*%
%TO.N,GND*%
X123000000Y-126680000D03*
%TO.P,C7,2*%
%TO.N,/EN*%
X123000000Y-127320000D03*
%TD*%
D25*
%TO.P,J4,1,VBUS*%
%TO.N,/5VUSB*%
X187196700Y-85196700D03*
D26*
%TO.P,J4,2,D-*%
%TO.N,/USB_N*%
X189141243Y-87141243D03*
%TO.P,J4,3,D+*%
%TO.N,/USB_P*%
X190555457Y-88555457D03*
D25*
%TO.P,J4,4,GND*%
%TO.N,GND*%
X192500000Y-90500000D03*
%TD*%
D24*
%TO.P,C8,1*%
%TO.N,GND*%
X123000000Y-134180000D03*
%TO.P,C8,2*%
%TO.N,/IO0*%
X123000000Y-134820000D03*
%TD*%
D27*
%TO.N,GND*%
X162500000Y-131500000D03*
X158500000Y-126500000D03*
X140500000Y-132500000D03*
X126000000Y-132500000D03*
%TO.N,/3V3*%
X170000000Y-109500000D03*
X167000000Y-114500000D03*
%TO.N,/USB_P*%
X167000000Y-112500000D03*
X170000000Y-111500000D03*
%TO.N,Net-(J5-Pin_3)*%
X141000000Y-104500000D03*
X131000000Y-94500000D03*
%TO.N,Net-(U4-IO3)*%
X141000000Y-111000000D03*
X154500000Y-111000000D03*
%TO.N,Net-(U4-IO4)*%
X167000000Y-122000000D03*
X162500000Y-126500000D03*
%TO.N,Net-(U4-IO7)*%
X162500000Y-124000000D03*
X167000000Y-119500000D03*
%TO.N,/EN*%
X126000000Y-129500000D03*
X162500000Y-129000000D03*
%TD*%
D28*
%TO.N,GND*%
X176500000Y-92000000D02*
X118390000Y-92000000D01*
X117042000Y-122098000D02*
X117500000Y-121640000D01*
X162360000Y-133360000D02*
X162360000Y-133000000D01*
X110172000Y-131000000D02*
X110172000Y-125000000D01*
X192500000Y-90500000D02*
X185500000Y-97500000D01*
X111900000Y-123265000D02*
X113500000Y-121665000D01*
X190636095Y-83863905D02*
X181000000Y-93500000D01*
X119100000Y-125500000D02*
X121820000Y-125500000D01*
X158500000Y-126500000D02*
X157990000Y-125990000D01*
X113300001Y-121665000D02*
X113500000Y-121665000D01*
X121820000Y-125500000D02*
X123000000Y-126680000D01*
X113933000Y-122098000D02*
X117042000Y-122098000D01*
X160500000Y-133010000D02*
X160990000Y-133010000D01*
X110172000Y-131372000D02*
X110172000Y-131000000D01*
X119000000Y-133000000D02*
X119000000Y-132000000D01*
X111900000Y-125500000D02*
X110672000Y-125500000D01*
X162500000Y-133500000D02*
X162360000Y-133360000D01*
X162360000Y-133000000D02*
X160510000Y-133000000D01*
X119100000Y-123240000D02*
X117500000Y-121640000D01*
X119100000Y-125500000D02*
X119100000Y-123240000D01*
X181000000Y-93500000D02*
X181000000Y-96500000D01*
X140500000Y-132500000D02*
X141010000Y-133010000D01*
X193748016Y-89251984D02*
X193748016Y-86475826D01*
X189157565Y-81885375D02*
X188614625Y-81885375D01*
X191136095Y-83863905D02*
X189157565Y-81885375D01*
X141010000Y-133010000D02*
X143000000Y-133010000D01*
X175726274Y-102226274D02*
X174952548Y-103000000D01*
X175766320Y-98733680D02*
X175766320Y-102186228D01*
X178500000Y-92000000D02*
X176500000Y-92000000D01*
X118000000Y-131000000D02*
X110172000Y-131000000D01*
X193748016Y-86475826D02*
X191136095Y-83863905D01*
X160990000Y-133010000D02*
X162500000Y-131500000D01*
X174952548Y-103000000D02*
X174000000Y-103000000D01*
X111800000Y-133000000D02*
X110172000Y-131372000D01*
X160510000Y-133000000D02*
X160500000Y-133010000D01*
X175766320Y-102186228D02*
X175726274Y-102226274D01*
X119000000Y-132000000D02*
X118000000Y-131000000D01*
X113500000Y-121665000D02*
X113933000Y-122098000D01*
X118390000Y-92000000D02*
X112000000Y-85610000D01*
X185500000Y-97500000D02*
X185500000Y-101000000D01*
X110172000Y-87438000D02*
X110172000Y-118536999D01*
X119000000Y-133000000D02*
X121820000Y-133000000D01*
X143000000Y-133010000D02*
X145530000Y-133010000D01*
X174000000Y-103000000D02*
X173000000Y-104000000D01*
X188614625Y-81885375D02*
X178500000Y-92000000D01*
X121820000Y-133000000D02*
X123000000Y-134180000D01*
X124680000Y-132500000D02*
X126000000Y-132500000D01*
X181000000Y-93500000D02*
X175766320Y-98733680D01*
X112000000Y-85610000D02*
X112000000Y-85500000D01*
X110172000Y-125000000D02*
X110172000Y-118536999D01*
X112000000Y-85610000D02*
X110172000Y-87438000D01*
X164674999Y-133500000D02*
X162500000Y-133500000D01*
X157990000Y-125990000D02*
X153250000Y-125990000D01*
X111900000Y-125500000D02*
X111900000Y-123265000D01*
X191136095Y-83863905D02*
X190636095Y-83863905D01*
X110672000Y-125500000D02*
X110172000Y-125000000D01*
X164975000Y-133000000D02*
X164975000Y-133199999D01*
X145530000Y-133010000D02*
X153250000Y-125290000D01*
X123000000Y-134180000D02*
X124680000Y-132500000D01*
X192500000Y-90500000D02*
X193748016Y-89251984D01*
X164975000Y-133199999D02*
X164674999Y-133500000D01*
%TO.N,/5VUSB*%
X173671572Y-100171572D02*
X175273726Y-101773726D01*
X173671572Y-94828428D02*
X173671572Y-100171572D01*
X172150603Y-103505895D02*
X172328249Y-103328249D01*
X173671751Y-104671751D02*
X173494105Y-104849397D01*
X177564972Y-94828428D02*
X173671572Y-94828428D01*
X172150603Y-104409961D02*
X172150603Y-103505895D01*
X173494105Y-104849397D02*
X172590039Y-104849397D01*
X172328249Y-101671751D02*
X172328249Y-103328249D01*
X173671572Y-100171572D02*
X173671572Y-100328428D01*
X173671572Y-100328428D02*
X172328249Y-101671751D01*
X187196700Y-85196700D02*
X177564972Y-94828428D01*
X172590039Y-104849397D02*
X172150603Y-104409961D01*
%TO.N,/3V3*%
X164335000Y-130500000D02*
X162975000Y-130500000D01*
X112000000Y-88150000D02*
X110500000Y-89650000D01*
X167000000Y-114500000D02*
X164335000Y-117165000D01*
X164335000Y-117165000D02*
X164335000Y-130500000D01*
X172063083Y-107436917D02*
X170000000Y-109500000D01*
X117350000Y-93500000D02*
X157500000Y-93500000D01*
X112000000Y-88150000D02*
X117350000Y-93500000D01*
X162746999Y-130928000D02*
X162975000Y-130699999D01*
X170280419Y-106280419D02*
X172063083Y-106280419D01*
X110500000Y-101890000D02*
X112000000Y-103390000D01*
X164335000Y-130500000D02*
X164335000Y-133000000D01*
X160500000Y-131740000D02*
X160800000Y-131740000D01*
X110500000Y-89650000D02*
X110500000Y-101890000D01*
X172063083Y-106280419D02*
X172063083Y-107436917D01*
X117500000Y-121000000D02*
X115500000Y-121000000D01*
X157500000Y-93500000D02*
X170280419Y-106280419D01*
X160800000Y-131740000D02*
X161612000Y-130928000D01*
X112000000Y-103390000D02*
X115500000Y-106890000D01*
X164335000Y-133000000D02*
X163000000Y-133000000D01*
X161612000Y-130928000D02*
X162746999Y-130928000D01*
X162975000Y-130699999D02*
X162975000Y-130500000D01*
X115500000Y-121000000D02*
X115500000Y-106890000D01*
%TO.N,Net-(D1-A)*%
X113500000Y-121025000D02*
X114828366Y-121025000D01*
X115443366Y-121640000D02*
X115500000Y-121640000D01*
X114828366Y-121025000D02*
X115443366Y-121640000D01*
%TO.N,/USB_P*%
X177671572Y-103828428D02*
X170000000Y-111500000D01*
X190555457Y-90707887D02*
X177671572Y-103591772D01*
X182671572Y-103828428D02*
X177671572Y-103828428D01*
X190555457Y-88555457D02*
X190555457Y-90707887D01*
X167000000Y-112665000D02*
X163165000Y-116500000D01*
X167000000Y-112500000D02*
X167000000Y-112665000D01*
X177671572Y-103591772D02*
X177671572Y-103828428D01*
%TO.N,/USB_N*%
X189141243Y-87141243D02*
X182649624Y-93632862D01*
X163140000Y-117500000D02*
X178671572Y-101968428D01*
X182649624Y-93632862D02*
X182649624Y-97990376D01*
X178671572Y-99828428D02*
X178671572Y-101968428D01*
X178171572Y-99328428D02*
X178671572Y-99828428D01*
X182649624Y-97990376D02*
X178671572Y-101968428D01*
%TO.N,Net-(J5-Pin_5)*%
X112000000Y-95770000D02*
X140911000Y-95770000D01*
X159413000Y-116228000D02*
X150437000Y-116228000D01*
X159413000Y-114272000D02*
X159413000Y-116228000D01*
X150437000Y-116228000D02*
X149845000Y-115636000D01*
X149845000Y-115636000D02*
X149845000Y-115250000D01*
X140911000Y-95770000D02*
X159413000Y-114272000D01*
%TO.N,Net-(J5-Pin_6)*%
X156195000Y-115250000D02*
X156195000Y-114950000D01*
X139555000Y-98310000D02*
X112000000Y-98310000D01*
X156195000Y-114950000D02*
X139555000Y-98310000D01*
%TO.N,Net-(J5-Pin_3)*%
X115810000Y-94500000D02*
X112000000Y-90690000D01*
X141935000Y-104500000D02*
X141000000Y-104500000D01*
X131000000Y-94500000D02*
X115810000Y-94500000D01*
X152385000Y-115250000D02*
X152385000Y-114950000D01*
X152385000Y-114950000D02*
X141935000Y-104500000D01*
%TO.N,Net-(J5-Pin_4)*%
X110849000Y-94381000D02*
X112000000Y-93230000D01*
X153655000Y-115250000D02*
X153655000Y-114950000D01*
X111523240Y-102001000D02*
X110849000Y-101326760D01*
X140706000Y-102001000D02*
X111523240Y-102001000D01*
X110849000Y-101326760D02*
X110849000Y-94381000D01*
X153655000Y-114950000D02*
X140706000Y-102001000D01*
%TO.N,Net-(J5-Pin_7)*%
X112000000Y-100850000D02*
X141475000Y-100850000D01*
X141475000Y-100850000D02*
X154925000Y-114300000D01*
X154925000Y-114300000D02*
X154925000Y-115250000D01*
%TO.N,Net-(U4-USB_D-)*%
X161730000Y-117770000D02*
X160500000Y-117770000D01*
X162000000Y-117500000D02*
X161730000Y-117770000D01*
X162500000Y-117500000D02*
X162000000Y-117500000D01*
%TO.N,Net-(U4-USB_D+)*%
X162525000Y-116500000D02*
X160500000Y-116500000D01*
%TO.N,Net-(U4-IO3)*%
X158735000Y-114864000D02*
X158735000Y-115250000D01*
X154500000Y-111000000D02*
X154871000Y-111000000D01*
X126500000Y-111000000D02*
X141000000Y-111000000D01*
X123000000Y-115309091D02*
X123000000Y-114500000D01*
X123000000Y-114500000D02*
X126500000Y-111000000D01*
X154871000Y-111000000D02*
X158735000Y-114864000D01*
%TO.N,Net-(U4-IO4)*%
X186272000Y-118272000D02*
X170728000Y-118272000D01*
X162500000Y-127500000D02*
X160800000Y-129200000D01*
X160800000Y-129200000D02*
X160500000Y-129200000D01*
X170728000Y-118272000D02*
X167000000Y-122000000D01*
X162500000Y-126500000D02*
X162500000Y-127500000D01*
X190000000Y-122000000D02*
X186272000Y-118272000D01*
%TO.N,Net-(U4-IO5)*%
X178672000Y-133828000D02*
X159662000Y-133828000D01*
X159662000Y-133828000D02*
X159522000Y-133688000D01*
X181500000Y-131000000D02*
X178672000Y-133828000D01*
X160200000Y-127930000D02*
X160500000Y-127930000D01*
X159522000Y-128608000D02*
X160200000Y-127930000D01*
X159522000Y-133688000D02*
X159522000Y-128608000D01*
%TO.N,Net-(U4-IO6)*%
X178979295Y-122500000D02*
X185728000Y-129248705D01*
X172500000Y-122500000D02*
X178979295Y-122500000D01*
X183251295Y-135228000D02*
X179748705Y-135228000D01*
X179748705Y-135228000D02*
X178676705Y-134156000D01*
X185728000Y-129248705D02*
X185728000Y-132751295D01*
X178676705Y-134156000D02*
X159526138Y-134156000D01*
X159194000Y-133823862D02*
X159194000Y-127666000D01*
X185728000Y-132751295D02*
X183251295Y-135228000D01*
X160200000Y-126660000D02*
X160500000Y-126660000D01*
X159526138Y-134156000D02*
X159194000Y-133823862D01*
X159194000Y-127666000D02*
X160200000Y-126660000D01*
%TO.N,Net-(U4-IO7)*%
X172690909Y-113809091D02*
X167000000Y-119500000D01*
X161110000Y-125390000D02*
X160500000Y-125390000D01*
X181500000Y-113809091D02*
X172690909Y-113809091D01*
X162500000Y-124000000D02*
X161110000Y-125390000D01*
%TO.N,Net-(U4-IO8)*%
X132000000Y-122500000D02*
X138678000Y-115822000D01*
X138678000Y-115822000D02*
X143978000Y-115822000D01*
X146040000Y-119040000D02*
X160500000Y-119040000D01*
X143978000Y-116978000D02*
X146040000Y-119040000D01*
X143978000Y-115822000D02*
X143978000Y-116978000D01*
%TO.N,/EN*%
X123000000Y-127320000D02*
X123820000Y-127320000D01*
X121820000Y-128500000D02*
X123000000Y-127320000D01*
X119100000Y-128500000D02*
X121820000Y-128500000D01*
X111900000Y-128900000D02*
X111900000Y-128500000D01*
X119100000Y-129400000D02*
X118000000Y-130500000D01*
X119100000Y-128500000D02*
X119100000Y-129400000D01*
X162500000Y-130335000D02*
X162335000Y-130500000D01*
X113500000Y-130500000D02*
X111900000Y-128900000D01*
X160530000Y-130500000D02*
X160500000Y-130470000D01*
X118000000Y-130500000D02*
X113500000Y-130500000D01*
X162335000Y-130500000D02*
X160530000Y-130500000D01*
X162500000Y-129000000D02*
X162500000Y-130335000D01*
X123820000Y-127320000D02*
X126000000Y-129500000D01*
%TO.N,/IO0*%
X127287164Y-134820000D02*
X142022000Y-120085164D01*
X122000000Y-136000000D02*
X123000000Y-135000000D01*
X118000000Y-138500000D02*
X119000000Y-137500000D01*
X111800000Y-136000000D02*
X111800000Y-137300000D01*
X113000000Y-138500000D02*
X118000000Y-138500000D01*
X119000000Y-137500000D02*
X119000000Y-136000000D01*
X123000000Y-135000000D02*
X123000000Y-134820000D01*
X142022000Y-117178000D02*
X142700000Y-116500000D01*
X123000000Y-134820000D02*
X127287164Y-134820000D01*
X111800000Y-137300000D02*
X113000000Y-138500000D01*
X119000000Y-136000000D02*
X122000000Y-136000000D01*
X142022000Y-120085164D02*
X142022000Y-117178000D01*
X142700000Y-116500000D02*
X143000000Y-116500000D01*
%TD*%
M02*
