%TF.GenerationSoftware,KiCad,Pcbnew,9.0.5*%
%TF.CreationDate,2026-02-18T19:38:21-06:00*%
%TF.ProjectId,Buisness_Card_PCB,42756973-6e65-4737-935f-436172645f50,rev?*%
%TF.SameCoordinates,Original*%
%TF.FileFunction,Legend,Top*%
%TF.FilePolarity,Positive*%
%FSLAX46Y46*%
G04 Gerber Fmt 4.6, Leading zero omitted, Abs format (unit mm)*
G04 Created by KiCad (PCBNEW 9.0.5) date 2026-02-18 19:38:21*
%MOMM*%
%LPD*%
G01*
G04 APERTURE LIST*
%ADD10C,0.150000*%
%ADD11C,0.100000*%
%ADD12C,0.120000*%
%ADD13C,0.000000*%
G04 APERTURE END LIST*
D10*
X178955826Y-137808628D02*
X178955826Y-136308628D01*
X178955826Y-136308628D02*
X179312969Y-136308628D01*
X179312969Y-136308628D02*
X179527255Y-136380057D01*
X179527255Y-136380057D02*
X179670112Y-136522914D01*
X179670112Y-136522914D02*
X179741541Y-136665771D01*
X179741541Y-136665771D02*
X179812969Y-136951485D01*
X179812969Y-136951485D02*
X179812969Y-137165771D01*
X179812969Y-137165771D02*
X179741541Y-137451485D01*
X179741541Y-137451485D02*
X179670112Y-137594342D01*
X179670112Y-137594342D02*
X179527255Y-137737200D01*
X179527255Y-137737200D02*
X179312969Y-137808628D01*
X179312969Y-137808628D02*
X178955826Y-137808628D01*
X180741541Y-136308628D02*
X181027255Y-136308628D01*
X181027255Y-136308628D02*
X181170112Y-136380057D01*
X181170112Y-136380057D02*
X181312969Y-136522914D01*
X181312969Y-136522914D02*
X181384398Y-136808628D01*
X181384398Y-136808628D02*
X181384398Y-137308628D01*
X181384398Y-137308628D02*
X181312969Y-137594342D01*
X181312969Y-137594342D02*
X181170112Y-137737200D01*
X181170112Y-137737200D02*
X181027255Y-137808628D01*
X181027255Y-137808628D02*
X180741541Y-137808628D01*
X180741541Y-137808628D02*
X180598684Y-137737200D01*
X180598684Y-137737200D02*
X180455826Y-137594342D01*
X180455826Y-137594342D02*
X180384398Y-137308628D01*
X180384398Y-137308628D02*
X180384398Y-136808628D01*
X180384398Y-136808628D02*
X180455826Y-136522914D01*
X180455826Y-136522914D02*
X180598684Y-136380057D01*
X180598684Y-136380057D02*
X180741541Y-136308628D01*
X181884398Y-136308628D02*
X182241541Y-137808628D01*
X182241541Y-137808628D02*
X182527255Y-136737200D01*
X182527255Y-136737200D02*
X182812970Y-137808628D01*
X182812970Y-137808628D02*
X183170113Y-136308628D01*
X183741541Y-137808628D02*
X183741541Y-136308628D01*
X183741541Y-136308628D02*
X184598684Y-137808628D01*
X184598684Y-137808628D02*
X184598684Y-136308628D01*
X180455826Y-118308628D02*
X180455826Y-119522914D01*
X180455826Y-119522914D02*
X180527255Y-119665771D01*
X180527255Y-119665771D02*
X180598684Y-119737200D01*
X180598684Y-119737200D02*
X180741541Y-119808628D01*
X180741541Y-119808628D02*
X181027255Y-119808628D01*
X181027255Y-119808628D02*
X181170112Y-119737200D01*
X181170112Y-119737200D02*
X181241541Y-119665771D01*
X181241541Y-119665771D02*
X181312969Y-119522914D01*
X181312969Y-119522914D02*
X181312969Y-118308628D01*
X182027255Y-119808628D02*
X182027255Y-118308628D01*
X182027255Y-118308628D02*
X182598684Y-118308628D01*
X182598684Y-118308628D02*
X182741541Y-118380057D01*
X182741541Y-118380057D02*
X182812970Y-118451485D01*
X182812970Y-118451485D02*
X182884398Y-118594342D01*
X182884398Y-118594342D02*
X182884398Y-118808628D01*
X182884398Y-118808628D02*
X182812970Y-118951485D01*
X182812970Y-118951485D02*
X182741541Y-119022914D01*
X182741541Y-119022914D02*
X182598684Y-119094342D01*
X182598684Y-119094342D02*
X182027255Y-119094342D01*
X171170112Y-128808628D02*
X170455826Y-128808628D01*
X170455826Y-128808628D02*
X170455826Y-127308628D01*
X171670112Y-128022914D02*
X172170112Y-128022914D01*
X172384398Y-128808628D02*
X171670112Y-128808628D01*
X171670112Y-128808628D02*
X171670112Y-127308628D01*
X171670112Y-127308628D02*
X172384398Y-127308628D01*
X173527255Y-128022914D02*
X173027255Y-128022914D01*
X173027255Y-128808628D02*
X173027255Y-127308628D01*
X173027255Y-127308628D02*
X173741541Y-127308628D01*
X174098684Y-127308628D02*
X174955827Y-127308628D01*
X174527255Y-128808628D02*
X174527255Y-127308628D01*
X188312969Y-128308628D02*
X187812969Y-127594342D01*
X187455826Y-128308628D02*
X187455826Y-126808628D01*
X187455826Y-126808628D02*
X188027255Y-126808628D01*
X188027255Y-126808628D02*
X188170112Y-126880057D01*
X188170112Y-126880057D02*
X188241541Y-126951485D01*
X188241541Y-126951485D02*
X188312969Y-127094342D01*
X188312969Y-127094342D02*
X188312969Y-127308628D01*
X188312969Y-127308628D02*
X188241541Y-127451485D01*
X188241541Y-127451485D02*
X188170112Y-127522914D01*
X188170112Y-127522914D02*
X188027255Y-127594342D01*
X188027255Y-127594342D02*
X187455826Y-127594342D01*
X188955826Y-128308628D02*
X188955826Y-126808628D01*
X190455827Y-126880057D02*
X190312970Y-126808628D01*
X190312970Y-126808628D02*
X190098684Y-126808628D01*
X190098684Y-126808628D02*
X189884398Y-126880057D01*
X189884398Y-126880057D02*
X189741541Y-127022914D01*
X189741541Y-127022914D02*
X189670112Y-127165771D01*
X189670112Y-127165771D02*
X189598684Y-127451485D01*
X189598684Y-127451485D02*
X189598684Y-127665771D01*
X189598684Y-127665771D02*
X189670112Y-127951485D01*
X189670112Y-127951485D02*
X189741541Y-128094342D01*
X189741541Y-128094342D02*
X189884398Y-128237200D01*
X189884398Y-128237200D02*
X190098684Y-128308628D01*
X190098684Y-128308628D02*
X190241541Y-128308628D01*
X190241541Y-128308628D02*
X190455827Y-128237200D01*
X190455827Y-128237200D02*
X190527255Y-128165771D01*
X190527255Y-128165771D02*
X190527255Y-127665771D01*
X190527255Y-127665771D02*
X190241541Y-127665771D01*
X191170112Y-128308628D02*
X191170112Y-126808628D01*
X191170112Y-127522914D02*
X192027255Y-127522914D01*
X192027255Y-128308628D02*
X192027255Y-126808628D01*
X192527256Y-126808628D02*
X193384399Y-126808628D01*
X192955827Y-128308628D02*
X192955827Y-126808628D01*
X132455826Y-128522914D02*
X132670112Y-128594342D01*
X132670112Y-128594342D02*
X132741541Y-128665771D01*
X132741541Y-128665771D02*
X132812969Y-128808628D01*
X132812969Y-128808628D02*
X132812969Y-129022914D01*
X132812969Y-129022914D02*
X132741541Y-129165771D01*
X132741541Y-129165771D02*
X132670112Y-129237200D01*
X132670112Y-129237200D02*
X132527255Y-129308628D01*
X132527255Y-129308628D02*
X131955826Y-129308628D01*
X131955826Y-129308628D02*
X131955826Y-127808628D01*
X131955826Y-127808628D02*
X132455826Y-127808628D01*
X132455826Y-127808628D02*
X132598684Y-127880057D01*
X132598684Y-127880057D02*
X132670112Y-127951485D01*
X132670112Y-127951485D02*
X132741541Y-128094342D01*
X132741541Y-128094342D02*
X132741541Y-128237200D01*
X132741541Y-128237200D02*
X132670112Y-128380057D01*
X132670112Y-128380057D02*
X132598684Y-128451485D01*
X132598684Y-128451485D02*
X132455826Y-128522914D01*
X132455826Y-128522914D02*
X131955826Y-128522914D01*
X122384398Y-121380057D02*
X123098684Y-121380057D01*
X122241541Y-121808628D02*
X122741541Y-120308628D01*
X122741541Y-120308628D02*
X123241541Y-121808628D01*
G36*
X149153772Y-83629508D02*
G01*
X149560620Y-83752881D01*
X149526733Y-83863743D01*
X149483491Y-83957968D01*
X149431476Y-84037729D01*
X149367758Y-84107934D01*
X149295129Y-84165182D01*
X149212665Y-84210286D01*
X149123649Y-84241069D01*
X149014167Y-84261160D01*
X148880190Y-84268447D01*
X148717611Y-84259514D01*
X148585974Y-84234982D01*
X148480028Y-84197555D01*
X148407599Y-84157089D01*
X148339036Y-84103110D01*
X148273890Y-84034135D01*
X148212033Y-83948153D01*
X148164792Y-83857523D01*
X148129583Y-83752747D01*
X148107263Y-83631509D01*
X148099376Y-83491113D01*
X148108465Y-83340002D01*
X148134151Y-83210272D01*
X148174677Y-83098770D01*
X148229166Y-83002835D01*
X148297670Y-82920409D01*
X148379876Y-82851161D01*
X148474883Y-82796301D01*
X148584603Y-82755657D01*
X148711537Y-82729985D01*
X148858666Y-82720924D01*
X149002563Y-82729199D01*
X149122478Y-82752252D01*
X149222186Y-82788019D01*
X149304897Y-82835321D01*
X149378271Y-82897491D01*
X149442926Y-82975243D01*
X149499069Y-83070698D01*
X149546240Y-83186665D01*
X149136370Y-83277798D01*
X149112568Y-83214512D01*
X149091307Y-83177414D01*
X149047762Y-83130057D01*
X148995961Y-83095440D01*
X148937049Y-83074113D01*
X148869931Y-83066772D01*
X148794021Y-83075062D01*
X148729961Y-83098763D01*
X148675158Y-83137636D01*
X148628131Y-83193442D01*
X148595668Y-83259560D01*
X148573200Y-83354813D01*
X148564567Y-83488549D01*
X148570895Y-83619450D01*
X148587469Y-83715104D01*
X148611295Y-83783186D01*
X148640404Y-83830184D01*
X148681493Y-83870103D01*
X148729659Y-83898641D01*
X148786314Y-83916355D01*
X148853537Y-83922599D01*
X148939139Y-83913327D01*
X149004664Y-83887866D01*
X149054854Y-83847586D01*
X149093854Y-83793916D01*
X149127171Y-83722578D01*
X149153772Y-83629508D01*
G37*
G36*
X149788315Y-82744371D02*
G01*
X150252407Y-82744371D01*
X150252407Y-83266074D01*
X150759638Y-83266074D01*
X150759638Y-82744371D01*
X151225928Y-82744371D01*
X151225928Y-84245000D01*
X150759638Y-84245000D01*
X150759638Y-83635369D01*
X150252407Y-83635369D01*
X150252407Y-84245000D01*
X149788315Y-84245000D01*
X149788315Y-82744371D01*
G37*
G36*
X153018274Y-84245000D02*
G01*
X152532567Y-84245000D01*
X152458744Y-83998803D01*
X151930081Y-83998803D01*
X151857266Y-84245000D01*
X151382824Y-84245000D01*
X151596777Y-83676402D01*
X152030464Y-83676402D01*
X152361383Y-83676402D01*
X152195420Y-83134824D01*
X152030464Y-83676402D01*
X151596777Y-83676402D01*
X151947483Y-82744371D01*
X152453615Y-82744371D01*
X153018274Y-84245000D01*
G37*
G36*
X154091399Y-82749354D02*
G01*
X154198521Y-82762444D01*
X154275728Y-82781191D01*
X154346718Y-82812773D01*
X154407399Y-82857933D01*
X154459093Y-82917845D01*
X154497065Y-82987352D01*
X154520562Y-83067553D01*
X154528794Y-83160928D01*
X154522493Y-83242719D01*
X154504479Y-83313929D01*
X154475488Y-83376350D01*
X154435734Y-83432680D01*
X154387186Y-83481449D01*
X154329034Y-83523170D01*
X154263134Y-83554232D01*
X154166093Y-83582521D01*
X154242638Y-83612623D01*
X154286994Y-83638209D01*
X154314276Y-83662956D01*
X154361274Y-83717527D01*
X154426395Y-83811316D01*
X154650793Y-84245000D01*
X154126160Y-84245000D01*
X153878131Y-83785945D01*
X153829229Y-83706558D01*
X153794142Y-83670174D01*
X153740890Y-83644157D01*
X153680386Y-83635369D01*
X153639445Y-83635369D01*
X153639445Y-84245000D01*
X153173155Y-84245000D01*
X153173155Y-83354002D01*
X153639445Y-83354002D01*
X153835175Y-83354002D01*
X153958090Y-83333577D01*
X153999866Y-83317233D01*
X154033378Y-83286499D01*
X154055242Y-83246002D01*
X154062595Y-83199579D01*
X154057049Y-83153287D01*
X154041555Y-83116912D01*
X154016434Y-83088113D01*
X153982852Y-83068789D01*
X153928087Y-83054793D01*
X153843326Y-83049187D01*
X153639445Y-83049187D01*
X153639445Y-83354002D01*
X153173155Y-83354002D01*
X153173155Y-82744371D01*
X153946824Y-82744371D01*
X154091399Y-82749354D01*
G37*
G36*
X155516604Y-83699849D02*
G01*
X155516604Y-83389173D01*
X156233945Y-83389173D01*
X156233945Y-84027104D01*
X156092777Y-84115849D01*
X155972287Y-84177917D01*
X155869596Y-84217889D01*
X155762924Y-84244942D01*
X155638633Y-84262283D01*
X155494164Y-84268447D01*
X155358275Y-84261958D01*
X155242012Y-84243719D01*
X155142734Y-84215248D01*
X155058099Y-84177588D01*
X154978914Y-84126873D01*
X154909395Y-84065459D01*
X154848790Y-83992609D01*
X154796789Y-83907120D01*
X154746173Y-83784213D01*
X154714928Y-83647585D01*
X154704099Y-83494685D01*
X154710889Y-83372155D01*
X154730510Y-83261225D01*
X154762161Y-83160434D01*
X154805491Y-83068512D01*
X154861963Y-82983582D01*
X154929708Y-82909911D01*
X155009518Y-82846625D01*
X155102704Y-82793373D01*
X155207189Y-82755503D01*
X155341857Y-82730254D01*
X155513581Y-82720924D01*
X155681087Y-82727114D01*
X155801854Y-82743186D01*
X155886082Y-82765895D01*
X155964510Y-82801775D01*
X156032406Y-82848116D01*
X156090971Y-82905297D01*
X156139448Y-82971666D01*
X156180404Y-83050857D01*
X156213428Y-83144808D01*
X155765640Y-83225041D01*
X155742301Y-83171486D01*
X155711126Y-83128466D01*
X155671851Y-83094433D01*
X155625785Y-83070081D01*
X155570334Y-83054682D01*
X155503323Y-83049187D01*
X155428817Y-83056192D01*
X155364673Y-83076253D01*
X155308851Y-83108886D01*
X155259965Y-83154883D01*
X155223414Y-83209275D01*
X155195064Y-83280296D01*
X155176238Y-83371959D01*
X155169290Y-83489098D01*
X155176490Y-83614337D01*
X155195792Y-83710173D01*
X155224478Y-83782480D01*
X155260973Y-83836137D01*
X155310166Y-83880825D01*
X155367915Y-83913014D01*
X155435925Y-83933093D01*
X155516604Y-83940184D01*
X155593170Y-83934506D01*
X155665164Y-83917745D01*
X155737182Y-83889089D01*
X155827097Y-83840991D01*
X155827097Y-83699849D01*
X155516604Y-83699849D01*
G37*
G36*
X156508718Y-82744371D02*
G01*
X157752708Y-82744371D01*
X157752708Y-83066772D01*
X156973909Y-83066772D01*
X156973909Y-83307107D01*
X157696288Y-83307107D01*
X157696288Y-83611922D01*
X156973909Y-83611922D01*
X156973909Y-83905013D01*
X157775239Y-83905013D01*
X157775239Y-84245000D01*
X156508718Y-84245000D01*
X156508718Y-82744371D01*
G37*
G36*
X158949389Y-82749354D02*
G01*
X159056511Y-82762444D01*
X159133718Y-82781191D01*
X159204709Y-82812773D01*
X159265389Y-82857933D01*
X159317083Y-82917845D01*
X159355055Y-82987352D01*
X159378552Y-83067553D01*
X159386784Y-83160928D01*
X159380483Y-83242719D01*
X159362469Y-83313929D01*
X159333478Y-83376350D01*
X159293725Y-83432680D01*
X159245176Y-83481449D01*
X159187024Y-83523170D01*
X159121125Y-83554232D01*
X159024084Y-83582521D01*
X159100628Y-83612623D01*
X159144984Y-83638209D01*
X159172266Y-83662956D01*
X159219264Y-83717527D01*
X159284385Y-83811316D01*
X159508784Y-84245000D01*
X158984150Y-84245000D01*
X158736121Y-83785945D01*
X158687219Y-83706558D01*
X158652132Y-83670174D01*
X158598880Y-83644157D01*
X158538376Y-83635369D01*
X158497435Y-83635369D01*
X158497435Y-84245000D01*
X158031145Y-84245000D01*
X158031145Y-83354002D01*
X158497435Y-83354002D01*
X158693165Y-83354002D01*
X158816080Y-83333577D01*
X158857856Y-83317233D01*
X158891368Y-83286499D01*
X158913232Y-83246002D01*
X158920586Y-83199579D01*
X158915039Y-83153287D01*
X158899545Y-83116912D01*
X158874424Y-83088113D01*
X158840843Y-83068789D01*
X158786077Y-83054793D01*
X158701317Y-83049187D01*
X158497435Y-83049187D01*
X158497435Y-83354002D01*
X158031145Y-83354002D01*
X158031145Y-82744371D01*
X158804815Y-82744371D01*
X158949389Y-82749354D01*
G37*
G36*
X161356633Y-83629508D02*
G01*
X161763481Y-83752881D01*
X161729594Y-83863743D01*
X161686352Y-83957968D01*
X161634337Y-84037729D01*
X161570619Y-84107934D01*
X161497990Y-84165182D01*
X161415526Y-84210286D01*
X161326510Y-84241069D01*
X161217028Y-84261160D01*
X161083051Y-84268447D01*
X160920472Y-84259514D01*
X160788835Y-84234982D01*
X160682889Y-84197555D01*
X160610460Y-84157089D01*
X160541897Y-84103110D01*
X160476751Y-84034135D01*
X160414894Y-83948153D01*
X160367654Y-83857523D01*
X160332444Y-83752747D01*
X160310124Y-83631509D01*
X160302237Y-83491113D01*
X160311326Y-83340002D01*
X160337012Y-83210272D01*
X160377538Y-83098770D01*
X160432027Y-83002835D01*
X160500532Y-82920409D01*
X160582737Y-82851161D01*
X160677744Y-82796301D01*
X160787464Y-82755657D01*
X160914398Y-82729985D01*
X161061527Y-82720924D01*
X161205424Y-82729199D01*
X161325339Y-82752252D01*
X161425048Y-82788019D01*
X161507759Y-82835321D01*
X161581132Y-82897491D01*
X161645787Y-82975243D01*
X161701930Y-83070698D01*
X161749101Y-83186665D01*
X161339231Y-83277798D01*
X161315429Y-83214512D01*
X161294168Y-83177414D01*
X161250623Y-83130057D01*
X161198822Y-83095440D01*
X161139910Y-83074113D01*
X161072793Y-83066772D01*
X160996882Y-83075062D01*
X160932822Y-83098763D01*
X160878020Y-83137636D01*
X160830992Y-83193442D01*
X160798529Y-83259560D01*
X160776061Y-83354813D01*
X160767428Y-83488549D01*
X160773756Y-83619450D01*
X160790330Y-83715104D01*
X160814156Y-83783186D01*
X160843265Y-83830184D01*
X160884354Y-83870103D01*
X160932520Y-83898641D01*
X160989175Y-83916355D01*
X161056398Y-83922599D01*
X161142000Y-83913327D01*
X161207525Y-83887866D01*
X161257715Y-83847586D01*
X161296715Y-83793916D01*
X161330032Y-83722578D01*
X161356633Y-83629508D01*
G37*
G36*
X162683852Y-83137192D02*
G01*
X162806703Y-83152318D01*
X162880028Y-83171992D01*
X162942697Y-83201281D01*
X162996297Y-83239971D01*
X163042634Y-83293724D01*
X163080286Y-83370763D01*
X163103664Y-83454977D01*
X163111060Y-83532238D01*
X163111060Y-84013183D01*
X163113839Y-84085964D01*
X163120769Y-84133716D01*
X163134905Y-84179606D01*
X163163359Y-84245000D01*
X162771898Y-84245000D01*
X162741124Y-84179695D01*
X162726836Y-84109170D01*
X162642346Y-84179370D01*
X162563895Y-84222926D01*
X162488813Y-84247548D01*
X162403608Y-84263022D01*
X162306707Y-84268447D01*
X162208418Y-84261881D01*
X162128465Y-84243727D01*
X162063585Y-84215661D01*
X162011143Y-84178413D01*
X161966384Y-84129927D01*
X161935284Y-84077448D01*
X161916600Y-84020023D01*
X161910210Y-83956213D01*
X161913665Y-83923973D01*
X162328231Y-83923973D01*
X162336929Y-83968261D01*
X162362578Y-84003199D01*
X162402558Y-84025516D01*
X162463511Y-84033974D01*
X162530899Y-84025627D01*
X162593113Y-84000726D01*
X162645667Y-83962507D01*
X162678201Y-83919485D01*
X162696439Y-83867122D01*
X162703297Y-83794738D01*
X162703297Y-83729159D01*
X162523961Y-83782648D01*
X162409864Y-83820094D01*
X162363036Y-83848227D01*
X162336645Y-83884464D01*
X162328231Y-83923973D01*
X161913665Y-83923973D01*
X161918756Y-83876477D01*
X161943124Y-83809496D01*
X161982933Y-83752514D01*
X162037280Y-83708570D01*
X162123082Y-83668335D01*
X162251386Y-83633812D01*
X162555744Y-83567775D01*
X162703297Y-83518133D01*
X162694098Y-83447643D01*
X162671515Y-83408773D01*
X162632032Y-83386562D01*
X162559865Y-83377449D01*
X162464917Y-83386826D01*
X162406175Y-83410239D01*
X162371978Y-83444204D01*
X162341604Y-83506409D01*
X161942999Y-83465376D01*
X161972139Y-83368257D01*
X162008029Y-83301428D01*
X162058267Y-83247006D01*
X162130486Y-83197656D01*
X162194081Y-83171003D01*
X162288298Y-83148654D01*
X162390884Y-83135758D01*
X162505552Y-83131252D01*
X162683852Y-83137192D01*
G37*
G36*
X163365042Y-83154699D02*
G01*
X163755403Y-83154699D01*
X163755403Y-83332844D01*
X163797198Y-83258145D01*
X163835862Y-83207192D01*
X163871724Y-83174575D01*
X163913652Y-83151007D01*
X163962476Y-83136390D01*
X164019827Y-83131252D01*
X164080150Y-83136921D01*
X164146950Y-83154966D01*
X164221693Y-83187489D01*
X164092550Y-83484519D01*
X164021757Y-83460157D01*
X163975771Y-83453653D01*
X163924739Y-83461352D01*
X163883193Y-83483569D01*
X163848735Y-83521522D01*
X163817094Y-83589745D01*
X163793637Y-83702780D01*
X163784163Y-83879093D01*
X163784163Y-84245000D01*
X163365042Y-84245000D01*
X163365042Y-83154699D01*
G37*
G36*
X165489863Y-84245000D02*
G01*
X165099411Y-84245000D01*
X165099411Y-84083799D01*
X165015706Y-84174091D01*
X164949842Y-84221552D01*
X164888189Y-84247359D01*
X164821578Y-84263069D01*
X164748983Y-84268447D01*
X164661405Y-84261198D01*
X164585451Y-84240464D01*
X164519044Y-84206989D01*
X164460644Y-84160443D01*
X164409364Y-84099461D01*
X164359121Y-84012682D01*
X164322574Y-83916379D01*
X164299909Y-83808979D01*
X164293167Y-83705894D01*
X164709050Y-83705894D01*
X164715798Y-83793823D01*
X164733533Y-83857011D01*
X164759699Y-83901533D01*
X164796971Y-83936570D01*
X164838270Y-83956797D01*
X164885271Y-83963632D01*
X164935712Y-83956639D01*
X164979503Y-83936118D01*
X165018444Y-83900983D01*
X165045829Y-83855820D01*
X165064559Y-83790067D01*
X165071750Y-83696644D01*
X165064692Y-83612550D01*
X165045855Y-83550446D01*
X165017437Y-83505127D01*
X164977714Y-83469801D01*
X164932583Y-83449039D01*
X164880142Y-83441929D01*
X164834490Y-83448599D01*
X164794399Y-83468342D01*
X164758234Y-83502562D01*
X164733229Y-83546094D01*
X164715816Y-83611286D01*
X164709050Y-83705894D01*
X164293167Y-83705894D01*
X164292035Y-83688584D01*
X164301389Y-83552428D01*
X164327359Y-83440801D01*
X164367731Y-83349375D01*
X164421637Y-83274684D01*
X164491165Y-83211686D01*
X164568086Y-83167422D01*
X164653961Y-83140533D01*
X164751090Y-83131252D01*
X164845332Y-83139682D01*
X164927861Y-83163950D01*
X165002404Y-83204560D01*
X165068728Y-83262044D01*
X165068728Y-82744371D01*
X165489863Y-82744371D01*
X165489863Y-84245000D01*
G37*
G36*
X167348613Y-82720924D02*
G01*
X167348613Y-84245000D01*
X166926469Y-84245000D01*
X166926469Y-83248580D01*
X166823292Y-83320064D01*
X166728175Y-83373785D01*
X166625571Y-83418526D01*
X166487840Y-83465376D01*
X166487840Y-83125390D01*
X166627651Y-83072709D01*
X166736241Y-83017223D01*
X166818850Y-82959702D01*
X166891544Y-82890397D01*
X166952866Y-82811134D01*
X167003314Y-82720924D01*
X167348613Y-82720924D01*
G37*
G36*
X167843296Y-83828810D02*
G01*
X168289070Y-83828810D01*
X168289070Y-84245000D01*
X167843296Y-84245000D01*
X167843296Y-83828810D01*
G37*
G36*
X169226436Y-82725644D02*
G01*
X169308392Y-82738581D01*
X169374332Y-82758202D01*
X169464675Y-82802291D01*
X169533151Y-82855197D01*
X169588958Y-82917527D01*
X169629963Y-82980768D01*
X169661156Y-83050158D01*
X169686841Y-83134366D01*
X169718242Y-83304274D01*
X169728881Y-83483420D01*
X169721864Y-83655828D01*
X169702545Y-83797299D01*
X169673176Y-83912427D01*
X169635482Y-84005331D01*
X169590579Y-84079586D01*
X169531538Y-84143902D01*
X169457521Y-84195350D01*
X169365889Y-84234196D01*
X169252938Y-84259348D01*
X169114122Y-84268447D01*
X168988556Y-84260846D01*
X168887927Y-84240028D01*
X168807750Y-84208271D01*
X168734971Y-84162172D01*
X168671339Y-84103676D01*
X168616141Y-84031592D01*
X168584716Y-83974384D01*
X168556248Y-83900187D01*
X168531603Y-83805546D01*
X168509267Y-83658035D01*
X168501378Y-83488549D01*
X168501435Y-83487267D01*
X168915369Y-83487267D01*
X168922912Y-83680469D01*
X168941484Y-83803643D01*
X168966019Y-83876895D01*
X168996098Y-83924839D01*
X169030094Y-83956482D01*
X169068545Y-83974927D01*
X169113114Y-83981217D01*
X169172286Y-83970193D01*
X169223207Y-83936979D01*
X169249724Y-83904587D01*
X169272838Y-83859066D01*
X169291809Y-83796936D01*
X169307313Y-83687792D01*
X169313882Y-83498532D01*
X169306204Y-83296678D01*
X169287494Y-83171058D01*
X169263141Y-83098829D01*
X169233204Y-83052311D01*
X169198515Y-83021186D01*
X169158393Y-83002779D01*
X169111008Y-82996430D01*
X169062812Y-83002977D01*
X169022967Y-83021805D01*
X168989408Y-83053488D01*
X168961440Y-83100844D01*
X168939130Y-83173769D01*
X168922227Y-83296057D01*
X168915369Y-83487267D01*
X168501435Y-83487267D01*
X168509447Y-83306701D01*
X168531386Y-83161883D01*
X168564301Y-83047888D01*
X168606077Y-82959250D01*
X168655525Y-82891375D01*
X168719804Y-82832875D01*
X168796588Y-82786182D01*
X168887904Y-82751232D01*
X168996432Y-82728895D01*
X169125388Y-82720924D01*
X169226436Y-82725644D01*
G37*
X113799819Y-120083094D02*
X112799819Y-120083094D01*
X112799819Y-120083094D02*
X112799819Y-119844999D01*
X112799819Y-119844999D02*
X112847438Y-119702142D01*
X112847438Y-119702142D02*
X112942676Y-119606904D01*
X112942676Y-119606904D02*
X113037914Y-119559285D01*
X113037914Y-119559285D02*
X113228390Y-119511666D01*
X113228390Y-119511666D02*
X113371247Y-119511666D01*
X113371247Y-119511666D02*
X113561723Y-119559285D01*
X113561723Y-119559285D02*
X113656961Y-119606904D01*
X113656961Y-119606904D02*
X113752200Y-119702142D01*
X113752200Y-119702142D02*
X113799819Y-119844999D01*
X113799819Y-119844999D02*
X113799819Y-120083094D01*
X113799819Y-118559285D02*
X113799819Y-119130713D01*
X113799819Y-118844999D02*
X112799819Y-118844999D01*
X112799819Y-118844999D02*
X112942676Y-118940237D01*
X112942676Y-118940237D02*
X113037914Y-119035475D01*
X113037914Y-119035475D02*
X113085533Y-119130713D01*
X117859580Y-119666666D02*
X117907200Y-119714285D01*
X117907200Y-119714285D02*
X117954819Y-119857142D01*
X117954819Y-119857142D02*
X117954819Y-119952380D01*
X117954819Y-119952380D02*
X117907200Y-120095237D01*
X117907200Y-120095237D02*
X117811961Y-120190475D01*
X117811961Y-120190475D02*
X117716723Y-120238094D01*
X117716723Y-120238094D02*
X117526247Y-120285713D01*
X117526247Y-120285713D02*
X117383390Y-120285713D01*
X117383390Y-120285713D02*
X117192914Y-120238094D01*
X117192914Y-120238094D02*
X117097676Y-120190475D01*
X117097676Y-120190475D02*
X117002438Y-120095237D01*
X117002438Y-120095237D02*
X116954819Y-119952380D01*
X116954819Y-119952380D02*
X116954819Y-119857142D01*
X116954819Y-119857142D02*
X117002438Y-119714285D01*
X117002438Y-119714285D02*
X117050057Y-119666666D01*
X116954819Y-118809523D02*
X116954819Y-118999999D01*
X116954819Y-118999999D02*
X117002438Y-119095237D01*
X117002438Y-119095237D02*
X117050057Y-119142856D01*
X117050057Y-119142856D02*
X117192914Y-119238094D01*
X117192914Y-119238094D02*
X117383390Y-119285713D01*
X117383390Y-119285713D02*
X117764342Y-119285713D01*
X117764342Y-119285713D02*
X117859580Y-119238094D01*
X117859580Y-119238094D02*
X117907200Y-119190475D01*
X117907200Y-119190475D02*
X117954819Y-119095237D01*
X117954819Y-119095237D02*
X117954819Y-118904761D01*
X117954819Y-118904761D02*
X117907200Y-118809523D01*
X117907200Y-118809523D02*
X117859580Y-118761904D01*
X117859580Y-118761904D02*
X117764342Y-118714285D01*
X117764342Y-118714285D02*
X117526247Y-118714285D01*
X117526247Y-118714285D02*
X117431009Y-118761904D01*
X117431009Y-118761904D02*
X117383390Y-118809523D01*
X117383390Y-118809523D02*
X117335771Y-118904761D01*
X117335771Y-118904761D02*
X117335771Y-119095237D01*
X117335771Y-119095237D02*
X117383390Y-119190475D01*
X117383390Y-119190475D02*
X117431009Y-119238094D01*
X117431009Y-119238094D02*
X117526247Y-119285713D01*
X166333333Y-133359580D02*
X166285714Y-133407200D01*
X166285714Y-133407200D02*
X166142857Y-133454819D01*
X166142857Y-133454819D02*
X166047619Y-133454819D01*
X166047619Y-133454819D02*
X165904762Y-133407200D01*
X165904762Y-133407200D02*
X165809524Y-133311961D01*
X165809524Y-133311961D02*
X165761905Y-133216723D01*
X165761905Y-133216723D02*
X165714286Y-133026247D01*
X165714286Y-133026247D02*
X165714286Y-132883390D01*
X165714286Y-132883390D02*
X165761905Y-132692914D01*
X165761905Y-132692914D02*
X165809524Y-132597676D01*
X165809524Y-132597676D02*
X165904762Y-132502438D01*
X165904762Y-132502438D02*
X166047619Y-132454819D01*
X166047619Y-132454819D02*
X166142857Y-132454819D01*
X166142857Y-132454819D02*
X166285714Y-132502438D01*
X166285714Y-132502438D02*
X166333333Y-132550057D01*
X167238095Y-132454819D02*
X166761905Y-132454819D01*
X166761905Y-132454819D02*
X166714286Y-132931009D01*
X166714286Y-132931009D02*
X166761905Y-132883390D01*
X166761905Y-132883390D02*
X166857143Y-132835771D01*
X166857143Y-132835771D02*
X167095238Y-132835771D01*
X167095238Y-132835771D02*
X167190476Y-132883390D01*
X167190476Y-132883390D02*
X167238095Y-132931009D01*
X167238095Y-132931009D02*
X167285714Y-133026247D01*
X167285714Y-133026247D02*
X167285714Y-133264342D01*
X167285714Y-133264342D02*
X167238095Y-133359580D01*
X167238095Y-133359580D02*
X167190476Y-133407200D01*
X167190476Y-133407200D02*
X167095238Y-133454819D01*
X167095238Y-133454819D02*
X166857143Y-133454819D01*
X166857143Y-133454819D02*
X166761905Y-133407200D01*
X166761905Y-133407200D02*
X166714286Y-133359580D01*
X185653246Y-105025498D02*
X184946140Y-104318391D01*
X184946140Y-104318391D02*
X185114498Y-104150032D01*
X185114498Y-104150032D02*
X185249185Y-104082689D01*
X185249185Y-104082689D02*
X185383872Y-104082689D01*
X185383872Y-104082689D02*
X185484888Y-104116361D01*
X185484888Y-104116361D02*
X185653246Y-104217376D01*
X185653246Y-104217376D02*
X185754262Y-104318391D01*
X185754262Y-104318391D02*
X185855277Y-104486750D01*
X185855277Y-104486750D02*
X185888949Y-104587765D01*
X185888949Y-104587765D02*
X185888949Y-104722452D01*
X185888949Y-104722452D02*
X185821605Y-104857139D01*
X185821605Y-104857139D02*
X185653246Y-105025498D01*
X185585903Y-103678628D02*
X186023636Y-103240895D01*
X186023636Y-103240895D02*
X186057307Y-103745971D01*
X186057307Y-103745971D02*
X186158323Y-103644956D01*
X186158323Y-103644956D02*
X186259338Y-103611284D01*
X186259338Y-103611284D02*
X186326681Y-103611284D01*
X186326681Y-103611284D02*
X186427697Y-103644956D01*
X186427697Y-103644956D02*
X186596055Y-103813315D01*
X186596055Y-103813315D02*
X186629727Y-103914330D01*
X186629727Y-103914330D02*
X186629727Y-103981674D01*
X186629727Y-103981674D02*
X186596055Y-104082689D01*
X186596055Y-104082689D02*
X186394025Y-104284719D01*
X186394025Y-104284719D02*
X186293010Y-104318391D01*
X186293010Y-104318391D02*
X186225666Y-104318391D01*
X164333333Y-130954819D02*
X164000000Y-130478628D01*
X163761905Y-130954819D02*
X163761905Y-129954819D01*
X163761905Y-129954819D02*
X164142857Y-129954819D01*
X164142857Y-129954819D02*
X164238095Y-130002438D01*
X164238095Y-130002438D02*
X164285714Y-130050057D01*
X164285714Y-130050057D02*
X164333333Y-130145295D01*
X164333333Y-130145295D02*
X164333333Y-130288152D01*
X164333333Y-130288152D02*
X164285714Y-130383390D01*
X164285714Y-130383390D02*
X164238095Y-130431009D01*
X164238095Y-130431009D02*
X164142857Y-130478628D01*
X164142857Y-130478628D02*
X163761905Y-130478628D01*
X165238095Y-129954819D02*
X164761905Y-129954819D01*
X164761905Y-129954819D02*
X164714286Y-130431009D01*
X164714286Y-130431009D02*
X164761905Y-130383390D01*
X164761905Y-130383390D02*
X164857143Y-130335771D01*
X164857143Y-130335771D02*
X165095238Y-130335771D01*
X165095238Y-130335771D02*
X165190476Y-130383390D01*
X165190476Y-130383390D02*
X165238095Y-130431009D01*
X165238095Y-130431009D02*
X165285714Y-130526247D01*
X165285714Y-130526247D02*
X165285714Y-130764342D01*
X165285714Y-130764342D02*
X165238095Y-130859580D01*
X165238095Y-130859580D02*
X165190476Y-130907200D01*
X165190476Y-130907200D02*
X165095238Y-130954819D01*
X165095238Y-130954819D02*
X164857143Y-130954819D01*
X164857143Y-130954819D02*
X164761905Y-130907200D01*
X164761905Y-130907200D02*
X164714286Y-130859580D01*
X114166667Y-124207200D02*
X114309524Y-124254819D01*
X114309524Y-124254819D02*
X114547619Y-124254819D01*
X114547619Y-124254819D02*
X114642857Y-124207200D01*
X114642857Y-124207200D02*
X114690476Y-124159580D01*
X114690476Y-124159580D02*
X114738095Y-124064342D01*
X114738095Y-124064342D02*
X114738095Y-123969104D01*
X114738095Y-123969104D02*
X114690476Y-123873866D01*
X114690476Y-123873866D02*
X114642857Y-123826247D01*
X114642857Y-123826247D02*
X114547619Y-123778628D01*
X114547619Y-123778628D02*
X114357143Y-123731009D01*
X114357143Y-123731009D02*
X114261905Y-123683390D01*
X114261905Y-123683390D02*
X114214286Y-123635771D01*
X114214286Y-123635771D02*
X114166667Y-123540533D01*
X114166667Y-123540533D02*
X114166667Y-123445295D01*
X114166667Y-123445295D02*
X114214286Y-123350057D01*
X114214286Y-123350057D02*
X114261905Y-123302438D01*
X114261905Y-123302438D02*
X114357143Y-123254819D01*
X114357143Y-123254819D02*
X114595238Y-123254819D01*
X114595238Y-123254819D02*
X114738095Y-123302438D01*
X115071429Y-123254819D02*
X115309524Y-124254819D01*
X115309524Y-124254819D02*
X115500000Y-123540533D01*
X115500000Y-123540533D02*
X115690476Y-124254819D01*
X115690476Y-124254819D02*
X115928572Y-123254819D01*
X116833333Y-124254819D02*
X116261905Y-124254819D01*
X116547619Y-124254819D02*
X116547619Y-123254819D01*
X116547619Y-123254819D02*
X116452381Y-123397676D01*
X116452381Y-123397676D02*
X116357143Y-123492914D01*
X116357143Y-123492914D02*
X116261905Y-123540533D01*
X115954819Y-119486666D02*
X115478628Y-119819999D01*
X115954819Y-120058094D02*
X114954819Y-120058094D01*
X114954819Y-120058094D02*
X114954819Y-119677142D01*
X114954819Y-119677142D02*
X115002438Y-119581904D01*
X115002438Y-119581904D02*
X115050057Y-119534285D01*
X115050057Y-119534285D02*
X115145295Y-119486666D01*
X115145295Y-119486666D02*
X115288152Y-119486666D01*
X115288152Y-119486666D02*
X115383390Y-119534285D01*
X115383390Y-119534285D02*
X115431009Y-119581904D01*
X115431009Y-119581904D02*
X115478628Y-119677142D01*
X115478628Y-119677142D02*
X115478628Y-120058094D01*
X114954819Y-119153332D02*
X114954819Y-118534285D01*
X114954819Y-118534285D02*
X115335771Y-118867618D01*
X115335771Y-118867618D02*
X115335771Y-118724761D01*
X115335771Y-118724761D02*
X115383390Y-118629523D01*
X115383390Y-118629523D02*
X115431009Y-118581904D01*
X115431009Y-118581904D02*
X115526247Y-118534285D01*
X115526247Y-118534285D02*
X115764342Y-118534285D01*
X115764342Y-118534285D02*
X115859580Y-118581904D01*
X115859580Y-118581904D02*
X115907200Y-118629523D01*
X115907200Y-118629523D02*
X115954819Y-118724761D01*
X115954819Y-118724761D02*
X115954819Y-119010475D01*
X115954819Y-119010475D02*
X115907200Y-119105713D01*
X115907200Y-119105713D02*
X115859580Y-119153332D01*
X162333333Y-135359580D02*
X162285714Y-135407200D01*
X162285714Y-135407200D02*
X162142857Y-135454819D01*
X162142857Y-135454819D02*
X162047619Y-135454819D01*
X162047619Y-135454819D02*
X161904762Y-135407200D01*
X161904762Y-135407200D02*
X161809524Y-135311961D01*
X161809524Y-135311961D02*
X161761905Y-135216723D01*
X161761905Y-135216723D02*
X161714286Y-135026247D01*
X161714286Y-135026247D02*
X161714286Y-134883390D01*
X161714286Y-134883390D02*
X161761905Y-134692914D01*
X161761905Y-134692914D02*
X161809524Y-134597676D01*
X161809524Y-134597676D02*
X161904762Y-134502438D01*
X161904762Y-134502438D02*
X162047619Y-134454819D01*
X162047619Y-134454819D02*
X162142857Y-134454819D01*
X162142857Y-134454819D02*
X162285714Y-134502438D01*
X162285714Y-134502438D02*
X162333333Y-134550057D01*
X162714286Y-134550057D02*
X162761905Y-134502438D01*
X162761905Y-134502438D02*
X162857143Y-134454819D01*
X162857143Y-134454819D02*
X163095238Y-134454819D01*
X163095238Y-134454819D02*
X163190476Y-134502438D01*
X163190476Y-134502438D02*
X163238095Y-134550057D01*
X163238095Y-134550057D02*
X163285714Y-134645295D01*
X163285714Y-134645295D02*
X163285714Y-134740533D01*
X163285714Y-134740533D02*
X163238095Y-134883390D01*
X163238095Y-134883390D02*
X162666667Y-135454819D01*
X162666667Y-135454819D02*
X163285714Y-135454819D01*
X172968472Y-106654636D02*
X173540892Y-107227056D01*
X173540892Y-107227056D02*
X173641907Y-107260728D01*
X173641907Y-107260728D02*
X173709251Y-107260728D01*
X173709251Y-107260728D02*
X173810266Y-107227056D01*
X173810266Y-107227056D02*
X173944953Y-107092369D01*
X173944953Y-107092369D02*
X173978625Y-106991354D01*
X173978625Y-106991354D02*
X173978625Y-106924010D01*
X173978625Y-106924010D02*
X173944953Y-106822995D01*
X173944953Y-106822995D02*
X173372533Y-106250575D01*
X173742923Y-106014873D02*
X173742923Y-105947530D01*
X173742923Y-105947530D02*
X173776594Y-105846514D01*
X173776594Y-105846514D02*
X173944953Y-105678156D01*
X173944953Y-105678156D02*
X174045968Y-105644484D01*
X174045968Y-105644484D02*
X174113312Y-105644484D01*
X174113312Y-105644484D02*
X174214327Y-105678156D01*
X174214327Y-105678156D02*
X174281671Y-105745499D01*
X174281671Y-105745499D02*
X174349014Y-105880186D01*
X174349014Y-105880186D02*
X174349014Y-106688308D01*
X174349014Y-106688308D02*
X174786747Y-106250575D01*
X181153246Y-100525498D02*
X180446140Y-99818391D01*
X180446140Y-99818391D02*
X180614498Y-99650032D01*
X180614498Y-99650032D02*
X180749185Y-99582689D01*
X180749185Y-99582689D02*
X180883872Y-99582689D01*
X180883872Y-99582689D02*
X180984888Y-99616361D01*
X180984888Y-99616361D02*
X181153246Y-99717376D01*
X181153246Y-99717376D02*
X181254262Y-99818391D01*
X181254262Y-99818391D02*
X181355277Y-99986750D01*
X181355277Y-99986750D02*
X181388949Y-100087765D01*
X181388949Y-100087765D02*
X181388949Y-100222452D01*
X181388949Y-100222452D02*
X181321605Y-100357139D01*
X181321605Y-100357139D02*
X181153246Y-100525498D01*
X181691994Y-99043941D02*
X182163399Y-99515345D01*
X181254262Y-98942926D02*
X181590979Y-99616361D01*
X181590979Y-99616361D02*
X182028712Y-99178628D01*
X176653246Y-96025498D02*
X175946140Y-95318391D01*
X175946140Y-95318391D02*
X176114498Y-95150032D01*
X176114498Y-95150032D02*
X176249185Y-95082689D01*
X176249185Y-95082689D02*
X176383872Y-95082689D01*
X176383872Y-95082689D02*
X176484888Y-95116361D01*
X176484888Y-95116361D02*
X176653246Y-95217376D01*
X176653246Y-95217376D02*
X176754262Y-95318391D01*
X176754262Y-95318391D02*
X176855277Y-95486750D01*
X176855277Y-95486750D02*
X176888949Y-95587765D01*
X176888949Y-95587765D02*
X176888949Y-95722452D01*
X176888949Y-95722452D02*
X176821605Y-95857139D01*
X176821605Y-95857139D02*
X176653246Y-96025498D01*
X176686918Y-94712300D02*
X176686918Y-94644956D01*
X176686918Y-94644956D02*
X176720590Y-94543941D01*
X176720590Y-94543941D02*
X176888949Y-94375582D01*
X176888949Y-94375582D02*
X176989964Y-94341910D01*
X176989964Y-94341910D02*
X177057307Y-94341910D01*
X177057307Y-94341910D02*
X177158323Y-94375582D01*
X177158323Y-94375582D02*
X177225666Y-94442926D01*
X177225666Y-94442926D02*
X177293010Y-94577613D01*
X177293010Y-94577613D02*
X177293010Y-95385735D01*
X177293010Y-95385735D02*
X177730742Y-94948002D01*
X114066667Y-131707200D02*
X114209524Y-131754819D01*
X114209524Y-131754819D02*
X114447619Y-131754819D01*
X114447619Y-131754819D02*
X114542857Y-131707200D01*
X114542857Y-131707200D02*
X114590476Y-131659580D01*
X114590476Y-131659580D02*
X114638095Y-131564342D01*
X114638095Y-131564342D02*
X114638095Y-131469104D01*
X114638095Y-131469104D02*
X114590476Y-131373866D01*
X114590476Y-131373866D02*
X114542857Y-131326247D01*
X114542857Y-131326247D02*
X114447619Y-131278628D01*
X114447619Y-131278628D02*
X114257143Y-131231009D01*
X114257143Y-131231009D02*
X114161905Y-131183390D01*
X114161905Y-131183390D02*
X114114286Y-131135771D01*
X114114286Y-131135771D02*
X114066667Y-131040533D01*
X114066667Y-131040533D02*
X114066667Y-130945295D01*
X114066667Y-130945295D02*
X114114286Y-130850057D01*
X114114286Y-130850057D02*
X114161905Y-130802438D01*
X114161905Y-130802438D02*
X114257143Y-130754819D01*
X114257143Y-130754819D02*
X114495238Y-130754819D01*
X114495238Y-130754819D02*
X114638095Y-130802438D01*
X114971429Y-130754819D02*
X115209524Y-131754819D01*
X115209524Y-131754819D02*
X115400000Y-131040533D01*
X115400000Y-131040533D02*
X115590476Y-131754819D01*
X115590476Y-131754819D02*
X115828572Y-130754819D01*
X116638095Y-131088152D02*
X116638095Y-131754819D01*
X116400000Y-130707200D02*
X116161905Y-131421485D01*
X116161905Y-131421485D02*
X116780952Y-131421485D01*
X162238095Y-114454819D02*
X162238095Y-115264342D01*
X162238095Y-115264342D02*
X162285714Y-115359580D01*
X162285714Y-115359580D02*
X162333333Y-115407200D01*
X162333333Y-115407200D02*
X162428571Y-115454819D01*
X162428571Y-115454819D02*
X162619047Y-115454819D01*
X162619047Y-115454819D02*
X162714285Y-115407200D01*
X162714285Y-115407200D02*
X162761904Y-115359580D01*
X162761904Y-115359580D02*
X162809523Y-115264342D01*
X162809523Y-115264342D02*
X162809523Y-114454819D01*
X163714285Y-114788152D02*
X163714285Y-115454819D01*
X163476190Y-114407200D02*
X163238095Y-115121485D01*
X163238095Y-115121485D02*
X163857142Y-115121485D01*
X174385425Y-102878873D02*
X174318081Y-102878873D01*
X174318081Y-102878873D02*
X174183394Y-102811529D01*
X174183394Y-102811529D02*
X174116051Y-102744186D01*
X174116051Y-102744186D02*
X174048707Y-102609499D01*
X174048707Y-102609499D02*
X174048707Y-102474812D01*
X174048707Y-102474812D02*
X174082379Y-102373797D01*
X174082379Y-102373797D02*
X174183394Y-102205438D01*
X174183394Y-102205438D02*
X174284409Y-102104423D01*
X174284409Y-102104423D02*
X174452768Y-102003407D01*
X174452768Y-102003407D02*
X174553783Y-101969736D01*
X174553783Y-101969736D02*
X174688470Y-101969736D01*
X174688470Y-101969736D02*
X174823157Y-102037079D01*
X174823157Y-102037079D02*
X174890501Y-102104423D01*
X174890501Y-102104423D02*
X174957844Y-102239110D01*
X174957844Y-102239110D02*
X174957844Y-102306453D01*
X174991516Y-103619651D02*
X174587455Y-103215590D01*
X174789486Y-103417621D02*
X175496592Y-102710514D01*
X175496592Y-102710514D02*
X175328234Y-102744186D01*
X175328234Y-102744186D02*
X175193547Y-102744186D01*
X175193547Y-102744186D02*
X175092531Y-102710514D01*
X166833333Y-118454819D02*
X166500000Y-117978628D01*
X166261905Y-118454819D02*
X166261905Y-117454819D01*
X166261905Y-117454819D02*
X166642857Y-117454819D01*
X166642857Y-117454819D02*
X166738095Y-117502438D01*
X166738095Y-117502438D02*
X166785714Y-117550057D01*
X166785714Y-117550057D02*
X166833333Y-117645295D01*
X166833333Y-117645295D02*
X166833333Y-117788152D01*
X166833333Y-117788152D02*
X166785714Y-117883390D01*
X166785714Y-117883390D02*
X166738095Y-117931009D01*
X166738095Y-117931009D02*
X166642857Y-117978628D01*
X166642857Y-117978628D02*
X166261905Y-117978628D01*
X167690476Y-117788152D02*
X167690476Y-118454819D01*
X167452381Y-117407200D02*
X167214286Y-118121485D01*
X167214286Y-118121485D02*
X167833333Y-118121485D01*
X166833333Y-116454819D02*
X166500000Y-115978628D01*
X166261905Y-116454819D02*
X166261905Y-115454819D01*
X166261905Y-115454819D02*
X166642857Y-115454819D01*
X166642857Y-115454819D02*
X166738095Y-115502438D01*
X166738095Y-115502438D02*
X166785714Y-115550057D01*
X166785714Y-115550057D02*
X166833333Y-115645295D01*
X166833333Y-115645295D02*
X166833333Y-115788152D01*
X166833333Y-115788152D02*
X166785714Y-115883390D01*
X166785714Y-115883390D02*
X166738095Y-115931009D01*
X166738095Y-115931009D02*
X166642857Y-115978628D01*
X166642857Y-115978628D02*
X166261905Y-115978628D01*
X167690476Y-115454819D02*
X167500000Y-115454819D01*
X167500000Y-115454819D02*
X167404762Y-115502438D01*
X167404762Y-115502438D02*
X167357143Y-115550057D01*
X167357143Y-115550057D02*
X167261905Y-115692914D01*
X167261905Y-115692914D02*
X167214286Y-115883390D01*
X167214286Y-115883390D02*
X167214286Y-116264342D01*
X167214286Y-116264342D02*
X167261905Y-116359580D01*
X167261905Y-116359580D02*
X167309524Y-116407200D01*
X167309524Y-116407200D02*
X167404762Y-116454819D01*
X167404762Y-116454819D02*
X167595238Y-116454819D01*
X167595238Y-116454819D02*
X167690476Y-116407200D01*
X167690476Y-116407200D02*
X167738095Y-116359580D01*
X167738095Y-116359580D02*
X167785714Y-116264342D01*
X167785714Y-116264342D02*
X167785714Y-116026247D01*
X167785714Y-116026247D02*
X167738095Y-115931009D01*
X167738095Y-115931009D02*
X167690476Y-115883390D01*
X167690476Y-115883390D02*
X167595238Y-115835771D01*
X167595238Y-115835771D02*
X167404762Y-115835771D01*
X167404762Y-115835771D02*
X167309524Y-115883390D01*
X167309524Y-115883390D02*
X167261905Y-115931009D01*
X167261905Y-115931009D02*
X167214286Y-116026247D01*
X111666666Y-82684819D02*
X111666666Y-83399104D01*
X111666666Y-83399104D02*
X111619047Y-83541961D01*
X111619047Y-83541961D02*
X111523809Y-83637200D01*
X111523809Y-83637200D02*
X111380952Y-83684819D01*
X111380952Y-83684819D02*
X111285714Y-83684819D01*
X112619047Y-82684819D02*
X112142857Y-82684819D01*
X112142857Y-82684819D02*
X112095238Y-83161009D01*
X112095238Y-83161009D02*
X112142857Y-83113390D01*
X112142857Y-83113390D02*
X112238095Y-83065771D01*
X112238095Y-83065771D02*
X112476190Y-83065771D01*
X112476190Y-83065771D02*
X112571428Y-83113390D01*
X112571428Y-83113390D02*
X112619047Y-83161009D01*
X112619047Y-83161009D02*
X112666666Y-83256247D01*
X112666666Y-83256247D02*
X112666666Y-83494342D01*
X112666666Y-83494342D02*
X112619047Y-83589580D01*
X112619047Y-83589580D02*
X112571428Y-83637200D01*
X112571428Y-83637200D02*
X112476190Y-83684819D01*
X112476190Y-83684819D02*
X112238095Y-83684819D01*
X112238095Y-83684819D02*
X112142857Y-83637200D01*
X112142857Y-83637200D02*
X112095238Y-83589580D01*
X124409580Y-127166666D02*
X124457200Y-127214285D01*
X124457200Y-127214285D02*
X124504819Y-127357142D01*
X124504819Y-127357142D02*
X124504819Y-127452380D01*
X124504819Y-127452380D02*
X124457200Y-127595237D01*
X124457200Y-127595237D02*
X124361961Y-127690475D01*
X124361961Y-127690475D02*
X124266723Y-127738094D01*
X124266723Y-127738094D02*
X124076247Y-127785713D01*
X124076247Y-127785713D02*
X123933390Y-127785713D01*
X123933390Y-127785713D02*
X123742914Y-127738094D01*
X123742914Y-127738094D02*
X123647676Y-127690475D01*
X123647676Y-127690475D02*
X123552438Y-127595237D01*
X123552438Y-127595237D02*
X123504819Y-127452380D01*
X123504819Y-127452380D02*
X123504819Y-127357142D01*
X123504819Y-127357142D02*
X123552438Y-127214285D01*
X123552438Y-127214285D02*
X123600057Y-127166666D01*
X123504819Y-126833332D02*
X123504819Y-126166666D01*
X123504819Y-126166666D02*
X124504819Y-126595237D01*
X186999760Y-94705979D02*
X187504836Y-95211055D01*
X187504836Y-95211055D02*
X187572180Y-95345742D01*
X187572180Y-95345742D02*
X187572180Y-95480429D01*
X187572180Y-95480429D02*
X187504836Y-95615116D01*
X187504836Y-95615116D02*
X187437493Y-95682460D01*
X187875226Y-94301918D02*
X188346630Y-94773322D01*
X187437493Y-94200902D02*
X187774210Y-94874337D01*
X187774210Y-94874337D02*
X188211943Y-94436605D01*
X124409580Y-134666666D02*
X124457200Y-134714285D01*
X124457200Y-134714285D02*
X124504819Y-134857142D01*
X124504819Y-134857142D02*
X124504819Y-134952380D01*
X124504819Y-134952380D02*
X124457200Y-135095237D01*
X124457200Y-135095237D02*
X124361961Y-135190475D01*
X124361961Y-135190475D02*
X124266723Y-135238094D01*
X124266723Y-135238094D02*
X124076247Y-135285713D01*
X124076247Y-135285713D02*
X123933390Y-135285713D01*
X123933390Y-135285713D02*
X123742914Y-135238094D01*
X123742914Y-135238094D02*
X123647676Y-135190475D01*
X123647676Y-135190475D02*
X123552438Y-135095237D01*
X123552438Y-135095237D02*
X123504819Y-134952380D01*
X123504819Y-134952380D02*
X123504819Y-134857142D01*
X123504819Y-134857142D02*
X123552438Y-134714285D01*
X123552438Y-134714285D02*
X123600057Y-134666666D01*
X123933390Y-134095237D02*
X123885771Y-134190475D01*
X123885771Y-134190475D02*
X123838152Y-134238094D01*
X123838152Y-134238094D02*
X123742914Y-134285713D01*
X123742914Y-134285713D02*
X123695295Y-134285713D01*
X123695295Y-134285713D02*
X123600057Y-134238094D01*
X123600057Y-134238094D02*
X123552438Y-134190475D01*
X123552438Y-134190475D02*
X123504819Y-134095237D01*
X123504819Y-134095237D02*
X123504819Y-133904761D01*
X123504819Y-133904761D02*
X123552438Y-133809523D01*
X123552438Y-133809523D02*
X123600057Y-133761904D01*
X123600057Y-133761904D02*
X123695295Y-133714285D01*
X123695295Y-133714285D02*
X123742914Y-133714285D01*
X123742914Y-133714285D02*
X123838152Y-133761904D01*
X123838152Y-133761904D02*
X123885771Y-133809523D01*
X123885771Y-133809523D02*
X123933390Y-133904761D01*
X123933390Y-133904761D02*
X123933390Y-134095237D01*
X123933390Y-134095237D02*
X123981009Y-134190475D01*
X123981009Y-134190475D02*
X124028628Y-134238094D01*
X124028628Y-134238094D02*
X124123866Y-134285713D01*
X124123866Y-134285713D02*
X124314342Y-134285713D01*
X124314342Y-134285713D02*
X124409580Y-134238094D01*
X124409580Y-134238094D02*
X124457200Y-134190475D01*
X124457200Y-134190475D02*
X124504819Y-134095237D01*
X124504819Y-134095237D02*
X124504819Y-133904761D01*
X124504819Y-133904761D02*
X124457200Y-133809523D01*
X124457200Y-133809523D02*
X124409580Y-133761904D01*
X124409580Y-133761904D02*
X124314342Y-133714285D01*
X124314342Y-133714285D02*
X124123866Y-133714285D01*
X124123866Y-133714285D02*
X124028628Y-133761904D01*
X124028628Y-133761904D02*
X123981009Y-133809523D01*
X123981009Y-133809523D02*
X123933390Y-133904761D01*
D11*
%TO.C,D1*%
X113550000Y-122205000D02*
G75*
G02*
X113450000Y-122205000I-50000J0D01*
G01*
X113450000Y-122205000D02*
G75*
G02*
X113550000Y-122205000I50000J0D01*
G01*
D12*
%TO.C,D3*%
X185401005Y-98765543D02*
X181504846Y-102661701D01*
X187734457Y-101098995D02*
X183838299Y-104995154D01*
X187734457Y-101098995D02*
X185401005Y-98765543D01*
%TO.C,SW1*%
X113130000Y-124630000D02*
X113130000Y-125030000D01*
X113130000Y-124630000D02*
X117870000Y-124630000D01*
X113130000Y-128030000D02*
X113130000Y-125970000D01*
X113130000Y-129370000D02*
X113130000Y-128970000D01*
X113130000Y-129370000D02*
X117870000Y-129370000D01*
X117870000Y-124630000D02*
X117870000Y-125030000D01*
X117870000Y-128030000D02*
X117870000Y-125970000D01*
X117870000Y-129370000D02*
X117870000Y-128970000D01*
%TO.C,U2*%
X170449112Y-104344715D02*
X171736047Y-103057780D01*
X170484468Y-104380070D02*
X170449112Y-104344715D01*
X171736047Y-103057780D02*
X171771402Y-103093136D01*
X171827970Y-105723573D02*
X171276427Y-105172030D01*
X172655285Y-106550888D02*
X172619930Y-106515532D01*
X173906864Y-105228598D02*
X173942220Y-105263953D01*
X173942220Y-105263953D02*
X172655285Y-106550888D01*
X174691753Y-104910400D02*
X174352342Y-105249811D01*
X174288702Y-104846760D01*
X174691753Y-104910400D01*
G36*
X174691753Y-104910400D02*
G01*
X174352342Y-105249811D01*
X174288702Y-104846760D01*
X174691753Y-104910400D01*
G37*
%TO.C,D4*%
X180901005Y-94265543D02*
X177004846Y-98161701D01*
X183234457Y-96598995D02*
X179338299Y-100495154D01*
X183234457Y-96598995D02*
X180901005Y-94265543D01*
%TO.C,D2*%
X176401005Y-89765543D02*
X172504846Y-93661701D01*
X178734457Y-92098995D02*
X174838299Y-95995154D01*
X178734457Y-92098995D02*
X176401005Y-89765543D01*
%TO.C,SW4*%
X113030000Y-132130000D02*
X113030000Y-132530000D01*
X113030000Y-132130000D02*
X117770000Y-132130000D01*
X113030000Y-135530000D02*
X113030000Y-133470000D01*
X113030000Y-136870000D02*
X113030000Y-136470000D01*
X113030000Y-136870000D02*
X117770000Y-136870000D01*
X117770000Y-132130000D02*
X117770000Y-132530000D01*
X117770000Y-135530000D02*
X117770000Y-133470000D01*
X117770000Y-136870000D02*
X117770000Y-136470000D01*
D13*
%TO.C,G\u002A\u002A\u002A*%
G36*
X120747862Y-108996999D02*
G01*
X120747862Y-110557122D01*
X120696858Y-110557122D01*
X120645854Y-110557122D01*
X120645854Y-108996999D01*
X120645854Y-107436876D01*
X120696858Y-107436876D01*
X120747862Y-107436876D01*
X120747862Y-108996999D01*
G37*
G36*
X127150366Y-108381951D02*
G01*
X127150366Y-108744979D01*
X127099362Y-108744979D01*
X127048358Y-108744979D01*
X127048358Y-108381951D01*
X127048358Y-108018922D01*
X127099362Y-108018922D01*
X127150366Y-108018922D01*
X127150366Y-108381951D01*
G37*
G36*
X128699988Y-109250276D02*
G01*
X128749492Y-109252019D01*
X128751038Y-109616548D01*
X128752585Y-109981077D01*
X128701534Y-109981077D01*
X128650484Y-109981077D01*
X128650484Y-109614805D01*
X128650484Y-109248534D01*
X128699988Y-109250276D01*
G37*
G36*
X130168604Y-108381951D02*
G01*
X130168604Y-108744979D01*
X130117600Y-108744979D01*
X130066595Y-108744979D01*
X130066595Y-108381951D01*
X130066595Y-108018922D01*
X130117600Y-108018922D01*
X130168604Y-108018922D01*
X130168604Y-108381951D01*
G37*
G36*
X134670458Y-109250276D02*
G01*
X134719962Y-109252019D01*
X134721508Y-109616548D01*
X134723055Y-109981077D01*
X134672005Y-109981077D01*
X134620954Y-109981077D01*
X134620954Y-109614805D01*
X134620954Y-109248534D01*
X134670458Y-109250276D01*
G37*
G36*
X123814103Y-109566801D02*
G01*
X123814103Y-109885069D01*
X123982116Y-109885069D01*
X124150130Y-109885069D01*
X124150130Y-109933073D01*
X124150130Y-109981077D01*
X123931066Y-109981077D01*
X123712002Y-109981077D01*
X123713549Y-109616548D01*
X123715095Y-109252019D01*
X123764599Y-109250276D01*
X123814103Y-109248534D01*
X123814103Y-109566801D01*
G37*
G36*
X135058989Y-109567044D02*
G01*
X135058989Y-109885069D01*
X135224002Y-109885069D01*
X135389015Y-109885069D01*
X135389015Y-109933073D01*
X135389015Y-109981077D01*
X135172998Y-109981077D01*
X134956981Y-109981077D01*
X134956981Y-109615048D01*
X134956981Y-109249019D01*
X135007985Y-109249019D01*
X135058989Y-109249019D01*
X135058989Y-109567044D01*
G37*
G36*
X135641034Y-109566801D02*
G01*
X135641034Y-109885069D01*
X135809048Y-109885069D01*
X135977061Y-109885069D01*
X135977061Y-109933073D01*
X135977061Y-109981077D01*
X135757997Y-109981077D01*
X135538933Y-109981077D01*
X135540480Y-109616548D01*
X135542027Y-109252019D01*
X135591531Y-109250276D01*
X135641034Y-109248534D01*
X135641034Y-109566801D01*
G37*
G36*
X123418072Y-108063926D02*
G01*
X123418072Y-108108929D01*
X123301063Y-108108929D01*
X123184054Y-108108929D01*
X123184054Y-108426954D01*
X123184054Y-108744979D01*
X123133050Y-108744979D01*
X123082046Y-108744979D01*
X123082046Y-108426954D01*
X123082046Y-108108929D01*
X122965036Y-108108929D01*
X122848027Y-108108929D01*
X122848027Y-108063926D01*
X122848027Y-108018922D01*
X123133050Y-108018922D01*
X123418072Y-108018922D01*
X123418072Y-108063926D01*
G37*
G36*
X130894661Y-108063926D02*
G01*
X130894661Y-108108929D01*
X130777651Y-108108929D01*
X130660642Y-108108929D01*
X130660642Y-108426954D01*
X130660642Y-108744979D01*
X130609638Y-108744979D01*
X130558634Y-108744979D01*
X130558634Y-108426954D01*
X130558634Y-108108929D01*
X130441625Y-108108929D01*
X130324616Y-108108929D01*
X130324616Y-108063926D01*
X130324616Y-108018922D01*
X130609638Y-108018922D01*
X130894661Y-108018922D01*
X130894661Y-108063926D01*
G37*
G36*
X133138837Y-109296964D02*
G01*
X133138837Y-109345026D01*
X133021828Y-109345026D01*
X132904819Y-109345026D01*
X132904819Y-109663052D01*
X132904819Y-109981077D01*
X132853815Y-109981077D01*
X132802811Y-109981077D01*
X132802811Y-109663052D01*
X132802811Y-109345026D01*
X132685549Y-109345026D01*
X132568288Y-109345026D01*
X132570040Y-109298523D01*
X132571793Y-109252019D01*
X132855315Y-109250460D01*
X133138837Y-109248901D01*
X133138837Y-109296964D01*
G37*
G36*
X132115739Y-109550533D02*
G01*
X132316773Y-109852047D01*
X132316773Y-109550533D01*
X132316773Y-109249019D01*
X132367777Y-109249019D01*
X132418781Y-109249019D01*
X132418781Y-109615048D01*
X132418781Y-109981077D01*
X132353790Y-109981077D01*
X132288800Y-109981077D01*
X132088269Y-109684946D01*
X131887739Y-109388815D01*
X131886183Y-109684946D01*
X131884627Y-109981077D01*
X131833679Y-109981077D01*
X131782731Y-109981077D01*
X131782731Y-109615048D01*
X131782731Y-109249019D01*
X131848718Y-109249019D01*
X131914705Y-109249019D01*
X132115739Y-109550533D01*
G37*
G36*
X133432861Y-108063926D02*
G01*
X133432861Y-108108929D01*
X133255847Y-108108929D01*
X133078833Y-108108929D01*
X133078833Y-108222938D01*
X133078833Y-108336947D01*
X133243846Y-108336947D01*
X133408859Y-108336947D01*
X133408859Y-108384951D01*
X133408859Y-108432955D01*
X133243846Y-108432955D01*
X133078833Y-108432955D01*
X133078833Y-108588967D01*
X133078833Y-108744979D01*
X133027829Y-108744979D01*
X132976825Y-108744979D01*
X132976825Y-108381951D01*
X132976825Y-108018922D01*
X133204843Y-108018922D01*
X133432861Y-108018922D01*
X133432861Y-108063926D01*
G37*
G36*
X123670092Y-108168934D02*
G01*
X123670092Y-108318946D01*
X123859107Y-108318946D01*
X124048122Y-108318946D01*
X124048122Y-108168934D01*
X124048122Y-108018922D01*
X124099126Y-108018922D01*
X124150130Y-108018922D01*
X124150130Y-108381951D01*
X124150130Y-108744979D01*
X124099126Y-108744979D01*
X124048122Y-108744979D01*
X124048122Y-108579966D01*
X124048122Y-108414953D01*
X123859107Y-108414953D01*
X123670092Y-108414953D01*
X123670092Y-108579966D01*
X123670092Y-108744979D01*
X123619088Y-108744979D01*
X123568084Y-108744979D01*
X123568084Y-108381951D01*
X123568084Y-108018922D01*
X123619088Y-108018922D01*
X123670092Y-108018922D01*
X123670092Y-108168934D01*
G37*
G36*
X124858185Y-108063926D02*
G01*
X124858185Y-108108929D01*
X124672171Y-108108929D01*
X124486156Y-108108929D01*
X124486156Y-108216938D01*
X124486156Y-108324946D01*
X124660170Y-108324946D01*
X124834183Y-108324946D01*
X124834183Y-108372950D01*
X124834183Y-108420954D01*
X124660170Y-108420954D01*
X124486156Y-108420954D01*
X124486156Y-108534963D01*
X124486156Y-108648972D01*
X124681171Y-108648972D01*
X124876187Y-108648972D01*
X124876187Y-108696975D01*
X124876187Y-108744979D01*
X124630167Y-108744979D01*
X124384148Y-108744979D01*
X124384148Y-108381951D01*
X124384148Y-108018922D01*
X124621167Y-108018922D01*
X124858185Y-108018922D01*
X124858185Y-108063926D01*
G37*
G36*
X128560477Y-108063926D02*
G01*
X128560477Y-108108929D01*
X128374462Y-108108929D01*
X128188448Y-108108929D01*
X128188448Y-108216938D01*
X128188448Y-108324946D01*
X128359461Y-108324946D01*
X128530475Y-108324946D01*
X128530475Y-108372950D01*
X128530475Y-108420954D01*
X128359461Y-108420954D01*
X128188448Y-108420954D01*
X128188448Y-108534880D01*
X128188448Y-108648805D01*
X128381963Y-108650389D01*
X128575478Y-108651972D01*
X128577231Y-108698476D01*
X128578983Y-108744979D01*
X128332711Y-108744979D01*
X128086440Y-108744979D01*
X128086440Y-108381951D01*
X128086440Y-108018922D01*
X128323458Y-108018922D01*
X128560477Y-108018922D01*
X128560477Y-108063926D01*
G37*
G36*
X130768651Y-109614805D02*
G01*
X130768651Y-109981077D01*
X130717647Y-109981077D01*
X130666643Y-109981077D01*
X130666643Y-109816064D01*
X130666643Y-109651051D01*
X130480628Y-109651051D01*
X130294613Y-109651051D01*
X130294613Y-109816064D01*
X130294613Y-109981077D01*
X130243609Y-109981077D01*
X130192605Y-109981077D01*
X130192605Y-109615048D01*
X130192605Y-109249019D01*
X130243609Y-109249019D01*
X130294613Y-109249019D01*
X130294613Y-109402031D01*
X130294613Y-109555043D01*
X130480525Y-109555043D01*
X130666437Y-109555043D01*
X130668040Y-109403531D01*
X130669643Y-109252019D01*
X130719147Y-109250276D01*
X130768651Y-109248534D01*
X130768651Y-109614805D01*
G37*
G36*
X136601110Y-109297023D02*
G01*
X136601110Y-109345026D01*
X136415095Y-109345026D01*
X136229081Y-109345026D01*
X136229081Y-109453035D01*
X136229081Y-109561043D01*
X136400094Y-109561043D01*
X136571108Y-109561043D01*
X136571108Y-109609047D01*
X136571108Y-109657051D01*
X136400094Y-109657051D01*
X136229081Y-109657051D01*
X136229081Y-109771060D01*
X136229081Y-109885069D01*
X136424096Y-109885069D01*
X136619111Y-109885069D01*
X136619111Y-109933073D01*
X136619111Y-109981077D01*
X136373092Y-109981077D01*
X136127073Y-109981077D01*
X136127073Y-109615048D01*
X136127073Y-109249019D01*
X136364091Y-109249019D01*
X136601110Y-109249019D01*
X136601110Y-109297023D01*
G37*
G36*
X126814339Y-108382147D02*
G01*
X126814339Y-108745372D01*
X126747574Y-108743676D01*
X126680808Y-108741979D01*
X126482053Y-108448442D01*
X126283298Y-108154906D01*
X126281741Y-108449943D01*
X126280184Y-108744979D01*
X126229237Y-108744979D01*
X126178289Y-108744979D01*
X126178289Y-108381951D01*
X126178289Y-108018922D01*
X126245795Y-108019196D01*
X126313300Y-108019470D01*
X126507761Y-108310449D01*
X126543226Y-108363442D01*
X126576774Y-108413429D01*
X126607805Y-108459522D01*
X126635714Y-108500831D01*
X126659899Y-108536469D01*
X126679757Y-108565547D01*
X126694686Y-108587176D01*
X126704082Y-108600468D01*
X126707277Y-108604553D01*
X126708274Y-108599373D01*
X126709206Y-108583324D01*
X126710054Y-108557535D01*
X126710796Y-108523138D01*
X126711415Y-108481263D01*
X126711890Y-108433041D01*
X126712201Y-108379602D01*
X126712329Y-108322078D01*
X126712331Y-108313299D01*
X126712331Y-108018922D01*
X126763335Y-108018922D01*
X126814339Y-108018922D01*
X126814339Y-108382147D01*
G37*
G36*
X129570056Y-109250276D02*
G01*
X129619560Y-109252019D01*
X129621107Y-109616548D01*
X129622653Y-109981077D01*
X129556937Y-109981077D01*
X129491220Y-109981077D01*
X129291369Y-109685598D01*
X129091519Y-109390120D01*
X129089962Y-109685598D01*
X129088405Y-109981077D01*
X129037458Y-109981077D01*
X128986510Y-109981077D01*
X128986510Y-109615048D01*
X128986510Y-109249019D01*
X129051231Y-109249019D01*
X129115951Y-109249019D01*
X129313623Y-109543536D01*
X129349424Y-109596810D01*
X129383293Y-109647080D01*
X129414630Y-109693466D01*
X129442837Y-109735087D01*
X129467316Y-109771064D01*
X129487468Y-109800516D01*
X129502693Y-109822563D01*
X129512394Y-109836326D01*
X129515924Y-109840913D01*
X129516833Y-109835677D01*
X129517682Y-109819565D01*
X129518455Y-109793705D01*
X129519133Y-109759223D01*
X129519700Y-109717244D01*
X129520136Y-109668894D01*
X129520425Y-109615301D01*
X129520549Y-109557589D01*
X129520552Y-109546154D01*
X129520552Y-109248534D01*
X129570056Y-109250276D01*
G37*
G36*
X131528716Y-108122430D02*
G01*
X131502103Y-108162948D01*
X131471566Y-108209248D01*
X131439868Y-108257149D01*
X131409775Y-108302471D01*
X131390814Y-108330920D01*
X131320694Y-108435901D01*
X131320694Y-108590440D01*
X131320694Y-108744979D01*
X131269690Y-108744979D01*
X131218686Y-108744979D01*
X131218686Y-108589368D01*
X131218686Y-108433756D01*
X131083676Y-108229203D01*
X131054493Y-108184917D01*
X131027478Y-108143780D01*
X131003325Y-108106860D01*
X130982730Y-108075226D01*
X130966386Y-108049946D01*
X130954989Y-108032090D01*
X130949233Y-108022725D01*
X130948665Y-108021583D01*
X130954253Y-108020485D01*
X130969385Y-108019883D01*
X130991613Y-108019828D01*
X131013109Y-108020219D01*
X131077553Y-108021922D01*
X131173004Y-108176243D01*
X131196953Y-108214674D01*
X131218966Y-108249449D01*
X131238243Y-108279345D01*
X131253982Y-108303140D01*
X131265383Y-108319613D01*
X131271644Y-108327540D01*
X131272519Y-108328052D01*
X131276650Y-108322548D01*
X131286391Y-108308172D01*
X131300917Y-108286186D01*
X131319404Y-108257848D01*
X131341027Y-108224419D01*
X131364962Y-108187158D01*
X131374509Y-108172231D01*
X131472434Y-108018922D01*
X131534466Y-108018922D01*
X131596498Y-108018922D01*
X131528716Y-108122430D01*
G37*
G36*
X127917377Y-108019432D02*
G01*
X127935784Y-108020801D01*
X127946112Y-108022789D01*
X127947429Y-108024096D01*
X127944936Y-108030439D01*
X127938418Y-108046996D01*
X127928250Y-108072815D01*
X127914806Y-108106944D01*
X127898462Y-108148432D01*
X127879592Y-108196327D01*
X127858572Y-108249678D01*
X127835776Y-108307533D01*
X127811579Y-108368940D01*
X127804417Y-108387113D01*
X127663406Y-108744957D01*
X127614333Y-108744968D01*
X127565261Y-108744979D01*
X127553408Y-108713477D01*
X127549098Y-108702159D01*
X127540896Y-108680751D01*
X127529228Y-108650362D01*
X127514521Y-108612099D01*
X127497199Y-108567069D01*
X127477689Y-108516382D01*
X127456418Y-108461143D01*
X127433812Y-108402462D01*
X127414966Y-108353562D01*
X127392014Y-108293962D01*
X127370402Y-108237734D01*
X127350507Y-108185868D01*
X127332709Y-108139356D01*
X127317385Y-108099191D01*
X127304914Y-108066363D01*
X127295675Y-108041863D01*
X127290045Y-108026685D01*
X127288377Y-108021818D01*
X127293943Y-108020567D01*
X127308929Y-108019891D01*
X127330764Y-108019862D01*
X127346807Y-108020205D01*
X127405238Y-108021922D01*
X127510929Y-108314855D01*
X127616619Y-108607788D01*
X127726991Y-108313355D01*
X127837363Y-108018922D01*
X127893396Y-108018922D01*
X127917377Y-108019432D01*
G37*
G36*
X127306378Y-109614868D02*
G01*
X127306378Y-109981077D01*
X127255431Y-109981077D01*
X127204483Y-109981077D01*
X127202927Y-109686754D01*
X127201370Y-109392432D01*
X127081140Y-109685254D01*
X126960911Y-109978076D01*
X126925128Y-109979661D01*
X126889345Y-109981245D01*
X126769336Y-109687730D01*
X126649326Y-109394215D01*
X126647770Y-109687646D01*
X126646213Y-109981077D01*
X126595266Y-109981077D01*
X126544318Y-109981077D01*
X126544318Y-109615048D01*
X126544318Y-109249019D01*
X126618617Y-109249019D01*
X126692916Y-109249019D01*
X126731594Y-109340526D01*
X126743843Y-109369554D01*
X126759764Y-109407363D01*
X126778394Y-109451661D01*
X126798771Y-109500158D01*
X126819932Y-109550566D01*
X126840916Y-109600592D01*
X126847518Y-109616341D01*
X126865965Y-109660173D01*
X126882945Y-109700166D01*
X126897908Y-109735052D01*
X126910304Y-109763563D01*
X126919582Y-109784429D01*
X126925192Y-109796382D01*
X126926647Y-109798764D01*
X126929258Y-109793019D01*
X126936028Y-109777261D01*
X126946508Y-109752557D01*
X126960248Y-109719975D01*
X126976799Y-109680583D01*
X126995713Y-109635447D01*
X127016539Y-109585637D01*
X127038829Y-109532218D01*
X127042067Y-109524449D01*
X127155602Y-109252019D01*
X127230990Y-109250340D01*
X127306378Y-109248660D01*
X127306378Y-109614868D01*
G37*
G36*
X126251255Y-109612048D02*
G01*
X126277805Y-109674095D01*
X126302922Y-109732894D01*
X126326212Y-109787515D01*
X126347280Y-109837031D01*
X126365734Y-109880512D01*
X126381178Y-109917029D01*
X126393219Y-109945654D01*
X126401463Y-109965457D01*
X126405515Y-109975509D01*
X126405874Y-109976576D01*
X126400493Y-109978478D01*
X126385649Y-109979983D01*
X126363878Y-109980894D01*
X126347297Y-109981077D01*
X126288287Y-109981077D01*
X126252790Y-109891097D01*
X126217292Y-109801118D01*
X126045429Y-109801090D01*
X125873565Y-109801062D01*
X125838076Y-109889569D01*
X125802587Y-109978076D01*
X125742062Y-109979779D01*
X125681537Y-109981482D01*
X125800839Y-109711055D01*
X125909011Y-109711055D01*
X126043562Y-109711055D01*
X126178114Y-109711055D01*
X126165704Y-109679553D01*
X126151651Y-109644132D01*
X126136302Y-109605882D01*
X126120324Y-109566417D01*
X126104383Y-109527353D01*
X126089145Y-109490305D01*
X126075276Y-109456888D01*
X126063443Y-109428717D01*
X126054312Y-109407408D01*
X126048548Y-109394577D01*
X126046925Y-109391549D01*
X126043435Y-109395336D01*
X126036338Y-109408608D01*
X126026429Y-109429684D01*
X126014503Y-109456884D01*
X126002968Y-109484556D01*
X125987407Y-109522596D01*
X125970951Y-109562616D01*
X125955146Y-109600864D01*
X125941541Y-109633591D01*
X125936115Y-109646550D01*
X125909011Y-109711055D01*
X125800839Y-109711055D01*
X125842442Y-109616751D01*
X126003347Y-109252019D01*
X126050208Y-109252019D01*
X126097069Y-109252019D01*
X126251255Y-109612048D01*
G37*
G36*
X128937007Y-108020084D02*
G01*
X129109520Y-108021922D01*
X129147094Y-108039275D01*
X129187748Y-108063820D01*
X129218851Y-108095551D01*
X129240485Y-108134597D01*
X129252731Y-108181083D01*
X129255277Y-108205697D01*
X129253018Y-108255918D01*
X129240203Y-108300622D01*
X129217163Y-108339342D01*
X129184226Y-108371613D01*
X129141724Y-108396968D01*
X129111457Y-108408769D01*
X129082504Y-108418208D01*
X129184110Y-108581593D01*
X129285716Y-108744979D01*
X129221620Y-108744881D01*
X129157524Y-108744784D01*
X129066807Y-108587369D01*
X128976090Y-108429954D01*
X128921296Y-108428229D01*
X128866501Y-108426504D01*
X128866501Y-108585742D01*
X128866501Y-108744979D01*
X128815497Y-108744979D01*
X128764493Y-108744979D01*
X128764493Y-108381613D01*
X128764493Y-108338180D01*
X128866501Y-108338180D01*
X128964009Y-108336057D01*
X129001086Y-108335119D01*
X129028482Y-108333956D01*
X129048519Y-108332258D01*
X129063516Y-108329712D01*
X129075793Y-108326007D01*
X129087671Y-108320832D01*
X129091519Y-108318939D01*
X129120201Y-108299020D01*
X129138802Y-108272762D01*
X129147593Y-108239714D01*
X129148424Y-108224246D01*
X129144529Y-108187690D01*
X129132144Y-108158590D01*
X129113150Y-108137382D01*
X129099463Y-108127346D01*
X129084132Y-108119730D01*
X129065155Y-108114111D01*
X129040528Y-108110068D01*
X129008251Y-108107178D01*
X128966321Y-108105021D01*
X128958008Y-108104693D01*
X128866501Y-108101206D01*
X128866501Y-108219693D01*
X128866501Y-108338180D01*
X128764493Y-108338180D01*
X128764493Y-108219693D01*
X128764493Y-108018246D01*
X128937007Y-108020084D01*
G37*
G36*
X113475090Y-109207505D02*
G01*
X113483892Y-109221807D01*
X113497859Y-109244797D01*
X113516500Y-109275665D01*
X113539330Y-109313599D01*
X113565860Y-109357787D01*
X113595602Y-109407419D01*
X113628069Y-109461683D01*
X113662772Y-109519767D01*
X113693347Y-109571004D01*
X113729526Y-109631740D01*
X113763799Y-109689422D01*
X113795686Y-109743230D01*
X113824705Y-109792345D01*
X113850373Y-109835947D01*
X113872210Y-109873216D01*
X113889733Y-109903333D01*
X113902462Y-109925478D01*
X113909913Y-109938832D01*
X113911743Y-109942654D01*
X113905438Y-109942054D01*
X113890861Y-109938525D01*
X113871158Y-109932829D01*
X113871010Y-109932783D01*
X113770051Y-109904134D01*
X113676376Y-109882980D01*
X113587928Y-109869286D01*
X113502650Y-109863014D01*
X113418484Y-109864128D01*
X113333373Y-109872589D01*
X113245260Y-109888362D01*
X113152087Y-109911408D01*
X113124261Y-109919320D01*
X113095638Y-109927668D01*
X113070440Y-109935016D01*
X113051333Y-109940584D01*
X113040986Y-109943595D01*
X113040817Y-109943645D01*
X113032945Y-109944137D01*
X113032443Y-109941519D01*
X113036004Y-109935477D01*
X113045061Y-109920201D01*
X113059021Y-109896689D01*
X113077289Y-109865941D01*
X113099272Y-109828954D01*
X113124375Y-109786727D01*
X113152004Y-109740259D01*
X113181566Y-109690548D01*
X113212466Y-109638593D01*
X113244111Y-109585392D01*
X113275907Y-109531944D01*
X113307258Y-109479247D01*
X113337573Y-109428299D01*
X113366256Y-109380100D01*
X113392713Y-109335648D01*
X113416351Y-109295941D01*
X113436576Y-109261977D01*
X113452793Y-109234757D01*
X113464409Y-109215276D01*
X113470830Y-109204536D01*
X113471939Y-109202704D01*
X113475090Y-109207505D01*
G37*
G36*
X125488235Y-108245838D02*
G01*
X125488411Y-108305195D01*
X125488919Y-108359409D01*
X125489729Y-108407248D01*
X125490811Y-108447477D01*
X125492134Y-108478862D01*
X125493670Y-108500171D01*
X125494608Y-108507231D01*
X125508560Y-108557777D01*
X125529900Y-108599081D01*
X125558412Y-108630947D01*
X125593880Y-108653178D01*
X125636088Y-108665577D01*
X125671249Y-108668307D01*
X125718321Y-108663063D01*
X125759328Y-108647512D01*
X125793875Y-108621921D01*
X125821570Y-108586557D01*
X125836934Y-108555477D01*
X125840437Y-108546532D01*
X125843325Y-108537936D01*
X125845666Y-108528462D01*
X125847530Y-108516883D01*
X125848986Y-108501971D01*
X125850103Y-108482501D01*
X125850949Y-108457245D01*
X125851595Y-108424976D01*
X125852109Y-108384468D01*
X125852560Y-108334493D01*
X125853018Y-108273825D01*
X125853049Y-108269442D01*
X125854873Y-108018922D01*
X125905572Y-108018922D01*
X125956272Y-108018922D01*
X125956168Y-108263441D01*
X125956041Y-108331662D01*
X125955646Y-108389102D01*
X125954868Y-108436982D01*
X125953590Y-108476523D01*
X125951695Y-108508943D01*
X125949069Y-108535463D01*
X125945594Y-108557304D01*
X125941154Y-108575684D01*
X125935634Y-108591824D01*
X125928917Y-108606945D01*
X125922251Y-108619777D01*
X125889717Y-108667785D01*
X125849493Y-108706834D01*
X125802236Y-108736376D01*
X125763711Y-108751612D01*
X125726315Y-108759593D01*
X125683174Y-108763024D01*
X125638911Y-108761940D01*
X125598148Y-108756371D01*
X125575538Y-108750300D01*
X125522928Y-108726446D01*
X125478448Y-108693812D01*
X125441990Y-108652289D01*
X125413446Y-108601767D01*
X125403165Y-108576101D01*
X125399872Y-108566522D01*
X125397145Y-108557121D01*
X125394919Y-108546682D01*
X125393130Y-108533990D01*
X125391714Y-108517831D01*
X125390606Y-108496988D01*
X125389743Y-108470248D01*
X125389060Y-108436396D01*
X125388493Y-108394215D01*
X125387978Y-108342492D01*
X125387451Y-108280011D01*
X125387438Y-108278442D01*
X125385330Y-108018922D01*
X125436782Y-108018922D01*
X125488235Y-108018922D01*
X125488235Y-108245838D01*
G37*
G36*
X134452459Y-109249172D02*
G01*
X134470974Y-109249583D01*
X134481478Y-109250178D01*
X134482894Y-109250519D01*
X134480746Y-109256210D01*
X134474561Y-109272134D01*
X134464707Y-109297359D01*
X134451548Y-109330953D01*
X134435451Y-109371985D01*
X134416780Y-109419521D01*
X134395902Y-109472631D01*
X134373183Y-109530382D01*
X134348987Y-109591843D01*
X134339848Y-109615048D01*
X134196850Y-109978076D01*
X134148432Y-109979810D01*
X134100014Y-109981544D01*
X134066651Y-109895804D01*
X134038459Y-109823242D01*
X134010612Y-109751355D01*
X133983444Y-109681022D01*
X133957291Y-109613121D01*
X133932489Y-109548532D01*
X133909371Y-109488134D01*
X133888274Y-109432806D01*
X133869533Y-109383426D01*
X133853483Y-109340875D01*
X133840459Y-109306030D01*
X133830796Y-109279771D01*
X133824830Y-109262977D01*
X133822891Y-109256581D01*
X133826542Y-109252773D01*
X133838437Y-109250380D01*
X133859989Y-109249211D01*
X133879309Y-109249019D01*
X133905601Y-109249138D01*
X133922386Y-109249936D01*
X133932158Y-109252074D01*
X133937410Y-109256214D01*
X133940636Y-109263016D01*
X133941528Y-109265520D01*
X133949417Y-109287776D01*
X133960180Y-109317870D01*
X133973343Y-109354496D01*
X133988431Y-109396343D01*
X134004967Y-109442105D01*
X134022477Y-109490474D01*
X134040485Y-109540140D01*
X134058517Y-109589797D01*
X134076097Y-109638136D01*
X134092749Y-109683849D01*
X134108000Y-109725627D01*
X134121372Y-109762164D01*
X134132392Y-109792150D01*
X134140584Y-109814277D01*
X134145472Y-109827239D01*
X134146637Y-109830100D01*
X134149639Y-109826450D01*
X134156417Y-109812268D01*
X134166669Y-109788310D01*
X134180090Y-109755330D01*
X134196378Y-109714082D01*
X134215228Y-109665322D01*
X134236337Y-109609804D01*
X134251639Y-109569079D01*
X134272200Y-109514192D01*
X134291810Y-109461999D01*
X134310001Y-109413729D01*
X134326309Y-109370613D01*
X134340266Y-109333880D01*
X134351407Y-109304761D01*
X134359266Y-109284485D01*
X134363272Y-109274521D01*
X134374260Y-109249019D01*
X134428602Y-109249019D01*
X134452459Y-109249172D01*
G37*
G36*
X131094114Y-109496538D02*
G01*
X131094785Y-109561989D01*
X131095537Y-109616669D01*
X131096525Y-109661808D01*
X131097902Y-109698635D01*
X131099822Y-109728381D01*
X131102439Y-109752275D01*
X131105908Y-109771547D01*
X131110381Y-109787426D01*
X131116014Y-109801143D01*
X131122959Y-109813927D01*
X131131371Y-109827008D01*
X131136406Y-109834380D01*
X131164594Y-109865532D01*
X131199722Y-109887074D01*
X131242082Y-109899158D01*
X131266005Y-109901697D01*
X131314104Y-109899484D01*
X131355789Y-109887129D01*
X131391050Y-109864636D01*
X131419877Y-109832013D01*
X131441989Y-109789944D01*
X131445329Y-109781361D01*
X131448087Y-109772894D01*
X131450328Y-109763330D01*
X131452118Y-109751456D01*
X131453521Y-109736059D01*
X131454604Y-109715925D01*
X131455431Y-109689843D01*
X131456069Y-109656598D01*
X131456582Y-109614978D01*
X131457036Y-109563769D01*
X131457491Y-109502539D01*
X131459308Y-109249019D01*
X131510011Y-109249019D01*
X131560713Y-109249019D01*
X131560713Y-109498354D01*
X131560628Y-109566884D01*
X131560286Y-109624632D01*
X131559554Y-109672819D01*
X131558303Y-109712664D01*
X131556402Y-109745385D01*
X131553718Y-109772203D01*
X131550122Y-109794336D01*
X131545481Y-109813003D01*
X131539665Y-109829425D01*
X131532543Y-109844820D01*
X131523983Y-109860408D01*
X131521291Y-109865008D01*
X131487692Y-109910610D01*
X131446479Y-109947285D01*
X131398594Y-109974519D01*
X131344980Y-109991797D01*
X131286580Y-109998605D01*
X131276102Y-109998683D01*
X131247919Y-109997363D01*
X131219626Y-109994268D01*
X131197116Y-109990051D01*
X131196188Y-109989806D01*
X131153642Y-109974915D01*
X131116655Y-109953729D01*
X131082039Y-109924994D01*
X131049517Y-109889542D01*
X131025894Y-109851865D01*
X131008304Y-109807370D01*
X131007974Y-109806313D01*
X131005224Y-109796676D01*
X131002956Y-109786280D01*
X131001125Y-109773917D01*
X130999685Y-109758383D01*
X130998589Y-109738471D01*
X130997792Y-109712975D01*
X130997248Y-109680687D01*
X130996910Y-109640403D01*
X130996734Y-109590916D01*
X130996672Y-109531020D01*
X130996669Y-109509505D01*
X130996669Y-109249019D01*
X131044207Y-109249019D01*
X131091745Y-109249019D01*
X131094114Y-109496538D01*
G37*
G36*
X124575674Y-109250289D02*
G01*
X124620747Y-109252019D01*
X124775275Y-109612048D01*
X124801875Y-109674083D01*
X124827033Y-109732871D01*
X124850354Y-109787484D01*
X124871445Y-109836994D01*
X124889911Y-109880472D01*
X124905359Y-109916990D01*
X124917394Y-109945620D01*
X124925622Y-109965433D01*
X124929650Y-109975501D01*
X124929997Y-109976576D01*
X124924513Y-109978478D01*
X124909590Y-109979963D01*
X124887790Y-109980837D01*
X124871686Y-109980987D01*
X124813182Y-109980898D01*
X124777179Y-109891008D01*
X124741176Y-109801119D01*
X124569657Y-109801090D01*
X124398138Y-109801062D01*
X124362641Y-109891042D01*
X124327144Y-109981021D01*
X124268639Y-109981049D01*
X124243795Y-109980681D01*
X124224190Y-109979669D01*
X124212396Y-109978186D01*
X124210134Y-109977091D01*
X124212475Y-109971207D01*
X124219169Y-109955467D01*
X124229722Y-109930993D01*
X124243643Y-109898909D01*
X124260439Y-109860337D01*
X124279616Y-109816400D01*
X124300681Y-109768221D01*
X124323143Y-109716923D01*
X124327689Y-109706555D01*
X124438140Y-109706555D01*
X124443858Y-109707862D01*
X124459865Y-109709020D01*
X124484446Y-109709971D01*
X124515889Y-109710655D01*
X124552481Y-109711015D01*
X124570163Y-109711055D01*
X124608512Y-109710979D01*
X124642481Y-109710765D01*
X124670359Y-109710437D01*
X124690431Y-109710017D01*
X124700985Y-109709529D01*
X124702173Y-109709293D01*
X124699974Y-109702839D01*
X124693851Y-109687053D01*
X124684516Y-109663665D01*
X124672684Y-109634403D01*
X124659065Y-109600997D01*
X124644372Y-109565174D01*
X124629319Y-109528665D01*
X124614617Y-109493197D01*
X124600979Y-109460500D01*
X124589118Y-109432303D01*
X124579747Y-109410335D01*
X124573576Y-109396324D01*
X124571396Y-109391977D01*
X124568404Y-109396428D01*
X124561598Y-109410320D01*
X124551689Y-109431974D01*
X124539387Y-109459716D01*
X124525402Y-109491869D01*
X124510445Y-109526756D01*
X124495225Y-109562702D01*
X124480452Y-109598030D01*
X124466837Y-109631064D01*
X124455090Y-109660127D01*
X124445920Y-109683544D01*
X124440038Y-109699638D01*
X124438140Y-109706555D01*
X124327689Y-109706555D01*
X124346508Y-109663629D01*
X124370283Y-109609461D01*
X124393976Y-109555543D01*
X124417093Y-109502997D01*
X124439142Y-109452946D01*
X124459630Y-109406514D01*
X124478064Y-109364822D01*
X124493951Y-109328994D01*
X124506799Y-109300152D01*
X124516115Y-109279420D01*
X124521229Y-109268290D01*
X124530602Y-109248558D01*
X124575674Y-109250289D01*
G37*
G36*
X123237856Y-109250125D02*
G01*
X123254944Y-109253303D01*
X123260390Y-109256520D01*
X123263648Y-109263139D01*
X123271071Y-109279623D01*
X123282179Y-109304844D01*
X123296489Y-109337672D01*
X123313519Y-109376978D01*
X123332787Y-109421633D01*
X123353810Y-109470508D01*
X123376107Y-109522473D01*
X123399194Y-109576400D01*
X123422591Y-109631160D01*
X123445814Y-109685623D01*
X123468383Y-109738660D01*
X123489813Y-109789143D01*
X123509624Y-109835941D01*
X123527333Y-109877927D01*
X123542458Y-109913971D01*
X123554516Y-109942944D01*
X123563027Y-109963717D01*
X123567506Y-109975160D01*
X123568084Y-109977027D01*
X123562518Y-109978769D01*
X123547537Y-109979831D01*
X123525712Y-109980092D01*
X123509737Y-109979794D01*
X123451391Y-109978076D01*
X123415453Y-109889569D01*
X123379515Y-109801062D01*
X123207773Y-109801062D01*
X123036031Y-109801062D01*
X123000534Y-109891042D01*
X122965036Y-109981021D01*
X122905890Y-109981049D01*
X122878866Y-109980873D01*
X122861848Y-109980069D01*
X122852846Y-109978269D01*
X122849868Y-109975104D01*
X122850672Y-109970838D01*
X122853717Y-109963693D01*
X122861185Y-109946515D01*
X122872660Y-109920252D01*
X122887726Y-109885852D01*
X122905965Y-109844265D01*
X122926963Y-109796439D01*
X122950303Y-109743323D01*
X122965925Y-109707795D01*
X123076045Y-109707795D01*
X123081761Y-109708740D01*
X123097769Y-109709577D01*
X123122360Y-109710265D01*
X123153827Y-109710762D01*
X123190460Y-109711024D01*
X123208697Y-109711055D01*
X123251869Y-109711000D01*
X123284453Y-109710756D01*
X123307863Y-109710209D01*
X123323514Y-109709243D01*
X123332818Y-109707743D01*
X123337189Y-109705594D01*
X123338042Y-109702680D01*
X123337466Y-109700554D01*
X123327821Y-109675225D01*
X123315682Y-109644484D01*
X123301734Y-109609953D01*
X123286661Y-109573254D01*
X123271150Y-109536009D01*
X123255886Y-109499841D01*
X123241554Y-109466371D01*
X123228840Y-109437222D01*
X123218429Y-109414015D01*
X123211007Y-109398372D01*
X123207259Y-109391915D01*
X123207014Y-109391866D01*
X123203892Y-109398144D01*
X123196973Y-109413795D01*
X123186977Y-109437081D01*
X123174624Y-109466265D01*
X123160634Y-109499611D01*
X123145727Y-109535383D01*
X123130623Y-109571843D01*
X123116042Y-109607254D01*
X123102704Y-109639881D01*
X123091329Y-109667985D01*
X123082636Y-109689831D01*
X123077347Y-109703682D01*
X123076045Y-109707795D01*
X122965925Y-109707795D01*
X122975568Y-109685865D01*
X123002344Y-109625014D01*
X123011238Y-109604810D01*
X123167875Y-109249019D01*
X123211232Y-109249019D01*
X123237856Y-109250125D01*
G37*
G36*
X127809987Y-109250286D02*
G01*
X127855421Y-109252019D01*
X128009934Y-109611892D01*
X128036534Y-109673915D01*
X128061685Y-109732696D01*
X128084994Y-109787305D01*
X128106068Y-109836815D01*
X128124511Y-109880295D01*
X128139932Y-109916817D01*
X128151935Y-109945452D01*
X128160127Y-109965270D01*
X128164115Y-109975344D01*
X128164446Y-109976421D01*
X128158875Y-109978395D01*
X128143877Y-109979948D01*
X128122025Y-109980876D01*
X128105941Y-109981049D01*
X128047437Y-109981021D01*
X128011939Y-109891042D01*
X127976442Y-109801062D01*
X127804417Y-109801062D01*
X127632393Y-109801062D01*
X127596896Y-109891042D01*
X127561398Y-109981021D01*
X127502894Y-109981049D01*
X127478049Y-109980711D01*
X127458444Y-109979781D01*
X127446651Y-109978418D01*
X127444389Y-109977411D01*
X127446728Y-109971641D01*
X127453418Y-109956006D01*
X127463969Y-109931623D01*
X127477891Y-109899606D01*
X127494695Y-109861072D01*
X127513891Y-109817138D01*
X127534988Y-109768920D01*
X127557498Y-109717533D01*
X127563446Y-109703969D01*
X127673820Y-109703969D01*
X127676185Y-109706553D01*
X127682623Y-109708422D01*
X127694552Y-109709691D01*
X127713393Y-109710473D01*
X127740565Y-109710884D01*
X127777486Y-109711039D01*
X127804218Y-109711055D01*
X127848166Y-109710809D01*
X127884268Y-109710099D01*
X127911516Y-109708969D01*
X127928904Y-109707463D01*
X127935425Y-109705624D01*
X127935428Y-109705377D01*
X127928164Y-109685787D01*
X127917899Y-109659515D01*
X127905326Y-109628212D01*
X127891143Y-109593528D01*
X127876045Y-109557111D01*
X127860728Y-109520613D01*
X127845887Y-109485683D01*
X127832218Y-109453971D01*
X127820416Y-109427126D01*
X127811178Y-109406799D01*
X127805200Y-109394639D01*
X127803237Y-109391894D01*
X127800068Y-109398161D01*
X127793083Y-109413780D01*
X127783016Y-109436997D01*
X127770601Y-109466059D01*
X127756571Y-109499212D01*
X127741660Y-109534703D01*
X127726601Y-109570779D01*
X127712128Y-109605686D01*
X127698974Y-109637670D01*
X127687874Y-109664977D01*
X127679560Y-109685856D01*
X127674767Y-109698551D01*
X127674109Y-109700554D01*
X127673820Y-109703969D01*
X127563446Y-109703969D01*
X127580931Y-109664095D01*
X127604795Y-109609720D01*
X127628603Y-109555525D01*
X127651864Y-109502627D01*
X127674087Y-109452142D01*
X127694784Y-109405185D01*
X127713465Y-109362873D01*
X127729639Y-109326321D01*
X127742818Y-109296647D01*
X127752510Y-109274966D01*
X127756893Y-109265287D01*
X127761316Y-109256820D01*
X127766897Y-109251959D01*
X127776587Y-109249870D01*
X127793336Y-109249718D01*
X127809987Y-109250286D01*
G37*
G36*
X132451540Y-108001542D02*
G01*
X132515304Y-108013928D01*
X132575419Y-108036291D01*
X132606418Y-108052961D01*
X132657070Y-108090311D01*
X132699396Y-108135073D01*
X132733262Y-108185892D01*
X132758535Y-108241408D01*
X132775078Y-108300264D01*
X132782760Y-108361104D01*
X132781444Y-108422569D01*
X132770998Y-108483302D01*
X132751286Y-108541946D01*
X132722174Y-108597143D01*
X132683529Y-108647535D01*
X132666894Y-108664588D01*
X132633566Y-108691565D01*
X132592827Y-108716849D01*
X132549239Y-108737970D01*
X132507367Y-108752459D01*
X132502103Y-108753771D01*
X132460802Y-108760357D01*
X132413409Y-108762868D01*
X132364489Y-108761411D01*
X132318608Y-108756092D01*
X132285856Y-108748745D01*
X132225393Y-108724865D01*
X132171435Y-108691467D01*
X132124694Y-108649544D01*
X132085880Y-108600088D01*
X132055707Y-108544093D01*
X132034887Y-108482550D01*
X132024131Y-108416453D01*
X132022750Y-108381951D01*
X132023944Y-108366956D01*
X132130940Y-108366956D01*
X132132921Y-108420678D01*
X132143509Y-108473019D01*
X132162572Y-108522307D01*
X132189978Y-108566870D01*
X132225595Y-108605035D01*
X132247201Y-108621717D01*
X132284245Y-108642557D01*
X132325488Y-108658261D01*
X132367067Y-108667722D01*
X132405118Y-108669832D01*
X132412780Y-108669183D01*
X132428162Y-108667341D01*
X132448470Y-108664842D01*
X132455193Y-108664003D01*
X132496364Y-108653453D01*
X132537737Y-108633179D01*
X132576686Y-108605123D01*
X132610587Y-108571223D01*
X132636816Y-108533421D01*
X132639983Y-108527421D01*
X132654429Y-108492821D01*
X132666213Y-108453172D01*
X132674030Y-108413664D01*
X132676593Y-108381951D01*
X132674080Y-108351527D01*
X132667331Y-108315480D01*
X132657531Y-108278893D01*
X132645862Y-108246849D01*
X132644330Y-108243415D01*
X132627464Y-108214686D01*
X132603635Y-108184448D01*
X132576355Y-108156584D01*
X132549133Y-108134973D01*
X132542548Y-108130886D01*
X132492338Y-108108295D01*
X132439484Y-108096204D01*
X132385809Y-108094388D01*
X132333137Y-108102621D01*
X132283290Y-108120679D01*
X132238093Y-108148337D01*
X132211723Y-108171712D01*
X132177958Y-108214232D01*
X132153327Y-108262061D01*
X132137698Y-108313526D01*
X132130940Y-108366956D01*
X132023944Y-108366956D01*
X132028264Y-108312723D01*
X132044578Y-108247640D01*
X132071345Y-108187579D01*
X132108218Y-108133418D01*
X132130751Y-108108402D01*
X132152167Y-108088150D01*
X132174702Y-108069170D01*
X132194354Y-108054774D01*
X132199046Y-108051869D01*
X132257880Y-108024296D01*
X132320876Y-108006721D01*
X132386080Y-107999138D01*
X132451540Y-108001542D01*
G37*
G36*
X129700315Y-108001096D02*
G01*
X129749941Y-108009519D01*
X129790285Y-108022365D01*
X129823543Y-108040563D01*
X129851915Y-108065045D01*
X129852233Y-108065380D01*
X129868888Y-108082906D01*
X129827572Y-108119626D01*
X129786256Y-108156345D01*
X129769708Y-108139073D01*
X129741412Y-108117003D01*
X129707782Y-108102572D01*
X129671130Y-108095609D01*
X129633768Y-108095943D01*
X129598009Y-108103402D01*
X129566165Y-108117817D01*
X129540547Y-108139017D01*
X129528018Y-108156933D01*
X129518711Y-108177909D01*
X129515841Y-108197120D01*
X129516862Y-108213196D01*
X129521469Y-108236771D01*
X129530347Y-108256737D01*
X129544790Y-108274089D01*
X129566094Y-108289824D01*
X129595554Y-108304936D01*
X129634466Y-108320422D01*
X129674038Y-108334000D01*
X129727494Y-108352975D01*
X129770316Y-108371751D01*
X129803814Y-108391307D01*
X129829294Y-108412622D01*
X129848068Y-108436676D01*
X129861443Y-108464448D01*
X129865770Y-108477471D01*
X129874638Y-108526941D01*
X129872269Y-108575158D01*
X129859426Y-108620751D01*
X129836870Y-108662350D01*
X129805366Y-108698584D01*
X129765676Y-108728084D01*
X129718563Y-108749477D01*
X129713436Y-108751130D01*
X129678084Y-108758674D01*
X129635893Y-108762394D01*
X129591402Y-108762276D01*
X129549151Y-108758309D01*
X129517552Y-108751660D01*
X129494343Y-108744122D01*
X129472597Y-108735760D01*
X129461362Y-108730577D01*
X129446950Y-108721417D01*
X129429902Y-108708356D01*
X129412924Y-108693789D01*
X129398725Y-108680109D01*
X129390014Y-108669712D01*
X129388542Y-108666193D01*
X129392867Y-108659376D01*
X129404378Y-108647181D01*
X129420879Y-108631711D01*
X129440173Y-108615072D01*
X129451091Y-108606255D01*
X129466691Y-108593984D01*
X129496801Y-108621055D01*
X129532880Y-108646331D01*
X129572863Y-108662048D01*
X129614626Y-108668180D01*
X129656046Y-108664699D01*
X129694997Y-108651578D01*
X129729355Y-108628791D01*
X129734451Y-108624084D01*
X129751753Y-108600263D01*
X129762544Y-108570902D01*
X129765175Y-108541081D01*
X129764127Y-108532811D01*
X129758476Y-108513772D01*
X129748364Y-108497259D01*
X129732452Y-108482356D01*
X129709401Y-108468149D01*
X129677875Y-108453723D01*
X129636534Y-108438163D01*
X129614674Y-108430649D01*
X129560413Y-108410770D01*
X129516785Y-108390807D01*
X129482466Y-108369655D01*
X129456129Y-108346210D01*
X129436450Y-108319365D01*
X129422104Y-108288016D01*
X129414811Y-108263919D01*
X129407605Y-108214655D01*
X129411315Y-108168493D01*
X129425082Y-108126227D01*
X129448046Y-108088647D01*
X129479346Y-108056544D01*
X129518123Y-108030711D01*
X129563516Y-108011939D01*
X129614667Y-108001020D01*
X129670716Y-107998744D01*
X129700315Y-108001096D01*
G37*
G36*
X133557624Y-109235718D02*
G01*
X133605018Y-109245627D01*
X133647698Y-109261401D01*
X133683155Y-109282401D01*
X133699939Y-109297266D01*
X133717883Y-109316180D01*
X133677536Y-109353825D01*
X133637189Y-109391469D01*
X133613944Y-109369356D01*
X133584387Y-109348077D01*
X133550340Y-109334645D01*
X133513958Y-109328775D01*
X133477398Y-109330186D01*
X133442816Y-109338595D01*
X133412369Y-109353718D01*
X133388213Y-109375274D01*
X133373256Y-109400921D01*
X133367780Y-109425970D01*
X133367829Y-109453427D01*
X133373254Y-109477371D01*
X133375286Y-109481835D01*
X133384901Y-109497377D01*
X133397243Y-109510839D01*
X133413923Y-109523140D01*
X133436550Y-109535199D01*
X133466734Y-109547936D01*
X133506084Y-109562269D01*
X133530930Y-109570736D01*
X133574015Y-109585853D01*
X133607591Y-109599418D01*
X133633832Y-109612615D01*
X133654911Y-109626630D01*
X133673003Y-109642648D01*
X133683490Y-109653896D01*
X133704314Y-109683854D01*
X133717062Y-109718262D01*
X133722473Y-109759495D01*
X133722725Y-109780061D01*
X133716395Y-109831032D01*
X133699551Y-109876804D01*
X133672840Y-109916592D01*
X133636907Y-109949616D01*
X133592396Y-109975093D01*
X133549660Y-109989880D01*
X133515709Y-109995754D01*
X133475357Y-109998249D01*
X133433678Y-109997373D01*
X133395751Y-109993137D01*
X133378856Y-109989521D01*
X133329708Y-109972005D01*
X133287020Y-109947780D01*
X133259012Y-109924240D01*
X133234038Y-109898793D01*
X133272610Y-109864929D01*
X133290594Y-109849568D01*
X133305248Y-109837844D01*
X133314219Y-109831609D01*
X133315635Y-109831065D01*
X133322039Y-109834796D01*
X133334510Y-109844568D01*
X133350055Y-109858008D01*
X133382857Y-109881266D01*
X133418662Y-109896064D01*
X133455801Y-109902858D01*
X133492604Y-109902103D01*
X133527401Y-109894256D01*
X133558521Y-109879771D01*
X133584295Y-109859106D01*
X133603053Y-109832714D01*
X133613125Y-109801053D01*
X133614370Y-109785877D01*
X133612159Y-109762311D01*
X133604031Y-109741882D01*
X133588900Y-109723706D01*
X133565678Y-109706902D01*
X133533279Y-109690588D01*
X133490615Y-109673881D01*
X133465863Y-109665360D01*
X133414823Y-109647128D01*
X133374032Y-109629470D01*
X133341860Y-109611277D01*
X133316675Y-109591441D01*
X133296843Y-109568850D01*
X133280734Y-109542397D01*
X133278527Y-109538005D01*
X133270638Y-109520633D01*
X133265698Y-109505044D01*
X133263037Y-109487465D01*
X133261985Y-109464126D01*
X133261847Y-109444034D01*
X133262141Y-109415569D01*
X133263479Y-109395525D01*
X133266546Y-109380327D01*
X133272027Y-109366402D01*
X133279427Y-109352297D01*
X133309055Y-109310630D01*
X133346920Y-109277674D01*
X133392970Y-109253463D01*
X133447150Y-109238033D01*
X133458728Y-109236039D01*
X133508024Y-109232310D01*
X133557624Y-109235718D01*
G37*
G36*
X125322839Y-109251155D02*
G01*
X125365412Y-109253882D01*
X125400460Y-109258531D01*
X125429457Y-109265386D01*
X125453881Y-109274728D01*
X125475205Y-109286839D01*
X125494906Y-109302000D01*
X125499120Y-109305729D01*
X125524880Y-109334160D01*
X125541320Y-109365612D01*
X125549541Y-109402762D01*
X125550999Y-109432033D01*
X125550381Y-109458393D01*
X125547870Y-109477489D01*
X125542426Y-109494027D01*
X125533258Y-109512261D01*
X125512207Y-109542974D01*
X125485486Y-109566826D01*
X125455039Y-109584396D01*
X125432460Y-109595379D01*
X125453288Y-109599286D01*
X125486933Y-109611298D01*
X125518528Y-109633165D01*
X125545928Y-109662738D01*
X125566988Y-109697872D01*
X125576130Y-109722224D01*
X125583975Y-109769312D01*
X125580535Y-109815092D01*
X125566522Y-109857976D01*
X125542649Y-109896373D01*
X125509629Y-109928692D01*
X125473687Y-109950788D01*
X125453827Y-109959665D01*
X125434164Y-109966657D01*
X125412941Y-109971980D01*
X125388399Y-109975848D01*
X125358779Y-109978477D01*
X125322323Y-109980081D01*
X125277273Y-109980876D01*
X125225907Y-109981077D01*
X125074109Y-109981077D01*
X125074487Y-109892061D01*
X125176210Y-109892061D01*
X125279719Y-109889949D01*
X125318101Y-109889042D01*
X125346683Y-109887935D01*
X125367662Y-109886357D01*
X125383237Y-109884035D01*
X125395609Y-109880697D01*
X125406975Y-109876072D01*
X125412240Y-109873551D01*
X125441062Y-109854874D01*
X125460176Y-109831206D01*
X125470555Y-109800867D01*
X125473234Y-109768060D01*
X125472522Y-109743335D01*
X125469633Y-109725918D01*
X125463436Y-109711163D01*
X125456726Y-109700235D01*
X125440863Y-109681721D01*
X125421126Y-109665556D01*
X125414723Y-109661697D01*
X125404505Y-109656739D01*
X125393809Y-109653082D01*
X125380548Y-109650479D01*
X125362638Y-109648684D01*
X125337992Y-109647450D01*
X125304526Y-109646531D01*
X125282719Y-109646091D01*
X125176210Y-109644078D01*
X125176210Y-109768070D01*
X125176210Y-109892061D01*
X125074487Y-109892061D01*
X125075013Y-109768070D01*
X125075656Y-109616548D01*
X125075911Y-109556502D01*
X125176210Y-109556502D01*
X125267718Y-109554039D01*
X125304250Y-109552861D01*
X125331201Y-109551378D01*
X125350990Y-109549263D01*
X125366037Y-109546190D01*
X125378760Y-109541833D01*
X125387501Y-109537883D01*
X125414615Y-109518970D01*
X125432967Y-109494250D01*
X125442758Y-109465893D01*
X125444193Y-109436070D01*
X125437472Y-109406952D01*
X125422799Y-109380709D01*
X125400375Y-109359513D01*
X125370404Y-109345535D01*
X125369539Y-109345291D01*
X125355380Y-109343017D01*
X125332156Y-109341113D01*
X125302801Y-109339748D01*
X125270251Y-109339093D01*
X125261717Y-109339059D01*
X125176210Y-109339026D01*
X125176210Y-109447764D01*
X125176210Y-109556502D01*
X125075911Y-109556502D01*
X125076372Y-109447764D01*
X125077203Y-109252019D01*
X125209213Y-109250344D01*
X125271264Y-109250070D01*
X125322839Y-109251155D01*
G37*
G36*
X113474565Y-107438353D02*
G01*
X114203192Y-107439876D01*
X114421973Y-107818122D01*
X114640754Y-108196368D01*
X115314411Y-108243392D01*
X115403284Y-108249572D01*
X115488843Y-108255476D01*
X115570325Y-108261053D01*
X115646962Y-108266254D01*
X115717991Y-108271026D01*
X115782645Y-108275321D01*
X115840159Y-108279087D01*
X115889769Y-108282275D01*
X115930708Y-108284834D01*
X115962211Y-108286713D01*
X115983513Y-108287863D01*
X115993849Y-108288233D01*
X115994710Y-108288180D01*
X115992901Y-108282740D01*
X115985574Y-108267704D01*
X115973179Y-108243891D01*
X115956162Y-108212119D01*
X115934972Y-108173205D01*
X115910056Y-108127968D01*
X115881864Y-108077225D01*
X115850843Y-108021795D01*
X115817441Y-107962496D01*
X115783112Y-107901913D01*
X115747782Y-107839633D01*
X115714330Y-107780447D01*
X115683210Y-107725171D01*
X115654875Y-107674621D01*
X115629780Y-107629616D01*
X115608380Y-107590971D01*
X115591127Y-107559504D01*
X115578477Y-107536032D01*
X115570884Y-107521372D01*
X115568779Y-107516344D01*
X115575612Y-107516437D01*
X115593446Y-107517471D01*
X115621359Y-107519371D01*
X115658426Y-107522061D01*
X115703724Y-107525465D01*
X115756329Y-107529506D01*
X115815317Y-107534110D01*
X115879765Y-107539200D01*
X115948749Y-107544701D01*
X116021345Y-107550536D01*
X116096630Y-107556629D01*
X116173679Y-107562905D01*
X116251570Y-107569288D01*
X116329379Y-107575702D01*
X116406181Y-107582070D01*
X116481053Y-107588318D01*
X116553072Y-107594369D01*
X116621313Y-107600148D01*
X116684854Y-107605578D01*
X116742770Y-107610583D01*
X116794137Y-107615089D01*
X116838032Y-107619018D01*
X116873532Y-107622295D01*
X116899712Y-107624844D01*
X116915649Y-107626589D01*
X116920460Y-107627391D01*
X116924239Y-107633452D01*
X116933528Y-107649436D01*
X116948042Y-107674831D01*
X116967494Y-107709124D01*
X116991601Y-107751805D01*
X117020076Y-107802361D01*
X117052635Y-107860280D01*
X117088992Y-107925050D01*
X117128861Y-107996160D01*
X117171958Y-108073097D01*
X117217997Y-108155350D01*
X117266693Y-108242406D01*
X117317761Y-108333755D01*
X117370916Y-108428884D01*
X117425871Y-108527280D01*
X117482342Y-108628433D01*
X117540044Y-108731830D01*
X117598692Y-108836960D01*
X117657999Y-108943310D01*
X117717681Y-109050369D01*
X117777453Y-109157624D01*
X117837029Y-109264565D01*
X117896124Y-109370678D01*
X117954452Y-109475453D01*
X118011729Y-109578376D01*
X118067669Y-109678937D01*
X118121987Y-109776624D01*
X118174398Y-109870924D01*
X118224616Y-109961326D01*
X118272356Y-110047317D01*
X118317333Y-110128387D01*
X118359261Y-110204022D01*
X118397856Y-110273712D01*
X118432831Y-110336944D01*
X118463902Y-110393206D01*
X118490784Y-110441987D01*
X118513190Y-110482774D01*
X118530837Y-110515056D01*
X118543438Y-110538320D01*
X118550709Y-110552056D01*
X118552485Y-110555856D01*
X118545600Y-110555162D01*
X118528215Y-110552425D01*
X118501612Y-110547876D01*
X118467078Y-110541744D01*
X118425894Y-110534257D01*
X118379346Y-110525644D01*
X118328716Y-110516136D01*
X118310884Y-110512755D01*
X118174160Y-110486957D01*
X118047704Y-110463497D01*
X117930065Y-110442130D01*
X117819793Y-110422608D01*
X117715436Y-110404687D01*
X117615543Y-110388120D01*
X117518662Y-110372661D01*
X117423344Y-110358064D01*
X117328137Y-110344085D01*
X117252935Y-110333438D01*
X117157276Y-110320103D01*
X116816770Y-109720726D01*
X116772279Y-109642444D01*
X116729392Y-109567053D01*
X116688486Y-109495212D01*
X116649939Y-109427582D01*
X116614128Y-109364821D01*
X116581432Y-109307591D01*
X116552226Y-109256550D01*
X116526889Y-109212359D01*
X116505798Y-109175677D01*
X116489330Y-109147165D01*
X116477863Y-109127482D01*
X116471774Y-109117288D01*
X116470896Y-109115980D01*
X116464486Y-109114997D01*
X116447036Y-109113258D01*
X116419472Y-109110830D01*
X116382717Y-109107779D01*
X116337696Y-109104173D01*
X116285334Y-109100078D01*
X116226556Y-109095561D01*
X116162285Y-109090688D01*
X116093447Y-109085528D01*
X116020966Y-109080146D01*
X115945766Y-109074609D01*
X115868773Y-109068984D01*
X115790910Y-109063338D01*
X115713103Y-109057738D01*
X115636275Y-109052251D01*
X115561352Y-109046943D01*
X115489257Y-109041881D01*
X115420916Y-109037132D01*
X115357253Y-109032763D01*
X115299193Y-109028841D01*
X115247659Y-109025432D01*
X115203578Y-109022603D01*
X115167872Y-109020422D01*
X115141467Y-109018955D01*
X115125288Y-109018268D01*
X115120240Y-109018364D01*
X115122899Y-109023710D01*
X115131210Y-109038767D01*
X115144792Y-109062873D01*
X115163265Y-109095365D01*
X115186248Y-109135580D01*
X115213359Y-109182854D01*
X115244219Y-109236526D01*
X115278446Y-109295933D01*
X115315659Y-109360411D01*
X115355479Y-109429297D01*
X115397523Y-109501929D01*
X115441412Y-109577645D01*
X115451484Y-109595007D01*
X115495738Y-109671323D01*
X115538237Y-109744704D01*
X115578601Y-109814487D01*
X115616449Y-109880008D01*
X115651399Y-109940606D01*
X115683070Y-109995617D01*
X115711082Y-110044378D01*
X115735052Y-110086227D01*
X115754601Y-110120501D01*
X115769347Y-110146538D01*
X115778909Y-110163674D01*
X115782905Y-110171246D01*
X115782999Y-110171564D01*
X115776846Y-110171499D01*
X115759697Y-110170688D01*
X115732530Y-110169191D01*
X115696323Y-110167067D01*
X115652053Y-110164376D01*
X115600698Y-110161179D01*
X115543237Y-110157534D01*
X115480646Y-110153503D01*
X115413904Y-110149144D01*
X115373748Y-110146495D01*
X115278311Y-110140223D01*
X115192896Y-110134732D01*
X115115561Y-110129921D01*
X115044358Y-110125688D01*
X114977345Y-110121931D01*
X114912575Y-110118550D01*
X114848103Y-110115444D01*
X114781986Y-110112511D01*
X114712277Y-110109649D01*
X114637031Y-110106759D01*
X114554305Y-110103738D01*
X114547698Y-110103502D01*
X114435014Y-110099476D01*
X113954325Y-109298354D01*
X113473636Y-108497231D01*
X113459417Y-108520597D01*
X113454742Y-108528355D01*
X113444247Y-108545822D01*
X113428282Y-108572417D01*
X113407195Y-108607556D01*
X113381336Y-108650655D01*
X113351056Y-108701133D01*
X113316705Y-108758405D01*
X113278631Y-108821889D01*
X113237184Y-108891002D01*
X113192715Y-108965161D01*
X113145572Y-109043781D01*
X113096106Y-109126282D01*
X113044667Y-109212079D01*
X112991603Y-109300589D01*
X112978784Y-109321972D01*
X112512370Y-110099981D01*
X112428285Y-110103627D01*
X112317240Y-110108463D01*
X112216997Y-110112880D01*
X112126364Y-110116940D01*
X112044152Y-110120706D01*
X111969171Y-110124241D01*
X111900230Y-110127607D01*
X111836139Y-110130867D01*
X111775707Y-110134084D01*
X111717746Y-110137321D01*
X111661064Y-110140639D01*
X111604471Y-110144103D01*
X111546777Y-110147774D01*
X111486792Y-110151715D01*
X111423325Y-110155989D01*
X111387125Y-110158462D01*
X111085434Y-110181243D01*
X110780502Y-110208355D01*
X110474071Y-110239568D01*
X110167882Y-110274656D01*
X109863676Y-110313387D01*
X109563195Y-110355535D01*
X109268180Y-110400871D01*
X108980372Y-110449165D01*
X108701513Y-110500190D01*
X108534324Y-110533006D01*
X108497594Y-110540332D01*
X108464583Y-110546762D01*
X108437207Y-110551936D01*
X108417378Y-110555494D01*
X108407011Y-110557075D01*
X108406244Y-110557122D01*
X108402560Y-110554370D01*
X108405354Y-110545012D01*
X108412549Y-110531620D01*
X108416703Y-110524257D01*
X108426457Y-110506847D01*
X108441571Y-110479822D01*
X108461800Y-110443618D01*
X108486902Y-110398669D01*
X108516637Y-110345408D01*
X108550760Y-110284272D01*
X108589030Y-110215693D01*
X108631205Y-110140106D01*
X108677042Y-110057945D01*
X108726298Y-109969645D01*
X108778733Y-109875641D01*
X108834102Y-109776365D01*
X108892165Y-109672254D01*
X108952678Y-109563740D01*
X109015400Y-109451259D01*
X109080087Y-109335244D01*
X109146499Y-109216131D01*
X109214391Y-109094353D01*
X109226850Y-109072005D01*
X109294866Y-108950018D01*
X109361393Y-108830738D01*
X109426192Y-108714592D01*
X109489024Y-108602007D01*
X109549649Y-108493410D01*
X109607829Y-108389228D01*
X109663326Y-108289888D01*
X109715899Y-108195818D01*
X109765310Y-108107444D01*
X109811320Y-108025195D01*
X109853691Y-107949496D01*
X109892182Y-107880776D01*
X109926555Y-107819461D01*
X109956572Y-107765979D01*
X109981993Y-107720756D01*
X110002579Y-107684220D01*
X110018091Y-107656798D01*
X110028291Y-107638917D01*
X110032939Y-107631005D01*
X110033185Y-107630652D01*
X110040015Y-107628911D01*
X110057999Y-107626396D01*
X110087221Y-107623101D01*
X110127765Y-107619016D01*
X110179712Y-107614135D01*
X110243147Y-107608450D01*
X110318152Y-107601954D01*
X110404811Y-107594640D01*
X110503207Y-107586499D01*
X110613423Y-107577525D01*
X110712016Y-107569591D01*
X110800645Y-107562515D01*
X110885897Y-107555752D01*
X110967013Y-107549360D01*
X111043234Y-107543397D01*
X111113800Y-107537921D01*
X111177954Y-107532989D01*
X111234936Y-107528661D01*
X111283987Y-107524992D01*
X111324348Y-107522042D01*
X111355261Y-107519869D01*
X111375965Y-107518530D01*
X111385703Y-107518083D01*
X111386377Y-107518135D01*
X111383717Y-107523518D01*
X111375424Y-107538792D01*
X111361802Y-107563419D01*
X111343155Y-107596861D01*
X111319785Y-107638579D01*
X111291998Y-107688035D01*
X111260096Y-107744690D01*
X111224384Y-107808006D01*
X111185164Y-107877445D01*
X111142741Y-107952468D01*
X111097418Y-108032537D01*
X111049500Y-108117113D01*
X110999289Y-108205658D01*
X110947089Y-108297634D01*
X110893205Y-108392501D01*
X110886839Y-108403706D01*
X110832777Y-108498873D01*
X110780363Y-108591209D01*
X110729900Y-108680175D01*
X110681692Y-108765233D01*
X110636043Y-108845844D01*
X110593256Y-108921471D01*
X110553636Y-108991575D01*
X110517486Y-109055617D01*
X110485110Y-109113060D01*
X110456811Y-109163365D01*
X110432894Y-109205994D01*
X110413663Y-109240409D01*
X110399421Y-109266071D01*
X110390472Y-109282442D01*
X110387119Y-109288985D01*
X110387107Y-109289083D01*
X110393240Y-109288775D01*
X110410560Y-109287323D01*
X110438315Y-109284799D01*
X110475754Y-109281279D01*
X110522125Y-109276834D01*
X110576675Y-109271539D01*
X110638654Y-109265467D01*
X110707309Y-109258692D01*
X110781889Y-109251286D01*
X110861641Y-109243324D01*
X110945814Y-109234879D01*
X111033657Y-109226024D01*
X111069608Y-109222388D01*
X111180074Y-109211175D01*
X111279092Y-109201052D01*
X111367160Y-109191963D01*
X111444777Y-109183853D01*
X111512441Y-109176666D01*
X111570650Y-109170344D01*
X111619903Y-109164832D01*
X111660696Y-109160074D01*
X111693530Y-109156014D01*
X111718901Y-109152595D01*
X111737308Y-109149762D01*
X111749249Y-109147458D01*
X111755223Y-109145627D01*
X111756047Y-109145024D01*
X111759677Y-109138977D01*
X111768997Y-109123093D01*
X111783687Y-109097923D01*
X111803427Y-109064017D01*
X111827899Y-109021928D01*
X111856781Y-108972204D01*
X111889755Y-108915398D01*
X111926502Y-108852060D01*
X111966700Y-108782742D01*
X112010031Y-108707994D01*
X112056176Y-108628366D01*
X112104813Y-108544411D01*
X112155625Y-108456678D01*
X112208291Y-108365719D01*
X112254046Y-108286676D01*
X112745938Y-107436829D01*
X113474565Y-107438353D01*
G37*
D12*
%TO.C,U4*%
X142550000Y-114800000D02*
X142550000Y-115800000D01*
X142550000Y-114800000D02*
X144050000Y-114800000D01*
X142550000Y-140650000D02*
X142550000Y-134450000D01*
X160950000Y-114800000D02*
X159450000Y-114800000D01*
X160950000Y-115800000D02*
X160950000Y-114800000D01*
X160950000Y-140650000D02*
X142550000Y-140650000D01*
X160950000Y-140650000D02*
X160950000Y-134450000D01*
X160950000Y-134275000D02*
X160950000Y-133775000D01*
X161450000Y-133775000D01*
X160950000Y-134275000D01*
G36*
X160950000Y-134275000D02*
G01*
X160950000Y-133775000D01*
X161450000Y-133775000D01*
X160950000Y-134275000D01*
G37*
%TO.C,J5*%
X110620000Y-84230000D02*
X112000000Y-84230000D01*
X110620000Y-85610000D02*
X110620000Y-84230000D01*
X110620000Y-86880000D02*
X110620000Y-104770000D01*
X110620000Y-86880000D02*
X113380000Y-86880000D01*
X110620000Y-104770000D02*
X113380000Y-104770000D01*
X113380000Y-86880000D02*
X113380000Y-104770000D01*
%TD*%
M02*
